<?xml version="1.0" encoding="utf-8"?>
<!-- Generator: Adobe Illustrator 22.1.0, SVG Export Plug-In . SVG Version: 6.00 Build 0)  -->
<svg version="1.1" id="DESIGNER" xmlns="http://www.w3.org/2000/svg" xmlns:xlink="http://www.w3.org/1999/xlink" x="0px" y="0px"
	 viewBox="0 0 422 370" style="enable-background:new 0 0 422 370;" xml:space="preserve">
<style type="text/css">
	.st0{fill:#A1DBC7;}
	.st1{clip-path:url(#SVGID_2_);}
	.st2{opacity:0.67;fill:#43BDBC;}
	.st3{fill:#8E5C25;}
	.st4{fill:#D4145A;}
	.st5{fill:#AF0E57;}
	.st6{fill:#C69C6D;}
	.st7{fill:#B28560;}
	.st8{fill:#009245;}
	.st9{fill:#FFFFFF;}
	.st10{fill:none;stroke:#43BDBC;stroke-width:10;stroke-miterlimit:10;}
	.st11{fill:#E6E6E6;}
	.st12{fill:#CCCCCC;}
	.st13{fill:#0278A4;}
	.st14{fill:#83C3F2;}
	.st15{fill:#C9DF61;}
	.st16{fill:#C1D699;}
	.st17{fill:#0D467D;}
	.st18{fill:#137991;}
	.st19{fill:#6DD2DA;}
	.st20{fill:#FF9F40;}
	.st21{fill:#4D5D6C;}
	.st22{fill:#96A8B2;}
	.st23{fill:#CECECE;}
	.st24{fill:#FEC04F;}
	.st25{fill:none;stroke:#CCCCCC;stroke-width:1.8665;stroke-linecap:round;stroke-miterlimit:10;}
	.st26{fill:#808080;}
	.st27{fill:#4D4D4D;}
	.st28{fill:#E2A77F;}
	.st29{fill:#C4875F;}
	.st30{fill:#FBB03B;}
	.st31{fill:#AA7329;}
	.st32{fill:#FFD8A4;}
</style>
<circle class="st0" cx="216.8" cy="180.2" r="154.7"/>
<g>
	<defs>
		<circle id="SVGID_1_" cx="216.8" cy="180.2" r="154.7"/>
	</defs>
	<clipPath id="SVGID_2_">
		<use xlink:href="#SVGID_1_"  style="overflow:visible;"/>
	</clipPath>
	<g class="st1">
		<polygon class="st2" points="285.3,64.7 368,148 387.3,208 372.7,280.7 318.7,277.3 254,192.7 		"/>
		<path class="st3" d="M209,207.9c0,0,46.8,29.1,73,12.8s25.5-24.8,25.5-24.8s-5.7-92.9-12.1-102.8s-33.3-22-49.6-17.7
			c-16.3,4.3-22,9.2-31.2,29.8C205.5,125.6,208.3,198,209,207.9z"/>
		<polygon class="st2" points="134.4,113.8 134.4,99 88,99 88,113.8 88,115.5 88,224 198.8,224 198.8,113.8 		"/>
		<path class="st4" d="M275.3,195.1c0,0,17.5,18.3,36.9,17.7c18.8-0.5,40.2,57,29.1,66.1c-19.1,15.8-29.2,44.6-59.3,43l-75.5,17
			c-18.1,1-40.6-1-40-13.5c0.6-13.7,6.2-106.7,32.2-112.6c18.9-4.3,36.9-17.7,36.9-17.7H275.3z"/>
		<g>
			<path class="st5" d="M234.4,212.8c0,0,36.5,40.4,67,12.7c0.9,1.9,1.7,3.9,2.5,6.2c5,14.9-2.8,24.1-2.8,24.1s6,0.9,12.4-8.4
				c6.2-9,5.8-15.6,4.5-22.5c7.1,3.6,19.7,13.4,25.5,37.2l0.1-0.1c-3.1-20.1-18-49.8-31.6-49.4c-17.1,0.5-32.8-13.8-36.2-17.1
				c-0.2-0.1-0.3-0.1-0.3-0.1L234,196c-0.3,0.2-0.6,0.4-0.9,0.6c0,0-0.1,0-0.1,0.1c-0.1,0.1-0.2,0.2-0.3,0.2
				c-2.9,2-7.9,5.1-13.9,8.2c0.2,4.7-1,34-6.7,40.4C212,245.5,230.5,242.5,234.4,212.8z"/>
		</g>
		<path class="st5" d="M205.8,272.4l0.5-2.5l-9-6l6.7,15.9c-1,4.7-2.2,10.8-2.5,15.2c-1.7,23.1-1,31.8-1,31.8l10.7-0.7
			C211.2,326.2,204.5,293,205.8,272.4z"/>
		<path class="st5" d="M315,274.4l-0.5-2.5l9-6l-6.7,15.9c1,4.7,2.2,10.8,2.5,15.2c1.7,23.1,1,31.8,1,31.8l-10.7-0.7
			C309.6,328.2,316.3,295,315,274.4z"/>
		<path class="st5" d="M214.5,253c-0.6,1.1,25.8,14.7,47,14.6c19.9-0.1,32.1-14.7,32.1-14.7S259.5,270.6,214.5,253z"/>
		<path class="st6" d="M290.9,122.1c0,0,2.5-6,4.6-0.4c2.1,5.7,1.4,19.1-1.4,22c-2.8,2.8-4.3,1.4-4.3,1.4l-2.1-22.3L290.9,122.1z"/>
		<g>
			<path class="st6" d="M276.1,168.3c0,0-5.2,18.4,0.9,29.3c6.1,10.9-11.8,21.3-20.8,21.7h-3c-9-0.5-27-10.9-20.8-21.7
				s0.9-29.3,0.9-29.3H276.1z"/>
			<g>
				<path class="st7" d="M277,197.3c-6.1-10.9-0.9-29.3-0.9-29.3H269c-0.5,5.4-2.2,28.4,3.3,38c1,1.7,1.4,3.8,1.3,5.4
					C277.6,207.5,279.8,202.3,277,197.3z"/>
			</g>
			<path class="st7" d="M237.2,174c0,0,5.7,23.6,33.4,18.8l1.2-15.8l0.9-4.2c0,0-3,8.7-8.7,9s-9.8,3.5-14.2,1.6
				C245.5,181.5,237.8,174.6,237.2,174z"/>
			<path class="st6" d="M251.3,75.6c0,0-15.1,2.8-25.8,12.8c-10.6,9.9-6.4,44-6.4,44s0.2,13.7,1.1,18.7c1.1,5.8,6.7,11.4,11.1,16.5
				c3.4,4,4.5,7.5,7.7,11.2c2.8,3.3,6.3,5.2,9.4,6.4c5.6,2,11.8,1.5,16.7-1.8c1.7-1.1,3.5-2.6,5.2-4.6c3.2-3.7,4.3-7.2,7.7-11.2
				c4.4-5.2,10-10.8,11.1-16.5c0.9-4.9,1.1-18.7,1.1-18.7s4.3-34-6.4-44s-27.3-12.8-27.3-12.8H251.3z"/>
			<g>
				<path class="st7" d="M283.9,88.5c-1-0.9-2-1.7-3-2.5c7.9,12.2,3.4,36.1,3.4,36.1s7,4.9,3,22.1c-3.7,16-8.5,14.9-12.5,21.8
					c-12.2,21.2-22.1,16.7-29.5,13.1c-1.7-0.8-10.4-8.8-12.2-10.1c0.4,0.6,5.6,9.4,6.1,10c2.8,3.3,6.3,5.2,9.4,6.4
					c5.6,2,11.8,1.5,16.7-1.8c1.7-1.1,3.5-2.6,5.2-4.6c3.2-3.7,4.3-7.2,7.7-11.2c4.4-5.2,10-10.8,11.1-16.5
					c0.9-4.9,8.6-18.8,8.6-18.8S294.5,98.4,283.9,88.5z"/>
			</g>
			<g>
				<path class="st7" d="M229,126c4.7-7.6-0.4-18.9-0.4-18.9c6.4-11.7,21.2-5.2,28.4-24.5c0,0,0.3-2.8,0.1-6.2
					c-0.3-0.1-0.5-0.1-0.5-0.1h-4.2l0.3,1.3c-5.9,13.5-22.7,8.4-28.4,24.5c0,0,6.3,9.7,1.5,17.3c-3.2,5.1-5.1,7.6-6.9,10.8
					c0.2,1.8,0.3,2.9,0.3,2.9s0.2,13.7,1.1,18.7c0.5,2.9,2.2,5.7,4.3,8.5c1.1,1.2,2.2,2.4,3.1,3.5C219.4,140.5,224.6,132.9,229,126z
					"/>
			</g>
			<path class="st7" d="M218.5,119.4c0,0-2.5-6-4.6-0.4s-1.4,19.1,1.4,22c2.8,2.8,4.3,1.4,4.3,1.4l2.1-22.3L218.5,119.4z"/>
			<path class="st7" d="M271.8,93.6c9.9,9.2,11.2,13.2,18.4,10.3c-1.1-4.7-3.1-8.5-5.5-11.3c-14.7-16.3-27.3-12.8-27.3-12.8h-4.1
				l-2,8.7C251.3,88.6,261.9,84.4,271.8,93.6z"/>
			<g>
				<path id="nose_1_" class="st7" d="M256.5,140.3c2.9,0,5.3-2.4,5.3-5.3l-10.5,0C251.3,138,253.6,140.3,256.5,140.3z"/>
				<path id="lips_1_" class="st7" d="M272.8,150.7h-32.6c0,0,0,0.1,0,0.1c0,4.9,6.7,11.4,15.7,11.4S272.8,155.7,272.8,150.7
					C272.8,150.8,272.8,150.8,272.8,150.7z"/>
				<g id="right_eye_1_">
					<path class="st8" d="M273.4,114.2c-2.5,0-4.6,2.1-4.6,4.6c0,1,0.3,2,0.9,2.7h7.4c0.6-0.8,0.9-1.7,0.9-2.7
						C278.1,116.3,276,114.2,273.4,114.2z"/>
				</g>
				<g id="left_eye_1_">
					<path class="st8" d="M238.4,114.2c-2.5,0-4.6,2.1-4.6,4.6c0,1,0.3,2,0.9,2.7h7.4c0.6-0.8,0.9-1.7,0.9-2.7
						C243.1,116.3,241,114.2,238.4,114.2z"/>
				</g>
				<path id="teeth_1_" class="st9" d="M240.1,150.7c0,0,0,0.1,0,0.1c0,2.5,7.3,4.5,16.4,4.5c9.1,0,16.4-2,16.4-4.5c0,0,0-0.1,0-0.1
					H240.1z"/>
			</g>
		</g>
	</g>
</g>
<circle class="st10" cx="217" cy="180.4" r="154.7"/>
<g>
	<polygon class="st11" points="125.6,103.9 125.6,89.2 79.1,89.2 79.1,103.9 79.1,105.7 79.1,214.2 190,214.2 190,103.9 	"/>
	<rect x="86.7" y="112.2" class="st9" width="96" height="15.1"/>
	<g>
		<rect x="87.8" y="113.3" class="st9" width="93.9" height="12.9"/>
		<path class="st12" d="M180.6,114.4v10.8H88.9v-10.8H180.6 M182.7,112.2h-96v15.1h96V112.2L182.7,112.2z"/>
	</g>
	<rect x="87.3" y="133.1" class="st13" width="20.8" height="20.8"/>
	<rect x="112.3" y="133.1" class="st14" width="20.8" height="20.8"/>
	<rect x="137.4" y="133.1" class="st15" width="20.8" height="20.8"/>
	<rect x="162.4" y="133.1" class="st16" width="20.8" height="20.8"/>
	<rect x="87.3" y="157.8" class="st17" width="20.8" height="20.8"/>
	<rect x="112.3" y="157.8" class="st18" width="20.8" height="20.8"/>
	<rect x="137.4" y="157.8" class="st19" width="20.8" height="20.8"/>
	<rect x="162.4" y="157.8" class="st20" width="20.8" height="20.8"/>
	<rect x="87.3" y="182.6" class="st21" width="20.8" height="20.8"/>
	<rect x="112.3" y="182.6" class="st22" width="20.8" height="20.8"/>
	<rect x="137.4" y="182.6" class="st23" width="20.8" height="20.8"/>
	<rect x="162.4" y="182.6" class="st24" width="20.8" height="20.8"/>
	<line class="st25" x1="88.8" y1="96.5" x2="99.4" y2="96.5"/>
	<line class="st25" x1="88.8" y1="99.6" x2="99.4" y2="99.6"/>
	<line class="st25" x1="88.8" y1="102.8" x2="99.4" y2="102.8"/>
</g>
<g>
	<path class="st26" d="M218.3,329.8h-156c-1.1,0-1.4-2.9-0.7-4l19.9-29.3c0.4-0.6,1.4-1.1,2.2-1.1h113c0.8,0,1.8,0.5,2.2,1.1
		l19.9,29.3C219.7,327,219.4,329.8,218.3,329.8z"/>
	<path class="st27" d="M216.5,325.1H64.1c-1,0-1.3-0.8-0.6-1.9l18.1-26.7c0.4-0.6,1.4-1.1,2.1-1.1h113.1c0.8,0,1.7,0.5,2.1,1.1
		l18.1,26.7C217.8,324.3,217.5,325.1,216.5,325.1z"/>
	<path class="st26" d="M180.1,321.3H77.4c-0.8,0-1-0.6-0.6-1.3l12.4-21.4c0.3-0.5,1-0.8,1.6-0.8h80.9c0.6,0,1.2,0.4,1.4,0.8L181,320
		C181.2,320.8,180.8,321.3,180.1,321.3z"/>
	<path class="st26" d="M205.6,317.1c1.2,1.9-1.8,3.5-6.6,3.5c-4.8,0-9.5-1.6-10.3-3.5c-0.8-1.8,2.2-3.3,6.7-3.3
		C199.9,313.8,204.4,315.3,205.6,317.1z"/>
	<path class="st26" d="M199.7,310.6h-12.6c-0.5,0-1.1-0.4-1.3-0.8l-5.2-11.4c-0.2-0.3,0.1-0.6,0.5-0.6h11c0.4,0,0.9,0.3,1.1,0.6
		l6.9,11.4C200.4,310.3,200.2,310.6,199.7,310.6z"/>
</g>
<g>
	<g>
		<path class="st27" d="M169.4,309.1l-0.8,0.3c-1.7,0.7-3.7-0.1-4.4-1.9l-19.6-48.1c-0.7-1.7,0.1-3.7,1.9-4.4l0.8-0.3
			c1.7-0.7,3.7,0.1,4.4,1.9l19.6,48.1C172,306.4,171.1,308.4,169.4,309.1z"/>
		<path class="st27" d="M152.3,268.2L152.3,268.2c-0.9,0.4-2-0.1-2.4-1l-5.2-12.7c-0.4-0.9,0.1-2,1-2.4l0,0c0.9-0.4,2,0.1,2.4,1
			l5.2,12.7C153.6,266.7,153.2,267.8,152.3,268.2z"/>
		<path class="st27" d="M173,315.7l-0.9-8.6c-0.1-0.9-1.1-1.5-1.9-1.1l-4.4,1.8c-0.9,0.3-1.1,1.4-0.6,2.1l5.3,6.8
			C171.4,317.8,173.1,317.1,173,315.7z"/>
	</g>
	<g>
		<ellipse class="st28" cx="168.2" cy="284.2" rx="6.1" ry="6.5"/>
		<g>
			<path class="st29" d="M172.2,279.3c0.6,1,0.9,2.1,0.9,3.4c0,3.6-2.7,6.5-6.1,6.5c-1.5,0-2.9-0.6-4-1.6c1.1,1.9,3,3.1,5.2,3.1
				c3.4,0,6.1-2.9,6.1-6.5C174.3,282.3,173.5,280.5,172.2,279.3z"/>
		</g>
	</g>
	<g>
		<path class="st28" d="M154.8,309.4l-17.3-11.2c-2.3-1.5-3-4.6-1.5-7l0.5-0.7c1.5-2.3,4.6-3,7-1.5l17.3,11.2c2.3,1.5,3,4.6,1.5,7
			l-0.5,0.7C160.2,310.2,157.1,310.9,154.8,309.4z"/>
		<path class="st29" d="M162.8,305.5C162.8,305.5,162.8,305.5,162.8,305.5c-1.6,2.5-4.9,3.2-7.4,1.6l-19.4-12.5
			c-0.3-0.2-0.5-0.4-0.7-0.6c0.1,1.7,1,3.3,2.5,4.3l16.6,10.7c2.5,1.6,5.9,0.9,7.6-1.6C162.4,306.8,162.7,306.2,162.8,305.5z"/>
	</g>
	<g>
		<path class="st28" d="M146.2,316.7l-9.6-6c-2.3-1.5-3.1-4.6-1.6-6.9l0.5-0.7c1.5-2.3,4.6-3.1,6.9-1.6l9.6,6
			c2.3,1.5,3.1,4.6,1.6,6.9l-0.5,0.7C151.7,317.5,148.6,318.2,146.2,316.7z"/>
		<path class="st29" d="M154.2,312.7C154.2,312.7,154.2,312.8,154.2,312.7c-1.6,2.5-4.9,3.3-7.3,1.7l-11.6-7.3
			c-0.3-0.2-0.5-0.4-0.7-0.6c0.1,1.7,1,3.3,2.5,4.3l8.8,5.5c2.5,1.6,5.9,0.8,7.6-1.7C153.8,314.1,154.1,313.4,154.2,312.7z"/>
	</g>
	<g>
		<path class="st28" d="M165.3,303.1l-26.6-17.4c-2.4-1.6-3.1-4.8-1.5-7.2l0.6-1c1.6-2.4,4.8-3.1,7.2-1.5l26.6,17.4
			c2.4,1.6,3.1,4.8,1.5,7.2l-0.6,1C170.9,304,167.7,304.6,165.3,303.1z"/>
		<g>
			<path class="st29" d="M173.5,299.3C173.5,299.3,173.4,299.4,173.5,299.3c-1.7,2.6-5.1,3.4-7.5,1.8L137,282.3
				c-0.3-0.2-0.5-0.4-0.7-0.6c0,1.8,0.9,3.4,2.4,4.4l26.2,17.1c2.5,1.6,6,0.8,7.8-1.9C173,300.7,173.3,300,173.5,299.3z"/>
		</g>
	</g>
</g>
<g>
	<path class="st30" d="M255.8,60.2c0-0.4-0.1-0.2-0.5-0.2c-10.6,1.4-15-1.7-27.4,0.4c-12.8,2.1-24.1,6.4-26.2,23.4
		c-1.2,10,0.2,11.2-11.3,29.1c-15.6,24.1,8.5,34,2.1,53.9s-2.8,23,6.4,34.8c3.7,4.8,9.3,15.4,9.8,18.5c1.7,14-7.6,23.7-7.6,23.7
		s8.6-2.9,12.1-5.5c5.4-4,9.9-9.5,8.6-22.6c-1.3-13.2-4.3-14.1-6.6-21.5c-0.6-2.4,0.3-8.3,1.6-11.1c3.8-7.6,5.3-9.6,4.9-19.6
		c-0.4-9.5-4.7-13.2-6.6-15.1c-1.9-1.9,0-7.6,2.8-14.2c2.8-6.6,4.7-8.5,9.5-16.1c3.2-5.1,1.4-11-0.1-14.5c-1-2.2-0.8-4.8,0.5-6.8
		c4.6-6.8,18-11.5,23.8-14.3c1.5-0.7,2.8-1.5,3.8-2.5c1.3-1.3,1.9-2.4,2.1-4.9C257.7,72.7,255.9,60.5,255.8,60.2z"/>
	<g>
		<path class="st31" d="M222.9,105c-1.3,2-1.5,4.6-0.5,6.8c1.5,3.4,3.3,9.4,0.1,14.5c-4.7,7.6-6.6,9.5-9.5,16.1
			c-2.8,6.6-4.7,12.3-2.8,14.2c1.9,1.9,6.3,5.6,6.6,15.1c0.4,9.9-1.1,12-4.9,19.6c-1.4,2.8-2.3,8.6-1.6,11.1
			c2.3,7.4,5.2,8.3,6.6,21.5c0.6,5.4,0.1,9.5-1,12.8c4.2-3.9,7.3-9.6,6.2-20.6c-1.3-13.2-4.3-14.1-6.6-21.5
			c-0.6-2.4,0.3-8.3,1.6-11.1c3.8-7.6,5.3-9.6,4.9-19.6c-0.4-9.5-4.7-13.2-6.6-15.1c-1.9-1.9,0-7.6,2.8-14.2
			c2.8-6.6,4.7-8.5,9.5-16.1c3.2-5.1,1.4-11-0.1-14.5c-0.4-1-0.6-2.1-0.6-3.2C225.5,101.9,224.1,103.3,222.9,105z"/>
	</g>
	<g id="hair_details_2_">
		<path class="st31" d="M255.5,63.1c0-0.4,0.4,12.9-7.8,16.2c-10,4-18.3,9.3-20.4,12.5c-2.4,3.6-2.8,5.4-2.2,7.8
			c0.4,1.6,1.6,4.3,1.8,4.6c0.1-1.1-0.7-4.7,0.8-6.8c4.3-6.5,18-11.5,23.8-14.3c1.5-0.7,2.8-1.5,3.8-2.5c1.3-1.3,1.9-2.4,2.1-4.9
			C257.6,73.1,255.5,63.5,255.5,63.1z"/>
		<path class="st31" d="M213.8,77.1c-1.6,7.1,4.6,13.7-10.4,31.2c-15.5,18.2-14.5,34.9-14.5,34.9l0,0c0,0-4.6-20,10.9-38.2
			c14.5-17,11.6-19.2,13.1-25.5C213.1,78.7,213.4,77.9,213.8,77.1L213.8,77.1z"/>
		<path class="st31" d="M209.4,154.3c0,0-16.3,27.2-10.5,47.2"/>
	</g>
	<path class="st30" d="M255.8,59.8c0-0.4,3,0.2,3.3,0.2c6.3-0.3,7.7-0.2,20.2,1.8c12.8,2.1,18.4,12.6,23.3,23.3
		c4.2,9.1,2.3,8.7,13.9,26.6c15.6,24.1-8.5,34-2.1,53.9c6.4,19.9,2.8,23-6.4,34.8c-3.7,4.8,4.2,8.6,4.9,23.1S302.2,250,302.2,250
		s2.8-16.2-2.8-24.5c-4.6-6.9-10-25.1-7.7-32.5c0.6-2.4-0.3-8.3-1.6-11.1c-3.8-7.6-5.3-9.6-4.9-19.6c0.4-9.5,4.7-13.2,6.6-15.1
		c1.9-1.9,0-7.6-2.8-14.2c-2.8-6.6-4.7-8.5-9.5-16.1c-3.2-5.1-1.4-11,0.1-14.5c1-2.2,0.8-4.8-0.5-6.8c-4.6-6.8-12.9-8.7-18.7-11.5
		c-1.5-0.7-2.8-1.5-3.8-2.5c-1.3-1.3-1.9-2.4-2.1-4.9C254.3,74.4,255.8,60.2,255.8,59.8z"/>
	<g>
		<path class="st31" d="M314.2,165.4c0.5-12.7,11.9-22,7.6-37C321.4,141.8,309.7,151,314.2,165.4z"/>
		<path class="st31" d="M317.7,181.1c0.1,7.5-3.5,11.6-9.6,19.3c-1.9,2.4-0.8,4.5,0.8,7.8c0.1-0.1,0.2-0.2,0.2-0.3
			C316.9,197.9,320.6,194.2,317.7,181.1z"/>
	</g>
	<g>
		<path class="st32" d="M283.2,117.4c0.4,7.2,7.8,17.2,10.6,23.8s4.7,12.3,2.8,14.2c-1.9,1.9-5.1,6.1-5.5,15.6
			c-0.4,9.9,10.2,8.2,8,28.8s3.8,33.8,3.8,33.8s-12.8-17.1-11.8-39c0.8-5,0.1-9.5-1.3-12.3c-3.8-7.6-5.3-9.6-4.9-19.6
			c0.4-9.5,4.7-13.2,6.6-15.1c1.9-1.9,0-7.6-2.8-14.2c-2.8-6.6-4.7-8.5-9.5-16.1c-3.2-5.1-1.4-11,0.1-14.5c0.4-1,0.6-2.1,0.6-3.2
			c0.7-9.6,2.9,2.6,4,4.3c1.3,2,1.5,4.6,0.5,6.8L283.2,117.4z"/>
	</g>
	<path class="st32" d="M255.5,61.8c0-0.4,0.4,15.4,8.6,18.7c10,4,13.1,6.5,15.3,9.7c2.4,3.6,2.8,5.4,2.2,7.8
		c-0.4,1.6-1.6,4.3-1.8,4.6c-0.1-1.1,0.7-4.7-0.8-6.8c-4.3-6.5-12.9-8.7-18.7-11.5c-1.5-0.7-2.8-1.5-3.8-2.5
		c-1.3-1.3-1.9-2.4-2.1-4.9C254.2,74.4,255.4,62.2,255.5,61.8z"/>
	<path class="st31" d="M293.1,76c1.6,7.1-4.6,13.7,10.4,31.2c15.5,18.2,14.5,34.9,14.5,34.9l0,0c0,0,4.6-20-10.9-38.2
		c-14.5-17-11.6-19.2-13.1-25.5C293.8,77.6,293.5,76.8,293.1,76L293.1,76z"/>
	<path class="st32" d="M281.3,93.5c1.6,7.1-2.9,13.8,12,31.3c15.5,18.2,14.5,34.9,14.5,34.9l0,0c0,0,4.6-20-10.9-38.2
		C282.4,104.5,281.3,93.5,281.3,93.5z"/>
	<path class="st31" d="M275.8,72.7c-4.4-6.6-14.8-14.6-33.9-12.9c-9.2,0.8-14.8,4.6-14.8,4.6c22.6-5,43.8,1.3,48.5,8.3L275.8,72.7z"
		/>
	<path class="st32" d="M285,67.3c-6.5-5.6-19.1-11.2-37-5.9c-8.6,2.5-12.8,7.3-12.8,7.3c20.2-9.2,42.8-7.2,49.7-1.4L285,67.3z"/>
	<path class="st32" d="M297.5,153.2c0,0,16.3,27.2,10.5,47.2"/>
</g>
</svg>
