<?xml version="1.0" encoding="utf-8"?>
<!-- Generator: Adobe Illustrator 22.1.0, SVG Export Plug-In . SVG Version: 6.00 Build 0)  -->
<svg version="1.1" id="WRITER" xmlns="http://www.w3.org/2000/svg" xmlns:xlink="http://www.w3.org/1999/xlink" x="0px" y="0px"
	 viewBox="0 0 422 370" style="enable-background:new 0 0 422 370;" xml:space="preserve">
<style type="text/css">
	.st0{fill:#269ABC;}
	.st1{clip-path:url(#SVGID_2_);}
	.st2{clip-path:url(#SVGID_4_);}
	.st3{fill:#10558E;}
	.st4{opacity:0.45;fill:#10558E;}
	.st5{fill:#5E3011;}
	.st6{fill:#662D91;}
	.st7{fill:#451E63;}
	.st8{fill:#FFCC99;}
	.st9{fill:#F5B471;}
	.st10{fill:#9E5219;}
	.st11{fill:#D68242;}
	.st12{fill:#773C15;}
	.st13{fill:#394099;}
	.st14{fill:#FFFFFF;}
	.st15{clip-path:url(#SVGID_2_);fill:#451E63;}
	.st16{fill:none;stroke:#43BDBC;stroke-width:10;stroke-miterlimit:10;}
	.st17{display:none;}
	.st18{display:inline;fill:#8F5000;}
	.st19{display:inline;fill:#B96800;}
	.st20{display:inline;fill:#CCCFB1;}
	.st21{display:inline;fill:#FDFFDB;}
	.st22{display:inline;fill:#E3D1B8;}
	.st23{fill:#8F5000;}
	.st24{fill:#B96800;}
	.st25{fill:#CCCFB1;}
	.st26{fill:#FDFFDB;}
	.st27{fill:#E3D1B8;}
	.st28{fill:#E3E3E3;}
	.st29{fill:#E2A77F;}
	.st30{fill:#C4875F;}
</style>
<g id="Writer_-_Marianne_copy_3">
	<circle class="st0" cx="218.3" cy="181.2" r="154.7"/>
	<g>
		<defs>
			<circle id="SVGID_1_" cx="218.3" cy="181.2" r="154.7"/>
		</defs>
		<clipPath id="SVGID_2_">
			<use xlink:href="#SVGID_1_"  style="overflow:visible;"/>
		</clipPath>
		<g id="Writer_3_" class="st1">
			<g id="Writer_4_">
				<g>
					<defs>
						<path id="SVGID_3_" d="M216.7,26.5C132,27.4,63.6,96.3,63.6,181.2S132,335.1,216.7,335.9V26.5z"/>
					</defs>
					<clipPath id="SVGID_4_">
						<use xlink:href="#SVGID_3_"  style="overflow:visible;"/>
					</clipPath>
					<g class="st2">
						<path class="st3" d="M39.1,113.3l1.2,4l1.3-4c0-0.1,0.1-0.2,0.1-0.4c0-0.1,0.1-0.2,0.1-0.3c0-0.2-0.2-0.3-0.5-0.3
							c-0.5-0.1-0.7-0.4-0.7-1c0-0.7,0.3-1,1-1c0.2,0,0.5,0,1,0.1c0.4,0,0.7,0.1,1,0.1c0.3,0,0.7,0,1-0.1c0.3,0,0.6-0.1,0.7-0.1
							c0.7,0,1.1,0.4,1.1,1.1c0,0.7-0.3,1.1-0.9,1.1c0,0-0.1,0-0.1,0c0,0-0.1,0-0.1,0c-0.1,0-0.2,0-0.2,0c-0.2,0-0.4,0.2-0.5,0.6
							c0,0.1-0.2,0.4-0.4,0.9l-1.5,4c-0.4,1-0.9,1.5-1.6,1.4l-0.8-0.1l-0.8,0.1c0,0,0,0-0.1,0c-0.6,0-1-0.4-1.2-1.1l-1.9-5.1
							c-0.1-0.4-0.2-0.6-0.3-0.7c-0.1-0.1-0.2-0.1-0.3-0.1c0,0,0,0-0.1,0c0,0-0.1,0-0.1,0c-0.1,0-0.2,0-0.3,0
							c-0.2,0-0.4-0.1-0.6-0.3c-0.2-0.2-0.2-0.4-0.2-0.7c0-0.8,0.4-1.2,1.1-1.2c0.2,0,0.5,0,0.8,0.1s0.6,0.1,0.8,0.1
							c0.3,0,0.7,0,1.3-0.1c0.4,0,0.6-0.1,0.8-0.1c0.6,0,1,0.3,1,1c0,0.6-0.2,1-0.7,1c-0.3,0-0.5,0.2-0.5,0.4
							C38.9,112.7,39,112.9,39.1,113.3z"/>
						<path class="st3" d="M55.5,114c0,0.5-0.1,0.8-0.2,1c-0.1,0.2-0.4,0.3-0.7,0.3h-4.4c-0.2,0-0.4,0-0.4,0.1s-0.1,0.1-0.1,0.3
							c0,0.5,0.2,0.9,0.5,1.3c0.3,0.3,0.7,0.5,1.2,0.5c0.5,0,1-0.3,1.5-0.8c0.4-0.4,0.8-0.6,1.2-0.6c0.4,0,0.7,0.1,0.9,0.3
							c0.2,0.2,0.3,0.5,0.3,0.8c0,0.7-0.4,1.3-1.1,1.8c-0.8,0.5-1.7,0.7-2.8,0.7c-1.4,0-2.6-0.4-3.4-1.3c-0.9-0.9-1.3-2-1.3-3.5
							c0-1.5,0.4-2.6,1.3-3.5c0.8-0.9,2-1.3,3.3-1.3c1.3,0,2.3,0.4,3.1,1.1C55.1,111.8,55.5,112.8,55.5,114z M49.7,113.1
							c0,0.1,0,0.1,0.1,0.2c0,0,0.2,0.1,0.4,0.1h2c0.2,0,0.3,0,0.3-0.1s0.1-0.1,0.1-0.2c0-0.3-0.1-0.6-0.4-0.8
							c-0.3-0.2-0.6-0.4-1-0.4c-0.5,0-0.9,0.2-1.2,0.6C49.8,112.7,49.7,112.9,49.7,113.1z"/>
						<path class="st3" d="M60.3,110.8v0.9c0.9-1.1,2-1.6,3.1-1.6c1.2,0,2.1,0.5,2.6,1.4c0.3,0.5,0.4,1.2,0.4,2.3v2.7
							c0,0.6,0.1,0.9,0.4,0.9c0.1,0,0.1,0,0.3-0.1c0.1,0,0.2,0,0.3,0c0.5,0,0.8,0.3,0.8,0.9c0,0.8-0.4,1.2-1.1,1.2
							c-0.2,0-0.5,0-0.9-0.1s-0.7-0.1-0.9-0.1c-0.3,0-0.6,0-1,0.1s-0.6,0.1-0.8,0.1c-0.7,0-1.1-0.4-1.1-1.1c0-0.6,0.2-1,0.7-1
							c0.3,0,0.5-0.2,0.5-0.5v-2.5c0-0.7-0.1-1.2-0.3-1.5c-0.2-0.3-0.5-0.4-0.9-0.4c-0.5,0-0.9,0.2-1.2,0.5
							c-0.3,0.3-0.5,0.8-0.5,1.3v1.9c0,0.5,0,0.9,0.1,1c0,0.1,0.2,0.2,0.4,0.2c0.4,0.1,0.6,0.4,0.6,1c0,0.8-0.3,1.1-1,1.1
							c-0.2,0-0.4,0-0.7-0.1c-0.4-0.1-0.8-0.1-1-0.1s-0.5,0-1,0.1c-0.4,0-0.7,0.1-1,0.1c-0.8,0-1.1-0.4-1.1-1.2c0-0.7,0.3-1,0.9-1
							c0.1,0,0.2,0,0.3,0.1s0.2,0.1,0.3,0.1c0.2,0,0.3-0.3,0.3-1v-2.9c0-0.7-0.1-1-0.3-1c0,0-0.1,0-0.3,0.1c-0.1,0-0.2,0.1-0.3,0.1
							c-0.6,0-0.9-0.3-0.9-1c0-0.4,0.1-0.7,0.3-0.9c0.2-0.2,0.5-0.3,0.8-0.3c0.1,0,0.3,0,0.6,0.1c0.2,0,0.3,0.1,0.5,0.1
							c0.1,0,0.4,0,0.7-0.1c0.3,0,0.5-0.1,0.6-0.1C60.1,110.3,60.3,110.4,60.3,110.8z"/>
						<path class="st3" d="M72.5,110.3c0.3,0,0.5,0.2,0.5,0.7v5.4c0,0.6,0.1,0.9,0.3,0.9c0,0,0.1,0,0.3,0c0.1,0,0.2,0,0.3,0
							c0.5,0,0.8,0.3,0.8,0.9c0,0.8-0.4,1.2-1.1,1.2c-0.1,0-0.5,0-1-0.1c-0.3,0-0.7-0.1-1.2-0.1c-0.2,0-0.5,0-1,0.1
							s-0.7,0.1-0.9,0.1c-0.3,0-0.6-0.1-0.8-0.3c-0.2-0.2-0.3-0.5-0.3-0.9c0-0.7,0.3-1,0.9-1l0.5,0.1c0,0,0.1,0,0.1,0
							c0.2,0,0.3-0.3,0.3-1v-2.9c0-0.7-0.1-1-0.3-1c0,0-0.1,0-0.3,0.1c-0.1,0-0.2,0-0.3,0c-0.6,0-0.9-0.3-0.9-1
							c0-0.4,0.1-0.7,0.3-0.9c0.2-0.2,0.5-0.3,0.8-0.3c0.1,0,0.3,0,0.6,0.1c0.4,0.1,0.8,0.1,1,0.1c0.2,0,0.5,0,0.8-0.1
							S72.5,110.3,72.5,110.3z M71.5,109.6c-0.4,0-0.8-0.2-1.2-0.5c-0.3-0.3-0.5-0.7-0.5-1.2c0-0.5,0.2-0.8,0.5-1.2
							c0.3-0.3,0.7-0.5,1.2-0.5s0.8,0.2,1.2,0.5c0.3,0.3,0.5,0.7,0.5,1.2s-0.2,0.8-0.5,1.2C72.3,109.4,71.9,109.6,71.5,109.6z"/>
						<path class="st3" d="M83.3,119.6c-1,0-1.6-0.4-2-1.2c-0.8,0.8-1.8,1.2-3,1.2c-0.9,0-1.7-0.2-2.3-0.7c-0.6-0.5-0.8-1.2-0.8-2
							c0-1.3,0.5-2.1,1.6-2.4c0.5-0.2,1-0.3,1.6-0.4c0.9-0.1,1.4-0.3,1.7-0.5c0.3-0.2,0.5-0.5,0.5-0.9c0-0.3-0.1-0.5-0.4-0.7
							c-0.2-0.2-0.5-0.3-0.9-0.3c-0.4,0-0.6,0.1-0.6,0.4c0,0.1,0,0.2,0,0.3v0.1c0,0.3-0.1,0.6-0.4,0.8c-0.3,0.2-0.6,0.3-1.1,0.3
							c-0.5,0-0.9-0.1-1.2-0.4c-0.3-0.3-0.5-0.6-0.5-1.1c0-0.6,0.3-1.2,1-1.5c0.7-0.4,1.6-0.6,2.8-0.6c1.3,0,2.3,0.2,2.9,0.6
							c0.7,0.4,1,1.2,1,2.4v3.7c0,0.4,0.1,0.6,0.3,0.6c0.1,0,0.2,0,0.3,0c0,0,0.1,0,0.1,0c0.3,0,0.5,0.1,0.7,0.3
							c0.2,0.2,0.3,0.4,0.3,0.7c0,0.4-0.2,0.7-0.5,1C84.3,119.5,83.8,119.6,83.3,119.6z M80.7,115.8v-0.4c-0.1,0-0.6,0.2-1.6,0.5
							c-0.7,0.2-1,0.4-1,0.8c0,0.6,0.3,0.8,1,0.8C80.2,117.4,80.7,116.9,80.7,115.8z"/>
						<path class="st3" d="M89.4,110.8v0.8c0.9-1.1,1.9-1.6,3-1.6c0.9,0,1.7,0.5,2.3,1.4c0.6-0.5,1.1-0.9,1.5-1.1
							c0.4-0.2,0.9-0.3,1.5-0.3c1.1,0,2,0.4,2.6,1.1c0.4,0.5,0.6,1.3,0.6,2.5v2.8c0,0.6,0.1,0.9,0.3,0.9c0.1,0,0.2,0,0.3-0.1
							c0.1,0,0.2,0,0.3,0c0.5,0,0.8,0.3,0.8,0.9c0,0.4-0.1,0.7-0.3,0.9c-0.2,0.2-0.4,0.3-0.8,0.3c0,0-0.2,0-0.5-0.1l-0.4-0.1
							c-0.2,0-0.4,0-0.8,0c-0.4,0-0.8,0-1.1,0.1s-0.6,0.1-0.8,0.1c-0.3,0-0.5-0.1-0.7-0.3c-0.2-0.2-0.3-0.5-0.3-0.8
							c0-0.6,0.2-0.9,0.7-1c0.2,0,0.4-0.1,0.4-0.2c0-0.1,0.1-0.4,0.1-0.8v-1.9c0-0.8-0.1-1.3-0.2-1.6c-0.2-0.3-0.5-0.4-0.9-0.4
							c-1,0-1.5,0.7-1.5,2.2v1.7c0,0.4,0,0.7,0.1,0.8c0,0.1,0.1,0.2,0.3,0.2c0.4,0.1,0.6,0.4,0.6,0.9c0,0.8-0.3,1.2-1,1.2
							c-0.1,0-0.3,0-0.6-0.1c-0.4-0.1-0.7-0.1-0.8-0.1c-0.1,0-0.4,0-0.6,0.1s-0.5,0.1-0.6,0.1c-0.6,0-0.9-0.4-0.9-1.1
							c0-0.5,0.2-0.9,0.6-1c0.2,0,0.3-0.2,0.3-0.4c0-0.3,0-0.5,0-0.6v-2c0-0.7-0.1-1.2-0.2-1.4s-0.5-0.4-0.9-0.4
							c-1.1,0-1.6,0.7-1.6,2.2v2.2c0,0.2,0,0.3,0.1,0.4c0,0.1,0.2,0.1,0.4,0.1c0.5,0.1,0.7,0.4,0.7,0.9c0,0.8-0.3,1.2-1,1.2
							c-0.2,0-0.5,0-0.9-0.1s-0.7-0.1-0.9-0.1c-0.3,0-0.6,0-0.8,0.1c-0.5,0.1-0.8,0.1-0.9,0.1c-0.3,0-0.6-0.1-0.8-0.3
							c-0.2-0.2-0.3-0.5-0.3-0.9c0-0.7,0.3-1,0.9-1c0.1,0,0.2,0,0.3,0.1s0.2,0.1,0.3,0.1c0.2,0,0.3-0.3,0.3-1v-2.9
							c0-0.7-0.1-1-0.3-1c0,0-0.1,0-0.3,0.1c-0.1,0-0.2,0.1-0.3,0.1c-0.6,0-0.9-0.3-0.9-1c0-0.3,0.1-0.6,0.3-0.9
							c0.2-0.2,0.5-0.3,0.8-0.3c0.1,0,0.3,0,0.6,0.1c0.2,0,0.4,0.1,0.5,0.1c0.1,0,0.4,0,0.6-0.1s0.5-0.1,0.6-0.1
							C89.3,110.3,89.4,110.4,89.4,110.8z"/>
						<path class="st3" d="M105.5,119.6c-0.5,0-0.9-0.2-1.3-0.5c-0.4-0.4-0.5-0.8-0.5-1.3s0.2-0.9,0.5-1.3c0.4-0.4,0.8-0.5,1.3-0.5
							s0.9,0.2,1.3,0.5c0.4,0.4,0.5,0.8,0.5,1.3s-0.2,0.9-0.5,1.3C106.5,119.4,106,119.6,105.5,119.6z"/>
						<path class="st3" d="M119.4,109.6c-0.4,0-0.6,0.3-0.6,1v5.1c0,0.5,0,0.8,0.1,0.9c0.1,0.3,0.3,0.5,0.6,0.5c0.1,0,0.2,0,0.3,0
							c0.1,0,0.2,0,0.4,0h0.9c1,0,1.5-0.3,1.5-0.9c0-0.2,0-0.4-0.1-0.6c-0.1-0.3-0.1-0.5-0.1-0.7c0-0.4,0.1-0.7,0.4-1
							s0.6-0.4,1.1-0.4c1,0,1.4,0.5,1.4,1.4c0,0.1,0,0.2,0,0.4c0,0.2,0,0.3-0.1,0.5c0,0.2,0,0.4-0.1,0.5c0,0.2,0,0.3,0,0.4
							c0,0.1,0,0.2,0,0.4c0,0.1,0,0.2,0,0.4c0,0.2,0,0.4,0.1,0.6c0,0.1,0,0.2,0,0.2c0,0.7-0.4,1-1.2,1c-0.2,0-0.5,0-0.7,0
							c-0.3,0-0.6,0-1-0.1c-1.2-0.1-2.8-0.1-5-0.1c-0.3,0-0.6,0-0.9,0c-0.3,0-0.5,0-0.7,0.1c-0.2,0-0.4,0.1-0.6,0.1
							c-0.2,0-0.4,0-0.5,0c-0.4,0-0.7-0.1-0.9-0.4c-0.2-0.3-0.4-0.6-0.4-1c0-0.3,0.1-0.6,0.3-0.9c0.2-0.2,0.4-0.3,0.7-0.3
							c0.1,0,0.2,0,0.4,0.1c0.2,0,0.3,0.1,0.4,0.1c0.3,0,0.5-0.4,0.5-1.2v-5c0-0.8-0.2-1.2-0.5-1.2c-0.1,0-0.2,0-0.4,0.1
							c-0.2,0-0.3,0.1-0.4,0.1c-0.3,0-0.5-0.1-0.7-0.3c-0.2-0.2-0.3-0.5-0.3-0.8c0-0.9,0.4-1.3,1.3-1.3c0.2,0,0.7,0,1.5,0.1
							c0.3,0,0.6,0,0.8,0.1c0.3,0,0.5,0,0.7,0c0.2,0,0.4,0,0.6,0c0.2,0,0.4,0,0.6-0.1c0.6-0.1,1-0.1,1.2-0.1c0.4,0,0.7,0.1,0.9,0.4
							c0.2,0.2,0.4,0.5,0.4,0.9c0,0.3-0.1,0.6-0.3,0.9c-0.2,0.2-0.4,0.3-0.7,0.3c-0.1,0-0.3,0-0.6-0.1
							C119.7,109.6,119.5,109.6,119.4,109.6z"/>
						<path class="st3" d="M130.6,119.6c-1.5,0-2.6-0.4-3.4-1.3c-0.8-0.8-1.2-2-1.2-3.5c0-1.5,0.4-2.7,1.2-3.5
							c0.8-0.8,1.9-1.3,3.4-1.3c1.4,0,2.6,0.4,3.4,1.3c0.8,0.8,1.2,2,1.2,3.5c0,1.5-0.4,2.7-1.2,3.6
							C133.1,119.2,132,119.6,130.6,119.6z M130.5,112.2c-0.5,0-0.9,0.2-1.3,0.7c-0.3,0.5-0.5,1.1-0.5,1.9c0,0.8,0.2,1.5,0.5,1.9
							c0.3,0.5,0.7,0.7,1.3,0.7c1.1,0,1.7-0.9,1.7-2.6C132.2,113.1,131.6,112.2,130.5,112.2z"/>
						<path class="st3" d="M139.8,110.8v1.5c0.2-0.6,0.4-1.1,0.6-1.4c0.5-0.7,1.3-1,2.2-1c0.7,0,1.2,0.2,1.7,0.6
							c0.5,0.4,0.7,1,0.7,1.6c0,0.5-0.1,0.9-0.4,1.2c-0.3,0.3-0.7,0.5-1.1,0.5c-0.3,0-0.6-0.1-0.9-0.3c-0.2-0.2-0.4-0.5-0.4-0.8
							c0-0.2,0.1-0.4,0.2-0.7h-0.1c-0.8,0-1.3,0.4-1.6,1.3c-0.2,0.7-0.3,1.5-0.3,2.4v0.7c0,0.4,0,0.7,0.1,0.8c0,0.1,0.1,0.1,0.3,0.1
							c0.1,0,0.3,0,0.5-0.1c0.2,0,0.3-0.1,0.4-0.1c0.3,0,0.5,0.1,0.7,0.3c0.2,0.2,0.3,0.4,0.3,0.7c0,0.3-0.1,0.6-0.4,0.9
							c-0.2,0.2-0.5,0.4-0.9,0.4c-0.2,0-0.5,0-1-0.1c-0.3,0-0.7-0.1-1.1-0.1s-0.9,0-1.2,0.1c-0.6,0.1-0.9,0.1-1.1,0.1
							c-0.7,0-1.1-0.4-1.1-1.2c0-0.7,0.3-1,0.9-1c0.1,0,0.2,0,0.3,0.1s0.2,0.1,0.3,0.1c0.2,0,0.3-0.3,0.3-1v-2.9c0-0.7-0.1-1-0.3-1
							c0,0-0.1,0-0.3,0.1c-0.1,0-0.2,0.1-0.3,0.1c-0.6,0-0.9-0.3-0.9-1c0-0.4,0.1-0.7,0.3-0.9c0.2-0.2,0.4-0.3,0.7-0.3
							c0.1,0,0.3,0,0.5,0.1s0.4,0.1,0.6,0.1c0.1,0,0.4,0,0.6-0.1s0.5-0.1,0.6-0.1C139.6,110.3,139.8,110.4,139.8,110.8z"/>
						<path class="st3" d="M154,114c0,0.5-0.1,0.8-0.2,1c-0.1,0.2-0.4,0.3-0.7,0.3h-4.4c-0.2,0-0.4,0-0.4,0.1s-0.1,0.1-0.1,0.3
							c0,0.5,0.2,0.9,0.5,1.3c0.3,0.3,0.7,0.5,1.2,0.5c0.5,0,1-0.3,1.5-0.8c0.4-0.4,0.8-0.6,1.2-0.6c0.4,0,0.7,0.1,0.9,0.3
							c0.2,0.2,0.3,0.5,0.3,0.8c0,0.7-0.4,1.3-1.1,1.8c-0.8,0.5-1.7,0.7-2.8,0.7c-1.4,0-2.6-0.4-3.4-1.3c-0.9-0.9-1.3-2-1.3-3.5
							c0-1.5,0.4-2.6,1.3-3.5c0.8-0.9,2-1.3,3.3-1.3c1.3,0,2.3,0.4,3.1,1.1C153.7,111.8,154,112.8,154,114z M148.3,113.1
							c0,0.1,0,0.1,0.1,0.2c0,0,0.2,0.1,0.4,0.1h2c0.2,0,0.3,0,0.3-0.1s0.1-0.1,0.1-0.2c0-0.3-0.1-0.6-0.4-0.8
							c-0.3-0.2-0.6-0.4-1-0.4c-0.5,0-0.9,0.2-1.2,0.6C148.4,112.7,148.3,112.9,148.3,113.1z"/>
						<path class="st3" d="M158.8,110.8v0.8c0.9-1.1,1.9-1.6,3-1.6c0.9,0,1.7,0.5,2.3,1.4c0.6-0.5,1.1-0.9,1.5-1.1
							c0.4-0.2,0.9-0.3,1.5-0.3c1.1,0,2,0.4,2.6,1.1c0.4,0.5,0.6,1.3,0.6,2.5v2.8c0,0.6,0.1,0.9,0.3,0.9c0.1,0,0.2,0,0.3-0.1
							c0.1,0,0.2,0,0.3,0c0.5,0,0.8,0.3,0.8,0.9c0,0.4-0.1,0.7-0.3,0.9c-0.2,0.2-0.4,0.3-0.8,0.3c0,0-0.2,0-0.5-0.1l-0.4-0.1
							c-0.2,0-0.4,0-0.8,0c-0.4,0-0.8,0-1.1,0.1s-0.6,0.1-0.8,0.1c-0.3,0-0.5-0.1-0.7-0.3c-0.2-0.2-0.3-0.5-0.3-0.8
							c0-0.6,0.2-0.9,0.7-1c0.2,0,0.4-0.1,0.4-0.2c0-0.1,0.1-0.4,0.1-0.8v-1.9c0-0.8-0.1-1.3-0.2-1.6c-0.2-0.3-0.5-0.4-0.9-0.4
							c-1,0-1.5,0.7-1.5,2.2v1.7c0,0.4,0,0.7,0.1,0.8c0,0.1,0.1,0.2,0.3,0.2c0.4,0.1,0.6,0.4,0.6,0.9c0,0.8-0.3,1.2-1,1.2
							c-0.1,0-0.3,0-0.6-0.1c-0.4-0.1-0.7-0.1-0.8-0.1c-0.1,0-0.4,0-0.6,0.1s-0.5,0.1-0.6,0.1c-0.6,0-0.9-0.4-0.9-1.1
							c0-0.5,0.2-0.9,0.6-1c0.2,0,0.3-0.2,0.3-0.4c0-0.3,0-0.5,0-0.6v-2c0-0.7-0.1-1.2-0.2-1.4s-0.5-0.4-0.9-0.4
							c-1.1,0-1.6,0.7-1.6,2.2v2.2c0,0.2,0,0.3,0.1,0.4c0,0.1,0.2,0.1,0.4,0.1c0.5,0.1,0.7,0.4,0.7,0.9c0,0.8-0.3,1.2-1,1.2
							c-0.2,0-0.5,0-0.9-0.1s-0.7-0.1-0.9-0.1c-0.3,0-0.6,0-0.8,0.1c-0.5,0.1-0.8,0.1-0.9,0.1c-0.3,0-0.6-0.1-0.8-0.3
							c-0.2-0.2-0.3-0.5-0.3-0.9c0-0.7,0.3-1,0.9-1c0.1,0,0.2,0,0.3,0.1s0.2,0.1,0.3,0.1c0.2,0,0.3-0.3,0.3-1v-2.9
							c0-0.7-0.1-1-0.3-1c0,0-0.1,0-0.3,0.1c-0.1,0-0.2,0.1-0.3,0.1c-0.6,0-0.9-0.3-0.9-1c0-0.3,0.1-0.6,0.3-0.9
							c0.2-0.2,0.5-0.3,0.8-0.3c0.1,0,0.3,0,0.6,0.1c0.2,0,0.4,0.1,0.5,0.1c0.1,0,0.4,0,0.6-0.1s0.5-0.1,0.6-0.1
							C158.7,110.3,158.8,110.4,158.8,110.8z"/>
						<path class="st3" d="M180.8,110.3c0.3,0,0.5,0.2,0.5,0.7v5.4c0,0.6,0.1,0.9,0.3,0.9c0,0,0.1,0,0.3,0c0.1,0,0.2,0,0.3,0
							c0.5,0,0.8,0.3,0.8,0.9c0,0.8-0.4,1.2-1.1,1.2c-0.1,0-0.5,0-1-0.1c-0.3,0-0.7-0.1-1.2-0.1c-0.2,0-0.5,0-1,0.1
							s-0.7,0.1-0.9,0.1c-0.3,0-0.6-0.1-0.8-0.3c-0.2-0.2-0.3-0.5-0.3-0.9c0-0.7,0.3-1,0.9-1l0.5,0.1c0,0,0.1,0,0.1,0
							c0.2,0,0.3-0.3,0.3-1v-2.9c0-0.7-0.1-1-0.3-1c0,0-0.1,0-0.3,0.1c-0.1,0-0.2,0-0.3,0c-0.6,0-0.9-0.3-0.9-1
							c0-0.4,0.1-0.7,0.3-0.9c0.2-0.2,0.5-0.3,0.8-0.3c0.1,0,0.3,0,0.6,0.1c0.4,0.1,0.8,0.1,1,0.1c0.2,0,0.5,0,0.8-0.1
							S180.8,110.3,180.8,110.3z M179.8,109.6c-0.4,0-0.8-0.2-1.2-0.5c-0.3-0.3-0.5-0.7-0.5-1.2c0-0.5,0.2-0.8,0.5-1.2
							c0.3-0.3,0.7-0.5,1.2-0.5s0.8,0.2,1.2,0.5c0.3,0.3,0.5,0.7,0.5,1.2s-0.2,0.8-0.5,1.2C180.6,109.4,180.2,109.6,179.8,109.6z"/>
						<path class="st3" d="M187,110.9v0.5c0.7-1,1.7-1.4,2.8-1.4c1.1,0,2,0.4,2.6,1.3c0.6,0.8,1,2,1,3.4c0,1.5-0.3,2.6-1,3.5
							s-1.5,1.3-2.7,1.3c-0.4,0-0.8-0.1-1.2-0.3c-0.2-0.1-0.6-0.3-1-0.7v1.4c0,0.4,0.1,0.6,0.4,0.6c0.1,0,0.3,0,0.4-0.1
							c0.2,0,0.4,0,0.5,0c0.6,0,0.8,0.3,0.8,0.9c0,0.7-0.4,1.1-1.1,1.1c-0.2,0-0.5,0-1-0.1c-0.6-0.1-1.1-0.1-1.6-0.1
							c-0.2,0-0.7,0-1.5,0.1c-0.1,0-0.3,0-0.3,0c-0.3,0-0.6-0.1-0.8-0.3c-0.2-0.2-0.3-0.5-0.3-0.9c0-0.7,0.3-1,0.9-1
							c0.1,0,0.2,0,0.3,0.1c0.2,0,0.3,0.1,0.3,0.1c0.2,0,0.3-0.3,0.3-1v-6c0-0.7-0.1-1-0.3-1c0,0-0.1,0-0.3,0.1c-0.1,0-0.2,0-0.3,0
							c-0.6,0-0.9-0.3-0.9-1c0-0.3,0.1-0.6,0.3-0.9c0.2-0.2,0.4-0.3,0.7-0.3h0.1l0.6,0.1c0.1,0,0.3,0,0.5,0c0.3,0,0.7,0,1-0.1
							c0.2,0,0.3,0,0.3,0C186.8,110.3,187,110.5,187,110.9z M189,112.3c-0.5,0-0.8,0.2-1.1,0.6c-0.3,0.4-0.4,1-0.4,1.8
							c0,0.8,0.1,1.4,0.4,1.8c0.3,0.4,0.6,0.7,1.1,0.7c0.5,0,0.8-0.2,1.1-0.7c0.3-0.4,0.4-1,0.4-1.8c0-0.7-0.1-1.3-0.4-1.8
							C189.8,112.5,189.4,112.3,189,112.3z"/>
						<path class="st3" d="M197.9,110c0.9,0,1.7,0.3,2.3,0.8c0-0.5,0.4-0.8,1-0.8c0.6,0,0.9,0.2,0.9,0.6c0,0.1,0,0.3-0.1,0.5
							c0,0.2-0.1,0.4-0.1,0.6c0,0,0,0.1,0,0.3c0,0.2,0,0.3,0,0.4v0.1c0,0.6-0.3,1-1,1c-0.5,0-0.9-0.2-1.2-0.7
							c-0.4-0.6-0.9-0.8-1.5-0.8c-0.7,0-1,0.2-1,0.7c0,0.3,0.1,0.4,0.3,0.5c0.2,0.1,0.8,0.2,1.8,0.4c0.8,0.1,1.4,0.3,1.8,0.5
							c0.4,0.2,0.7,0.4,0.9,0.8c0.3,0.4,0.5,0.9,0.5,1.5c0,0.9-0.4,1.7-1.1,2.3c-0.7,0.6-1.6,0.9-2.6,0.9s-2-0.3-2.9-1
							c0,0.6-0.3,0.9-0.9,0.9c-0.6,0-1-0.3-1-0.8c0-0.1,0-0.3,0-0.6s0-0.4,0-0.6c0-0.1,0-0.3,0-0.5c0-0.2,0-0.4,0-0.5
							c0-0.5,0.3-0.8,1-0.8c0.3,0,0.6,0,0.7,0.1c0.2,0.1,0.3,0.3,0.5,0.6c0.3,0.4,0.6,0.7,0.8,0.9c0.3,0.1,0.6,0.2,1.1,0.2
							c0.9,0,1.3-0.3,1.3-0.8c0-0.4-0.3-0.6-1-0.8l-1-0.2c-0.9-0.2-1.5-0.4-1.8-0.5c-0.4-0.2-0.6-0.5-0.8-0.9
							c-0.2-0.4-0.3-0.8-0.3-1.3c0-0.9,0.3-1.6,0.9-2.2C196.2,110.3,196.9,110,197.9,110z"/>
						<path class="st3" d="M210.5,118.8v-0.7c-0.8,1-1.8,1.5-3.2,1.5c-0.6,0-1.1-0.1-1.5-0.4c-0.5-0.2-0.8-0.6-1-1
							c-0.2-0.4-0.3-1.1-0.3-2.2v-2.8c0-0.4,0-0.7-0.1-0.7c-0.1-0.1-0.1-0.1-0.3-0.1H204c0,0-0.1,0-0.2,0c-0.5,0-0.8-0.3-0.8-1
							c0-0.8,0.4-1.2,1.1-1.2c0.1,0,0.4,0,0.7,0.1s0.5,0.1,0.7,0.1c0.1,0,0.4,0,0.6-0.1s0.5-0.1,0.6-0.1c0.4,0,0.5,0.3,0.5,0.8
							l0,4.8c0,0.9,0.4,1.4,1.1,1.4c1.1,0,1.6-0.8,1.6-2.2v-1.7c0-0.6-0.1-0.9-0.4-0.9c-0.1,0-0.2,0-0.3,0c-0.1,0-0.2,0-0.3,0
							c-0.4,0-0.7-0.3-0.7-1c0-0.8,0.3-1.2,1-1.2c0.2,0,0.4,0,0.7,0.1c0.3,0,0.6,0.1,0.7,0.1c0,0,0.3,0,0.8-0.1
							c0.3,0,0.5-0.1,0.6-0.1c0.4,0,0.6,0.2,0.6,0.6v5.5c0,0.6,0.1,0.9,0.3,0.9c0.1,0,0.2,0,0.3,0c0.1,0,0.2,0,0.3,0
							c0.5,0,0.8,0.3,0.8,0.9c0,0.8-0.4,1.2-1.1,1.2c-0.1,0-0.4,0-0.6-0.1c-0.3,0-0.5-0.1-0.6-0.1c-0.1,0-0.3,0-0.6,0.1
							c-0.3,0-0.5,0.1-0.6,0.1C210.6,119.4,210.5,119.2,210.5,118.8z"/>
						<path class="st3" d="M218.7,110.8v0.8c0.9-1.1,1.9-1.6,3-1.6c0.9,0,1.7,0.5,2.3,1.4c0.6-0.5,1.1-0.9,1.5-1.1
							c0.4-0.2,0.9-0.3,1.5-0.3c1.1,0,2,0.4,2.6,1.1c0.4,0.5,0.6,1.3,0.6,2.5v2.8c0,0.6,0.1,0.9,0.3,0.9c0.1,0,0.2,0,0.3-0.1
							c0.1,0,0.2,0,0.3,0c0.5,0,0.8,0.3,0.8,0.9c0,0.4-0.1,0.7-0.3,0.9c-0.2,0.2-0.4,0.3-0.8,0.3c0,0-0.2,0-0.5-0.1l-0.4-0.1
							c-0.2,0-0.4,0-0.8,0c-0.4,0-0.8,0-1.1,0.1s-0.6,0.1-0.8,0.1c-0.3,0-0.5-0.1-0.7-0.3c-0.2-0.2-0.3-0.5-0.3-0.8
							c0-0.6,0.2-0.9,0.7-1c0.2,0,0.4-0.1,0.4-0.2c0-0.1,0.1-0.4,0.1-0.8v-1.9c0-0.8-0.1-1.3-0.2-1.6c-0.2-0.3-0.5-0.4-0.9-0.4
							c-1,0-1.5,0.7-1.5,2.2v1.7c0,0.4,0,0.7,0.1,0.8c0,0.1,0.1,0.2,0.3,0.2c0.4,0.1,0.6,0.4,0.6,0.9c0,0.8-0.3,1.2-1,1.2
							c-0.1,0-0.3,0-0.6-0.1c-0.4-0.1-0.7-0.1-0.8-0.1c-0.1,0-0.4,0-0.6,0.1s-0.5,0.1-0.6,0.1c-0.6,0-0.9-0.4-0.9-1.1
							c0-0.5,0.2-0.9,0.6-1c0.2,0,0.3-0.2,0.3-0.4c0-0.3,0-0.5,0-0.6v-2c0-0.7-0.1-1.2-0.2-1.4s-0.5-0.4-0.9-0.4
							c-1.1,0-1.6,0.7-1.6,2.2v2.2c0,0.2,0,0.3,0.1,0.4c0,0.1,0.2,0.1,0.4,0.1c0.5,0.1,0.7,0.4,0.7,0.9c0,0.8-0.3,1.2-1,1.2
							c-0.2,0-0.5,0-0.9-0.1s-0.7-0.1-0.9-0.1c-0.3,0-0.6,0-0.8,0.1c-0.5,0.1-0.8,0.1-0.9,0.1c-0.3,0-0.6-0.1-0.8-0.3
							c-0.2-0.2-0.3-0.5-0.3-0.9c0-0.7,0.3-1,0.9-1c0.1,0,0.2,0,0.3,0.1s0.2,0.1,0.3,0.1c0.2,0,0.3-0.3,0.3-1v-2.9
							c0-0.7-0.1-1-0.3-1c0,0-0.1,0-0.3,0.1c-0.1,0-0.2,0.1-0.3,0.1c-0.6,0-0.9-0.3-0.9-1c0-0.3,0.1-0.6,0.3-0.9
							c0.2-0.2,0.5-0.3,0.8-0.3c0.1,0,0.3,0,0.6,0.1c0.2,0,0.4,0.1,0.5,0.1c0.1,0,0.4,0,0.6-0.1s0.5-0.1,0.6-0.1
							C218.6,110.3,218.7,110.4,218.7,110.8z"/>
						<path class="st3" d="M38.7,137.7v0.7l0,1.1l0,1.2c0,0.4,0,0.6,0,0.5c0,0.7,0.2,1.1,0.7,1.1c0.4,0,0.6-0.3,0.6-1
							c0-0.1,0-0.2,0-0.2c0-0.1,0-0.1,0-0.2c0-0.1,0-0.1,0-0.2c0-0.6,0.3-1,1-1c0.8,0,1.1,0.6,1.1,1.8c0,0.9-0.3,1.7-0.8,2.2
							c-0.6,0.5-1.3,0.8-2.4,0.8c-2,0-3-1-3-3.1c0-0.3,0-0.8,0-1.5c0-0.7,0-1.2,0-1.5v-0.6c0-0.3,0-0.5-0.1-0.6
							c-0.1-0.1-0.2-0.1-0.4-0.1h-0.3c-0.2,0-0.4-0.1-0.6-0.3c-0.1-0.2-0.2-0.4-0.2-0.7c0-0.3,0.1-0.5,0.2-0.7
							c0.2-0.2,0.3-0.3,0.5-0.3h0.3c0.3,0,0.5-0.1,0.5-0.3c0-0.1,0.1-0.3,0.1-0.5v-0.9c0-0.4,0.1-0.7,0.3-0.9
							c0.2-0.2,0.6-0.2,1.2-0.2c0.4,0,0.7,0.1,0.9,0.2s0.2,0.4,0.2,0.8v1c0,0.3,0,0.6,0.1,0.6c0.1,0.1,0.2,0.1,0.5,0.1h1.3
							c0.7,0,1.1,0.3,1.1,1c0,0.6-0.3,1-1,1h-1.5c-0.3,0-0.4,0-0.5,0.1S38.7,137.5,38.7,137.7z"/>
						<path class="st3" d="M51.5,139c0,0.5-0.1,0.8-0.2,1c-0.1,0.2-0.4,0.3-0.7,0.3h-4.4c-0.2,0-0.4,0-0.4,0.1s-0.1,0.1-0.1,0.3
							c0,0.5,0.2,0.9,0.5,1.3c0.3,0.3,0.7,0.5,1.2,0.5c0.5,0,1-0.3,1.5-0.8c0.4-0.4,0.8-0.6,1.2-0.6c0.4,0,0.7,0.1,0.9,0.3
							c0.2,0.2,0.3,0.5,0.3,0.8c0,0.7-0.4,1.3-1.1,1.8c-0.8,0.5-1.7,0.7-2.8,0.7c-1.4,0-2.6-0.4-3.4-1.3c-0.9-0.9-1.3-2-1.3-3.5
							c0-1.5,0.4-2.6,1.3-3.5c0.8-0.9,2-1.3,3.3-1.3c1.3,0,2.3,0.4,3.1,1.1C51.2,136.8,51.5,137.8,51.5,139z M45.8,138.1
							c0,0.1,0,0.1,0.1,0.2c0,0,0.2,0.1,0.4,0.1h2c0.2,0,0.3,0,0.3-0.1s0.1-0.1,0.1-0.2c0-0.3-0.1-0.6-0.4-0.8
							c-0.3-0.2-0.6-0.4-1-0.4c-0.5,0-0.9,0.2-1.2,0.6C45.9,137.7,45.8,137.9,45.8,138.1z"/>
						<path class="st3" d="M56.4,137.7v0.7l0,1.1l0,1.2c0,0.4,0,0.6,0,0.5c0,0.7,0.2,1.1,0.7,1.1c0.4,0,0.6-0.3,0.6-1
							c0-0.1,0-0.2,0-0.2c0-0.1,0-0.1,0-0.2c0-0.1,0-0.1,0-0.2c0-0.6,0.3-1,1-1c0.8,0,1.1,0.6,1.1,1.8c0,0.9-0.3,1.7-0.8,2.2
							c-0.6,0.5-1.3,0.8-2.4,0.8c-2,0-3-1-3-3.1c0-0.3,0-0.8,0-1.5c0-0.7,0-1.2,0-1.5v-0.6c0-0.3,0-0.5-0.1-0.6
							c-0.1-0.1-0.2-0.1-0.4-0.1h-0.3c-0.2,0-0.4-0.1-0.6-0.3c-0.1-0.2-0.2-0.4-0.2-0.7c0-0.3,0.1-0.5,0.2-0.7
							c0.2-0.2,0.3-0.3,0.5-0.3h0.3c0.3,0,0.5-0.1,0.5-0.3c0-0.1,0.1-0.3,0.1-0.5v-0.9c0-0.4,0.1-0.7,0.3-0.9
							c0.2-0.2,0.6-0.2,1.2-0.2c0.4,0,0.7,0.1,0.9,0.2s0.2,0.4,0.2,0.8v1c0,0.3,0,0.6,0.1,0.6c0.1,0.1,0.2,0.1,0.5,0.1h1.3
							c0.7,0,1.1,0.3,1.1,1c0,0.6-0.3,1-1,1h-1.5c-0.3,0-0.4,0-0.5,0.1S56.4,137.5,56.4,137.7z"/>
						<path class="st3" d="M67.4,143.8v-0.7c-0.8,1-1.8,1.5-3.2,1.5c-0.6,0-1.1-0.1-1.5-0.4c-0.5-0.2-0.8-0.6-1-1
							c-0.2-0.4-0.3-1.1-0.3-2.2v-2.8c0-0.4,0-0.7-0.1-0.7c-0.1-0.1-0.1-0.1-0.3-0.1H61c0,0-0.1,0-0.2,0c-0.5,0-0.8-0.3-0.8-1
							c0-0.8,0.4-1.2,1.1-1.2c0.1,0,0.4,0,0.7,0.1s0.5,0.1,0.7,0.1c0.1,0,0.4,0,0.6-0.1s0.5-0.1,0.6-0.1c0.4,0,0.5,0.3,0.5,0.8
							l0,4.8c0,0.9,0.4,1.4,1.1,1.4c1.1,0,1.6-0.8,1.6-2.2v-1.7c0-0.6-0.1-0.9-0.4-0.9c-0.1,0-0.2,0-0.3,0c-0.1,0-0.2,0-0.3,0
							c-0.4,0-0.7-0.3-0.7-1c0-0.8,0.3-1.2,1-1.2c0.2,0,0.4,0,0.7,0.1c0.3,0,0.6,0.1,0.7,0.1c0,0,0.3,0,0.8-0.1
							c0.3,0,0.5-0.1,0.6-0.1c0.4,0,0.6,0.2,0.6,0.6v5.5c0,0.6,0.1,0.9,0.3,0.9c0.1,0,0.2,0,0.3,0c0.1,0,0.2,0,0.3,0
							c0.5,0,0.8,0.3,0.8,0.9c0,0.8-0.4,1.2-1.1,1.2c-0.1,0-0.4,0-0.6-0.1c-0.3,0-0.5-0.1-0.6-0.1c-0.1,0-0.3,0-0.6,0.1
							c-0.3,0-0.5,0.1-0.6,0.1C67.6,144.4,67.4,144.2,67.4,143.8z"/>
						<path class="st3" d="M80.7,139c0,0.5-0.1,0.8-0.2,1c-0.1,0.2-0.4,0.3-0.7,0.3h-4.4c-0.2,0-0.4,0-0.4,0.1s-0.1,0.1-0.1,0.3
							c0,0.5,0.2,0.9,0.5,1.3c0.3,0.3,0.7,0.5,1.2,0.5c0.5,0,1-0.3,1.5-0.8c0.4-0.4,0.8-0.6,1.2-0.6c0.4,0,0.7,0.1,0.9,0.3
							c0.2,0.2,0.3,0.5,0.3,0.8c0,0.7-0.4,1.3-1.1,1.8c-0.8,0.5-1.7,0.7-2.8,0.7c-1.4,0-2.6-0.4-3.4-1.3c-0.9-0.9-1.3-2-1.3-3.5
							c0-1.5,0.4-2.6,1.3-3.5c0.8-0.9,2-1.3,3.3-1.3c1.3,0,2.3,0.4,3.1,1.1C80.3,136.8,80.7,137.8,80.7,139z M75,138.1
							c0,0.1,0,0.1,0.1,0.2c0,0,0.2,0.1,0.4,0.1h2c0.2,0,0.3,0,0.3-0.1s0.1-0.1,0.1-0.2c0-0.3-0.1-0.6-0.4-0.8
							c-0.3-0.2-0.6-0.4-1-0.4c-0.5,0-0.9,0.2-1.2,0.6C75.1,137.7,75,137.9,75,138.1z"/>
						<path class="st3" d="M85.5,135.8v1.5c0.2-0.6,0.4-1.1,0.6-1.4c0.5-0.7,1.3-1,2.2-1c0.7,0,1.2,0.2,1.7,0.6
							c0.5,0.4,0.7,1,0.7,1.6c0,0.5-0.1,0.9-0.4,1.2c-0.3,0.3-0.7,0.5-1.1,0.5c-0.3,0-0.6-0.1-0.9-0.3c-0.2-0.2-0.4-0.5-0.4-0.8
							c0-0.2,0.1-0.4,0.2-0.7H88c-0.8,0-1.3,0.4-1.6,1.3c-0.2,0.7-0.3,1.5-0.3,2.4v0.7c0,0.4,0,0.7,0.1,0.8c0,0.1,0.1,0.1,0.3,0.1
							c0.1,0,0.3,0,0.5-0.1c0.2,0,0.3-0.1,0.4-0.1c0.3,0,0.5,0.1,0.7,0.3c0.2,0.2,0.3,0.4,0.3,0.7c0,0.3-0.1,0.6-0.4,0.9
							c-0.2,0.2-0.5,0.4-0.9,0.4c-0.2,0-0.5,0-1-0.1c-0.3,0-0.7-0.1-1.1-0.1s-0.9,0-1.2,0.1c-0.6,0.1-0.9,0.1-1.1,0.1
							c-0.7,0-1.1-0.4-1.1-1.2c0-0.7,0.3-1,0.9-1c0.1,0,0.2,0,0.3,0.1s0.2,0.1,0.3,0.1c0.2,0,0.3-0.3,0.3-1v-2.9c0-0.7-0.1-1-0.3-1
							c0,0-0.1,0-0.3,0.1c-0.1,0-0.2,0.1-0.3,0.1c-0.6,0-0.9-0.3-0.9-1c0-0.4,0.1-0.7,0.3-0.9c0.2-0.2,0.4-0.3,0.7-0.3
							c0.1,0,0.3,0,0.5,0.1s0.4,0.1,0.6,0.1c0.1,0,0.4,0,0.6-0.1s0.5-0.1,0.6-0.1C85.3,135.3,85.5,135.4,85.5,135.8z"/>
						<path class="st3" d="M103.5,144.6c-1,0-1.6-0.4-2-1.2c-0.8,0.8-1.8,1.2-3,1.2c-0.9,0-1.7-0.2-2.3-0.7c-0.6-0.5-0.8-1.2-0.8-2
							c0-1.3,0.5-2.1,1.6-2.4c0.5-0.2,1-0.3,1.6-0.4c0.9-0.1,1.4-0.3,1.7-0.5c0.3-0.2,0.5-0.5,0.5-0.9c0-0.3-0.1-0.5-0.4-0.7
							c-0.2-0.2-0.5-0.3-0.9-0.3c-0.4,0-0.6,0.1-0.6,0.4c0,0.1,0,0.2,0,0.3v0.1c0,0.3-0.1,0.6-0.4,0.8c-0.3,0.2-0.6,0.3-1.1,0.3
							c-0.5,0-0.9-0.1-1.2-0.4c-0.3-0.3-0.5-0.6-0.5-1.1c0-0.6,0.3-1.2,1-1.5c0.7-0.4,1.6-0.6,2.8-0.6c1.3,0,2.3,0.2,2.9,0.6
							c0.7,0.4,1,1.2,1,2.4v3.7c0,0.4,0.1,0.6,0.3,0.6c0.1,0,0.2,0,0.3,0c0,0,0.1,0,0.1,0c0.3,0,0.5,0.1,0.7,0.3
							c0.2,0.2,0.3,0.4,0.3,0.7c0,0.4-0.2,0.7-0.5,1C104.5,144.5,104.1,144.6,103.5,144.6z M100.9,140.8v-0.4
							c-0.1,0-0.6,0.2-1.6,0.5c-0.7,0.2-1,0.4-1,0.8c0,0.6,0.3,0.8,1,0.8C100.4,142.4,100.9,141.9,100.9,140.8z"/>
						<path class="st3" d="M109.7,135.1c0.9,0,1.8,0.4,2.5,1.1v-1.3c0-0.4-0.2-0.6-0.5-0.6c-0.1,0-0.2,0-0.4,0
							c-0.2,0-0.3,0.1-0.5,0.1c-0.2,0-0.4-0.1-0.6-0.3c-0.2-0.2-0.2-0.4-0.2-0.7c0-0.8,0.4-1.2,1.2-1.2c0.3,0,0.5,0,0.6,0
							c0.5,0,0.8,0.1,1,0.1c0.2,0,0.4,0,0.7,0c0.3,0,0.5,0,0.7,0c0.3,0,0.5,0.1,0.6,0.2c0.1,0.1,0.2,0.4,0.2,0.8v8.2
							c0,0.6,0.1,0.9,0.3,0.9c0.1,0,0.2,0,0.3-0.1c0.1,0,0.2,0,0.3,0c0.5,0,0.8,0.3,0.8,0.9c0,0.4-0.1,0.7-0.3,0.9
							c-0.2,0.2-0.4,0.4-0.7,0.4h-0.1l-0.6-0.1c-0.1,0-0.3,0-0.6,0c-0.3,0-0.6,0-0.8,0c-0.3,0-0.5,0.1-0.5,0.1
							c-0.4,0-0.6-0.2-0.6-0.6V143c-0.6,1.1-1.6,1.6-2.8,1.6c-1.1,0-2-0.5-2.7-1.4c-0.7-0.9-1.1-2-1.1-3.4c0-1.4,0.4-2.5,1.1-3.4
							C107.7,135.6,108.6,135.1,109.7,135.1z M110.4,137.4c-0.4,0-0.8,0.2-1.1,0.6s-0.4,1-0.5,1.7v0.2c0,0.7,0.1,1.3,0.4,1.7
							s0.7,0.6,1.1,0.6c0.5,0,1-0.2,1.3-0.7s0.5-1.1,0.5-1.8c0-0.7-0.2-1.3-0.5-1.8C111.3,137.6,110.9,137.4,110.4,137.4z"/>
						<path class="st3" d="M121.2,135.3c0.3,0,0.5,0.2,0.5,0.7v5.4c0,0.6,0.1,0.9,0.3,0.9c0,0,0.1,0,0.3,0c0.1,0,0.2,0,0.3,0
							c0.5,0,0.8,0.3,0.8,0.9c0,0.8-0.4,1.2-1.1,1.2c-0.1,0-0.5,0-1-0.1c-0.3,0-0.7-0.1-1.2-0.1c-0.2,0-0.5,0-1,0.1
							s-0.7,0.1-0.9,0.1c-0.3,0-0.6-0.1-0.8-0.3c-0.2-0.2-0.3-0.5-0.3-0.9c0-0.7,0.3-1,0.9-1l0.5,0.1c0,0,0.1,0,0.1,0
							c0.2,0,0.3-0.3,0.3-1v-2.9c0-0.7-0.1-1-0.3-1c0,0-0.1,0-0.3,0.1c-0.1,0-0.2,0-0.3,0c-0.6,0-0.9-0.3-0.9-1
							c0-0.4,0.1-0.7,0.3-0.9c0.2-0.2,0.5-0.3,0.8-0.3c0.1,0,0.3,0,0.6,0.1c0.4,0.1,0.8,0.1,1,0.1c0.2,0,0.5,0,0.8-0.1
							S121.2,135.3,121.2,135.3z M120.2,134.6c-0.4,0-0.8-0.2-1.2-0.5c-0.3-0.3-0.5-0.7-0.5-1.2c0-0.5,0.2-0.8,0.5-1.2
							c0.3-0.3,0.7-0.5,1.2-0.5s0.8,0.2,1.2,0.5c0.3,0.3,0.5,0.7,0.5,1.2s-0.2,0.8-0.5,1.2C121.1,134.4,120.7,134.6,120.2,134.6z"/>
						<path class="st3" d="M127.4,135.9v0.5c0.7-1,1.7-1.4,2.8-1.4c1.1,0,2,0.4,2.6,1.3c0.6,0.8,1,2,1,3.4c0,1.5-0.3,2.6-1,3.5
							s-1.5,1.3-2.7,1.3c-0.4,0-0.8-0.1-1.2-0.3c-0.2-0.1-0.6-0.3-1-0.7v1.4c0,0.4,0.1,0.6,0.4,0.6c0.1,0,0.3,0,0.4-0.1
							c0.2,0,0.4,0,0.5,0c0.6,0,0.8,0.3,0.8,0.9c0,0.7-0.4,1.1-1.1,1.1c-0.2,0-0.5,0-1-0.1c-0.6-0.1-1.1-0.1-1.6-0.1
							c-0.2,0-0.7,0-1.5,0.1c-0.1,0-0.3,0-0.3,0c-0.3,0-0.6-0.1-0.8-0.3c-0.2-0.2-0.3-0.5-0.3-0.9c0-0.7,0.3-1,0.9-1
							c0.1,0,0.2,0,0.3,0.1c0.2,0,0.3,0.1,0.3,0.1c0.2,0,0.3-0.3,0.3-1v-6c0-0.7-0.1-1-0.3-1c0,0-0.1,0-0.3,0.1c-0.1,0-0.2,0-0.3,0
							c-0.6,0-0.9-0.3-0.9-1c0-0.3,0.1-0.6,0.3-0.9c0.2-0.2,0.4-0.3,0.7-0.3h0.1l0.6,0.1c0.1,0,0.3,0,0.5,0c0.3,0,0.7,0,1-0.1
							c0.2,0,0.3,0,0.3,0C127.3,135.3,127.4,135.5,127.4,135.9z M129.4,137.3c-0.5,0-0.8,0.2-1.1,0.6c-0.3,0.4-0.4,1-0.4,1.8
							c0,0.8,0.1,1.4,0.4,1.8c0.3,0.4,0.6,0.7,1.1,0.7c0.5,0,0.8-0.2,1.1-0.7c0.3-0.4,0.4-1,0.4-1.8c0-0.7-0.1-1.3-0.4-1.8
							C130.2,137.5,129.9,137.3,129.4,137.3z"/>
						<path class="st3" d="M138.6,135.3c0.3,0,0.5,0.2,0.5,0.7v5.4c0,0.6,0.1,0.9,0.3,0.9c0,0,0.1,0,0.3,0c0.1,0,0.2,0,0.3,0
							c0.5,0,0.8,0.3,0.8,0.9c0,0.8-0.4,1.2-1.1,1.2c-0.1,0-0.5,0-1-0.1c-0.3,0-0.7-0.1-1.2-0.1c-0.2,0-0.5,0-1,0.1
							s-0.7,0.1-0.9,0.1c-0.3,0-0.6-0.1-0.8-0.3c-0.2-0.2-0.3-0.5-0.3-0.9c0-0.7,0.3-1,0.9-1l0.5,0.1c0,0,0.1,0,0.1,0
							c0.2,0,0.3-0.3,0.3-1v-2.9c0-0.7-0.1-1-0.3-1c0,0-0.1,0-0.3,0.1c-0.1,0-0.2,0-0.3,0c-0.6,0-0.9-0.3-0.9-1
							c0-0.4,0.1-0.7,0.3-0.9c0.2-0.2,0.5-0.3,0.8-0.3c0.1,0,0.3,0,0.6,0.1c0.4,0.1,0.8,0.1,1,0.1c0.2,0,0.5,0,0.8-0.1
							S138.6,135.3,138.6,135.3z M137.6,134.6c-0.4,0-0.8-0.2-1.2-0.5c-0.3-0.3-0.5-0.7-0.5-1.2c0-0.5,0.2-0.8,0.5-1.2
							c0.3-0.3,0.7-0.5,1.2-0.5s0.8,0.2,1.2,0.5c0.3,0.3,0.5,0.7,0.5,1.2s-0.2,0.8-0.5,1.2C138.4,134.4,138,134.6,137.6,134.6z"/>
						<path class="st3" d="M144.9,135c0.9,0,1.7,0.3,2.3,0.8c0-0.5,0.4-0.8,1-0.8c0.6,0,0.9,0.2,0.9,0.6c0,0.1,0,0.3-0.1,0.5
							c0,0.2-0.1,0.4-0.1,0.6c0,0,0,0.1,0,0.3c0,0.2,0,0.3,0,0.4v0.1c0,0.6-0.3,1-1,1c-0.5,0-0.9-0.2-1.2-0.7
							c-0.4-0.6-0.9-0.8-1.5-0.8c-0.7,0-1,0.2-1,0.7c0,0.3,0.1,0.4,0.3,0.5c0.2,0.1,0.8,0.2,1.8,0.4c0.8,0.1,1.4,0.3,1.8,0.5
							c0.4,0.2,0.7,0.4,0.9,0.8c0.3,0.4,0.5,0.9,0.5,1.5c0,0.9-0.4,1.7-1.1,2.3c-0.7,0.6-1.6,0.9-2.6,0.9s-2-0.3-2.9-1
							c0,0.6-0.3,0.9-0.9,0.9c-0.6,0-1-0.3-1-0.8c0-0.1,0-0.3,0-0.6s0-0.4,0-0.6c0-0.1,0-0.3,0-0.5c0-0.2,0-0.4,0-0.5
							c0-0.5,0.3-0.8,1-0.8c0.3,0,0.6,0,0.7,0.1c0.2,0.1,0.3,0.3,0.5,0.6c0.3,0.4,0.6,0.7,0.8,0.9c0.3,0.1,0.6,0.2,1.1,0.2
							c0.9,0,1.3-0.3,1.3-0.8c0-0.4-0.3-0.6-1-0.8l-1-0.2c-0.9-0.2-1.5-0.4-1.8-0.5c-0.4-0.2-0.6-0.5-0.8-0.9
							c-0.2-0.4-0.3-0.8-0.3-1.3c0-0.9,0.3-1.6,0.9-2.2C143.2,135.3,143.9,135,144.9,135z"/>
						<path class="st3" d="M155.9,138.1c0-0.2,0.1-0.4,0.2-0.5c-0.3-0.2-0.6-0.3-0.9-0.3c-0.5,0-1,0.2-1.3,0.7
							c-0.3,0.4-0.5,1-0.5,1.8c0,0.8,0.2,1.4,0.5,1.8c0.3,0.5,0.8,0.7,1.4,0.7c0.6,0,1-0.3,1.3-1c0.2-0.4,0.3-0.6,0.4-0.8
							c0.2-0.1,0.4-0.2,0.8-0.2c0.4,0,0.7,0.1,1,0.4s0.4,0.6,0.4,0.9c0,0.8-0.4,1.5-1.2,2.1c-0.8,0.6-1.7,0.9-2.8,0.9
							c-1.4,0-2.5-0.4-3.4-1.3s-1.3-2-1.3-3.5c0-1.5,0.4-2.6,1.3-3.5c0.9-0.9,2-1.3,3.5-1.3c1.1,0,1.9,0.2,2.6,0.7
							c0.7,0.5,1,1.1,1,1.9c0,0.5-0.2,0.9-0.5,1.2c-0.3,0.3-0.7,0.4-1.2,0.4c-0.4,0-0.7-0.1-1-0.3S155.9,138.5,155.9,138.1z"/>
						<path class="st3" d="M163.8,135.3c0.3,0,0.5,0.2,0.5,0.7v5.4c0,0.6,0.1,0.9,0.3,0.9c0,0,0.1,0,0.3,0c0.1,0,0.2,0,0.3,0
							c0.5,0,0.8,0.3,0.8,0.9c0,0.8-0.4,1.2-1.1,1.2c-0.1,0-0.5,0-1-0.1c-0.3,0-0.7-0.1-1.2-0.1c-0.2,0-0.5,0-1,0.1
							s-0.7,0.1-0.9,0.1c-0.3,0-0.6-0.1-0.8-0.3c-0.2-0.2-0.3-0.5-0.3-0.9c0-0.7,0.3-1,0.9-1l0.5,0.1c0,0,0.1,0,0.1,0
							c0.2,0,0.3-0.3,0.3-1v-2.9c0-0.7-0.1-1-0.3-1c0,0-0.1,0-0.3,0.1c-0.1,0-0.2,0-0.3,0c-0.6,0-0.9-0.3-0.9-1
							c0-0.4,0.1-0.7,0.3-0.9c0.2-0.2,0.5-0.3,0.8-0.3c0.1,0,0.3,0,0.6,0.1c0.4,0.1,0.8,0.1,1,0.1c0.2,0,0.5,0,0.8-0.1
							S163.8,135.3,163.8,135.3z M162.8,134.6c-0.4,0-0.8-0.2-1.2-0.5c-0.3-0.3-0.5-0.7-0.5-1.2c0-0.5,0.2-0.8,0.5-1.2
							c0.3-0.3,0.7-0.5,1.2-0.5s0.8,0.2,1.2,0.5c0.3,0.3,0.5,0.7,0.5,1.2s-0.2,0.8-0.5,1.2C163.7,134.4,163.3,134.6,162.8,134.6z"/>
						<path class="st3" d="M170.3,135.8v0.9c0.9-1.1,2-1.6,3.1-1.6c1.2,0,2.1,0.5,2.6,1.4c0.3,0.5,0.4,1.2,0.4,2.3v2.7
							c0,0.6,0.1,0.9,0.4,0.9c0.1,0,0.1,0,0.3-0.1c0.1,0,0.2,0,0.3,0c0.5,0,0.8,0.3,0.8,0.9c0,0.8-0.4,1.2-1.1,1.2
							c-0.2,0-0.5,0-0.9-0.1s-0.7-0.1-0.9-0.1c-0.3,0-0.6,0-1,0.1s-0.6,0.1-0.8,0.1c-0.7,0-1.1-0.4-1.1-1.1c0-0.6,0.2-1,0.7-1
							c0.3,0,0.5-0.2,0.5-0.5v-2.5c0-0.7-0.1-1.2-0.3-1.5c-0.2-0.3-0.5-0.4-0.9-0.4c-0.5,0-0.9,0.2-1.2,0.5
							c-0.3,0.3-0.5,0.8-0.5,1.3v1.9c0,0.5,0,0.9,0.1,1c0,0.1,0.2,0.2,0.4,0.2c0.4,0.1,0.6,0.4,0.6,1c0,0.8-0.3,1.1-1,1.1
							c-0.2,0-0.4,0-0.7-0.1c-0.4-0.1-0.8-0.1-1-0.1s-0.5,0-1,0.1c-0.4,0-0.7,0.1-1,0.1c-0.8,0-1.1-0.4-1.1-1.2c0-0.7,0.3-1,0.9-1
							c0.1,0,0.2,0,0.3,0.1s0.2,0.1,0.3,0.1c0.2,0,0.3-0.3,0.3-1v-2.9c0-0.7-0.1-1-0.3-1c0,0-0.1,0-0.3,0.1c-0.1,0-0.2,0.1-0.3,0.1
							c-0.6,0-0.9-0.3-0.9-1c0-0.4,0.1-0.7,0.3-0.9c0.2-0.2,0.5-0.3,0.8-0.3c0.1,0,0.3,0,0.6,0.1c0.2,0,0.3,0.1,0.5,0.1
							c0.1,0,0.4,0,0.7-0.1c0.3,0,0.5-0.1,0.6-0.1C170.1,135.3,170.3,135.4,170.3,135.8z"/>
						<path class="st3" d="M183.4,135l0.7,0c0-0.6,0.2-1.1,0.6-1.4c0.4-0.3,0.9-0.5,1.6-0.5c0.6,0,1,0.1,1.4,0.4s0.6,0.7,0.6,1.1
							c0,0.3-0.1,0.6-0.3,0.8c-0.2,0.2-0.4,0.3-0.7,0.3c-0.3,0-0.6-0.1-0.7-0.4l-0.2-0.3c0-0.1-0.1-0.1-0.2-0.1
							c-0.3,0-0.4,0.2-0.4,0.5c0,0.1,0,0.1,0,0.2c1.2,0.4,1.7,1.2,1.7,2.4c0,0.9-0.4,1.7-1.1,2.2c-0.7,0.6-1.7,0.8-2.8,0.8
							c-0.6,0-1.3-0.1-1.9-0.4l-0.1,0c-0.2,0.1-0.3,0.3-0.3,0.5c0,0.4,0.3,0.7,0.9,0.8c0.2,0,0.6,0.1,1.3,0.1h0.2l1.2,0
							c1.2,0,2,0.2,2.7,0.7s0.9,1.1,0.9,1.9c0,1.1-0.5,1.9-1.4,2.5c-0.9,0.6-2.2,0.9-3.8,0.9c-1.4,0-2.6-0.3-3.5-0.8
							s-1.3-1.2-1.3-2.1c0-1,0.6-1.6,1.8-2c-1-0.2-1.4-0.7-1.4-1.6c0-0.5,0.1-0.8,0.3-1.1c0.2-0.3,0.6-0.5,1.1-0.8
							c-0.4-0.5-0.6-1-0.6-1.6c0-0.8,0.4-1.5,1.1-2.1C181.4,135.3,182.3,135,183.4,135z M183.2,144.1c-0.3,0-0.6,0-1.1-0.1
							c-0.5,0.2-0.8,0.5-0.8,0.8c0,0.6,0.7,1,2.1,1c1.4,0,2.1-0.3,2.1-1c0-0.5-0.5-0.8-1.4-0.8c0,0-0.2,0-0.5,0H183.2z M183.5,136.9
							c-0.3,0-0.6,0.1-0.8,0.3s-0.3,0.5-0.3,0.8s0.1,0.6,0.3,0.8c0.2,0.2,0.5,0.3,0.8,0.3s0.6-0.1,0.8-0.3c0.2-0.2,0.3-0.5,0.3-0.8
							c0-0.3-0.1-0.6-0.3-0.8C184.2,137,183.9,136.9,183.5,136.9z"/>
						<path class="st3" d="M202.1,139c0,0.5-0.1,0.8-0.2,1c-0.1,0.2-0.4,0.3-0.7,0.3h-4.4c-0.2,0-0.4,0-0.4,0.1s-0.1,0.1-0.1,0.3
							c0,0.5,0.2,0.9,0.5,1.3c0.3,0.3,0.7,0.5,1.2,0.5c0.5,0,1-0.3,1.5-0.8c0.4-0.4,0.8-0.6,1.2-0.6c0.4,0,0.7,0.1,0.9,0.3
							c0.2,0.2,0.3,0.5,0.3,0.8c0,0.7-0.4,1.3-1.1,1.8c-0.8,0.5-1.7,0.7-2.8,0.7c-1.4,0-2.6-0.4-3.4-1.3c-0.9-0.9-1.3-2-1.3-3.5
							c0-1.5,0.4-2.6,1.3-3.5c0.8-0.9,2-1.3,3.3-1.3c1.3,0,2.3,0.4,3.1,1.1C201.7,136.8,202.1,137.8,202.1,139z M196.4,138.1
							c0,0.1,0,0.1,0.1,0.2c0,0,0.2,0.1,0.4,0.1h2c0.2,0,0.3,0,0.3-0.1s0.1-0.1,0.1-0.2c0-0.3-0.1-0.6-0.4-0.8
							c-0.3-0.2-0.6-0.4-1-0.4c-0.5,0-0.9,0.2-1.2,0.6C196.5,137.7,196.4,137.9,196.4,138.1z"/>
						<path class="st3" d="M206.8,132.2c0.3,0,0.5,0.2,0.5,0.7v8.5c0,0.6,0.1,0.9,0.4,0.9c0.1,0,0.2,0,0.3,0c0.1,0,0.2,0,0.3,0
							c0.5,0,0.8,0.3,0.8,0.9c0,0.8-0.4,1.2-1.1,1.2c0,0-0.5,0-1.4-0.1c-0.3,0-0.6,0-0.9,0c-0.3,0-0.5,0-0.8,0.1
							c-0.5,0.1-0.8,0.1-1,0.1c-0.3,0-0.6-0.1-0.8-0.3c-0.2-0.2-0.3-0.5-0.3-0.9c0-0.7,0.3-1,0.9-1c0.1,0,0.2,0,0.3,0.1
							s0.2,0.1,0.3,0.1c0.2,0,0.3-0.3,0.3-1v-6c0-0.7-0.1-1-0.3-1c-0.1,0-0.2,0-0.3,0.1c-0.1,0-0.2,0-0.3,0c-0.6,0-0.9-0.3-0.9-1
							c0-0.4,0.1-0.7,0.3-0.9s0.5-0.3,0.8-0.3c0.1,0,0.3,0,0.6,0.1c0.4,0,0.7,0.1,0.9,0.1c0.3,0,0.5,0,0.7-0.1
							C206.5,132.2,206.7,132.2,206.8,132.2z"/>
						<path class="st3" d="M213.6,135.3c0.3,0,0.5,0.2,0.5,0.7v5.4c0,0.6,0.1,0.9,0.3,0.9c0,0,0.1,0,0.3,0c0.1,0,0.2,0,0.3,0
							c0.5,0,0.8,0.3,0.8,0.9c0,0.8-0.4,1.2-1.1,1.2c-0.1,0-0.5,0-1-0.1c-0.3,0-0.7-0.1-1.2-0.1c-0.2,0-0.5,0-1,0.1
							s-0.7,0.1-0.9,0.1c-0.3,0-0.6-0.1-0.8-0.3c-0.2-0.2-0.3-0.5-0.3-0.9c0-0.7,0.3-1,0.9-1l0.5,0.1c0,0,0.1,0,0.1,0
							c0.2,0,0.3-0.3,0.3-1v-2.9c0-0.7-0.1-1-0.3-1c0,0-0.1,0-0.3,0.1c-0.1,0-0.2,0-0.3,0c-0.6,0-0.9-0.3-0.9-1
							c0-0.4,0.1-0.7,0.3-0.9c0.2-0.2,0.5-0.3,0.8-0.3c0.1,0,0.3,0,0.6,0.1c0.4,0.1,0.8,0.1,1,0.1c0.2,0,0.5,0,0.8-0.1
							S213.5,135.3,213.6,135.3z M212.5,134.6c-0.4,0-0.8-0.2-1.2-0.5c-0.3-0.3-0.5-0.7-0.5-1.2c0-0.5,0.2-0.8,0.5-1.2
							c0.3-0.3,0.7-0.5,1.2-0.5s0.8,0.2,1.2,0.5c0.3,0.3,0.5,0.7,0.5,1.2s-0.2,0.8-0.5,1.2C213.4,134.4,213,134.6,212.5,134.6z"/>
						<path class="st3" d="M220.1,137.7v0.7l0,1.1l0,1.2c0,0.4,0,0.6,0,0.5c0,0.7,0.2,1.1,0.7,1.1c0.4,0,0.6-0.3,0.6-1
							c0-0.1,0-0.2,0-0.2c0-0.1,0-0.1,0-0.2c0-0.1,0-0.1,0-0.2c0-0.6,0.3-1,1-1c0.8,0,1.1,0.6,1.1,1.8c0,0.9-0.3,1.7-0.8,2.2
							c-0.6,0.5-1.3,0.8-2.4,0.8c-2,0-3-1-3-3.1c0-0.3,0-0.8,0-1.5c0-0.7,0-1.2,0-1.5v-0.6c0-0.3,0-0.5-0.1-0.6
							c-0.1-0.1-0.2-0.1-0.4-0.1h-0.3c-0.2,0-0.4-0.1-0.6-0.3c-0.1-0.2-0.2-0.4-0.2-0.7c0-0.3,0.1-0.5,0.2-0.7
							c0.2-0.2,0.3-0.3,0.5-0.3h0.3c0.3,0,0.5-0.1,0.5-0.3c0-0.1,0.1-0.3,0.1-0.5v-0.9c0-0.4,0.1-0.7,0.3-0.9
							c0.2-0.2,0.6-0.2,1.2-0.2c0.4,0,0.7,0.1,0.9,0.2s0.2,0.4,0.2,0.8v1c0,0.3,0,0.6,0.1,0.6c0.1,0.1,0.2,0.1,0.5,0.1h1.3
							c0.7,0,1.1,0.3,1.1,1c0,0.6-0.3,1-1,1h-1.5c-0.3,0-0.4,0-0.5,0.1S220.1,137.5,220.1,137.7z"/>
						<path class="st3" d="M224.6,142.7c0-0.5,0.2-0.9,0.5-1.3s0.7-0.5,1.2-0.5c0.6,0,1.1,0.2,1.5,0.7s0.6,1.1,0.6,1.8
							c0,1.5-0.6,3-1.9,4.5c-0.3,0.4-0.6,0.6-0.9,0.6c-0.4,0-0.7-0.2-0.7-0.7c0-0.3,0.1-0.6,0.4-1c0.7-1,1-1.6,1-2
							c0-0.2-0.1-0.3-0.4-0.4C225.1,144.2,224.6,143.6,224.6,142.7z"/>
						<path class="st3" d="M43.7,164c0,0.5-0.1,0.8-0.2,1c-0.1,0.2-0.4,0.3-0.7,0.3h-4.4c-0.2,0-0.4,0-0.4,0.1s-0.1,0.1-0.1,0.3
							c0,0.5,0.2,0.9,0.5,1.3c0.3,0.3,0.7,0.5,1.2,0.5c0.5,0,1-0.3,1.5-0.8c0.4-0.4,0.8-0.6,1.2-0.6c0.4,0,0.7,0.1,0.9,0.3
							c0.2,0.2,0.3,0.5,0.3,0.8c0,0.7-0.4,1.3-1.1,1.8c-0.8,0.5-1.7,0.7-2.8,0.7c-1.4,0-2.6-0.4-3.4-1.3c-0.9-0.9-1.3-2-1.3-3.5
							c0-1.5,0.4-2.6,1.3-3.5c0.8-0.9,2-1.3,3.3-1.3c1.3,0,2.3,0.4,3.1,1.1C43.3,161.8,43.7,162.8,43.7,164z M38,163.1
							c0,0.1,0,0.1,0.1,0.2c0,0,0.2,0.1,0.4,0.1h2c0.2,0,0.3,0,0.3-0.1s0.1-0.1,0.1-0.2c0-0.3-0.1-0.6-0.4-0.8
							c-0.3-0.2-0.6-0.4-1-0.4c-0.5,0-0.9,0.2-1.2,0.6C38,162.7,38,162.9,38,163.1z"/>
						<path class="st3" d="M51.7,168.8v-0.7c-0.8,1-1.8,1.5-3.2,1.5c-0.6,0-1.1-0.1-1.5-0.4c-0.5-0.2-0.8-0.6-1-1
							c-0.2-0.4-0.3-1.1-0.3-2.2v-2.8c0-0.4,0-0.7-0.1-0.7c-0.1-0.1-0.1-0.1-0.3-0.1h-0.2c0,0-0.1,0-0.2,0c-0.5,0-0.8-0.3-0.8-1
							c0-0.8,0.4-1.2,1.1-1.2c0.1,0,0.4,0,0.7,0.1s0.5,0.1,0.7,0.1c0.1,0,0.4,0,0.6-0.1s0.5-0.1,0.6-0.1c0.4,0,0.5,0.3,0.5,0.8
							l0,4.8c0,0.9,0.4,1.4,1.1,1.4c1.1,0,1.6-0.8,1.6-2.2v-1.7c0-0.6-0.1-0.9-0.4-0.9c-0.1,0-0.2,0-0.3,0c-0.1,0-0.2,0-0.3,0
							c-0.4,0-0.7-0.3-0.7-1c0-0.8,0.3-1.2,1-1.2c0.2,0,0.4,0,0.7,0.1c0.3,0,0.6,0.1,0.7,0.1c0,0,0.3,0,0.8-0.1
							c0.3,0,0.5-0.1,0.6-0.1c0.4,0,0.6,0.2,0.6,0.6v5.5c0,0.6,0.1,0.9,0.3,0.9c0.1,0,0.2,0,0.3,0c0.1,0,0.2,0,0.3,0
							c0.5,0,0.8,0.3,0.8,0.9c0,0.8-0.4,1.2-1.1,1.2c-0.1,0-0.4,0-0.6-0.1c-0.3,0-0.5-0.1-0.6-0.1c-0.1,0-0.3,0-0.6,0.1
							c-0.3,0-0.5,0.1-0.6,0.1C51.9,169.4,51.7,169.2,51.7,168.8z"/>
						<path class="st3" d="M60,160.3c0.3,0,0.5,0.2,0.5,0.7v5.4c0,0.6,0.1,0.9,0.3,0.9c0,0,0.1,0,0.3,0c0.1,0,0.2,0,0.3,0
							c0.5,0,0.8,0.3,0.8,0.9c0,0.8-0.4,1.2-1.1,1.2c-0.1,0-0.5,0-1-0.1c-0.3,0-0.7-0.1-1.2-0.1c-0.2,0-0.5,0-1,0.1
							s-0.7,0.1-0.9,0.1c-0.3,0-0.6-0.1-0.8-0.3c-0.2-0.2-0.3-0.5-0.3-0.9c0-0.7,0.3-1,0.9-1l0.5,0.1c0,0,0.1,0,0.1,0
							c0.2,0,0.3-0.3,0.3-1v-2.9c0-0.7-0.1-1-0.3-1c0,0-0.1,0-0.3,0.1c-0.1,0-0.2,0-0.3,0c-0.6,0-0.9-0.3-0.9-1
							c0-0.4,0.1-0.7,0.3-0.9c0.2-0.2,0.5-0.3,0.8-0.3c0.1,0,0.3,0,0.6,0.1c0.4,0.1,0.8,0.1,1,0.1c0.2,0,0.5,0,0.8-0.1
							S60,160.3,60,160.3z M59,159.6c-0.4,0-0.8-0.2-1.2-0.5c-0.3-0.3-0.5-0.7-0.5-1.2c0-0.5,0.2-0.8,0.5-1.2
							c0.3-0.3,0.7-0.5,1.2-0.5s0.8,0.2,1.2,0.5c0.3,0.3,0.5,0.7,0.5,1.2s-0.2,0.8-0.5,1.2C59.9,159.4,59.5,159.6,59,159.6z"/>
						<path class="st3" d="M66.3,160c0.9,0,1.7,0.3,2.3,0.8c0-0.5,0.4-0.8,1-0.8c0.6,0,0.9,0.2,0.9,0.6c0,0.1,0,0.3-0.1,0.5
							c0,0.2-0.1,0.4-0.1,0.6c0,0,0,0.1,0,0.3c0,0.2,0,0.3,0,0.4v0.1c0,0.6-0.3,1-1,1c-0.5,0-0.9-0.2-1.2-0.7
							c-0.4-0.6-0.9-0.8-1.5-0.8c-0.7,0-1,0.2-1,0.7c0,0.3,0.1,0.4,0.3,0.5c0.2,0.1,0.8,0.2,1.8,0.4c0.8,0.1,1.4,0.3,1.8,0.5
							c0.4,0.2,0.7,0.4,0.9,0.8c0.3,0.4,0.5,0.9,0.5,1.5c0,0.9-0.4,1.7-1.1,2.3c-0.7,0.6-1.6,0.9-2.6,0.9s-2-0.3-2.9-1
							c0,0.6-0.3,0.9-0.9,0.9c-0.6,0-1-0.3-1-0.8c0-0.1,0-0.3,0-0.6s0-0.4,0-0.6c0-0.1,0-0.3,0-0.5c0-0.2,0-0.4,0-0.5
							c0-0.5,0.3-0.8,1-0.8c0.3,0,0.6,0,0.7,0.1c0.2,0.1,0.3,0.3,0.5,0.6c0.3,0.4,0.6,0.7,0.8,0.9c0.3,0.1,0.6,0.2,1.1,0.2
							c0.9,0,1.3-0.3,1.3-0.8c0-0.4-0.3-0.6-1-0.8l-1-0.2c-0.9-0.2-1.5-0.4-1.8-0.5c-0.4-0.2-0.6-0.5-0.8-0.9
							c-0.2-0.4-0.3-0.8-0.3-1.3c0-0.9,0.3-1.6,0.9-2.2C64.6,160.3,65.4,160,66.3,160z"/>
						<path class="st3" d="M75.7,160.8v0.8c0.9-1.1,1.9-1.6,3-1.6c0.9,0,1.7,0.5,2.3,1.4c0.6-0.5,1.1-0.9,1.5-1.1
							c0.4-0.2,0.9-0.3,1.5-0.3c1.1,0,2,0.4,2.6,1.1c0.4,0.5,0.6,1.3,0.6,2.5v2.8c0,0.6,0.1,0.9,0.3,0.9c0.1,0,0.2,0,0.3-0.1
							c0.1,0,0.2,0,0.3,0c0.5,0,0.8,0.3,0.8,0.9c0,0.4-0.1,0.7-0.3,0.9c-0.2,0.2-0.4,0.3-0.8,0.3c0,0-0.2,0-0.5-0.1l-0.4-0.1
							c-0.2,0-0.4,0-0.8,0c-0.4,0-0.8,0-1.1,0.1s-0.6,0.1-0.8,0.1c-0.3,0-0.5-0.1-0.7-0.3c-0.2-0.2-0.3-0.5-0.3-0.8
							c0-0.6,0.2-0.9,0.7-1c0.2,0,0.4-0.1,0.4-0.2c0-0.1,0.1-0.4,0.1-0.8v-1.9c0-0.8-0.1-1.3-0.2-1.6c-0.2-0.3-0.5-0.4-0.9-0.4
							c-1,0-1.5,0.7-1.5,2.2v1.7c0,0.4,0,0.7,0.1,0.8c0,0.1,0.1,0.2,0.3,0.2c0.4,0.1,0.6,0.4,0.6,0.9c0,0.8-0.3,1.2-1,1.2
							c-0.1,0-0.3,0-0.6-0.1c-0.4-0.1-0.7-0.1-0.8-0.1c-0.1,0-0.4,0-0.6,0.1s-0.5,0.1-0.6,0.1c-0.6,0-0.9-0.4-0.9-1.1
							c0-0.5,0.2-0.9,0.6-1c0.2,0,0.3-0.2,0.3-0.4c0-0.3,0-0.5,0-0.6v-2c0-0.7-0.1-1.2-0.2-1.4s-0.5-0.4-0.9-0.4
							c-1.1,0-1.6,0.7-1.6,2.2v2.2c0,0.2,0,0.3,0.1,0.4c0,0.1,0.2,0.1,0.4,0.1c0.5,0.1,0.7,0.4,0.7,0.9c0,0.8-0.3,1.2-1,1.2
							c-0.2,0-0.5,0-0.9-0.1s-0.7-0.1-0.9-0.1c-0.3,0-0.6,0-0.8,0.1c-0.5,0.1-0.8,0.1-0.9,0.1c-0.3,0-0.6-0.1-0.8-0.3
							c-0.2-0.2-0.3-0.5-0.3-0.9c0-0.7,0.3-1,0.9-1c0.1,0,0.2,0,0.3,0.1s0.2,0.1,0.3,0.1c0.2,0,0.3-0.3,0.3-1v-2.9
							c0-0.7-0.1-1-0.3-1c0,0-0.1,0-0.3,0.1c-0.1,0-0.2,0.1-0.3,0.1c-0.6,0-0.9-0.3-0.9-1c0-0.3,0.1-0.6,0.3-0.9
							c0.2-0.2,0.5-0.3,0.8-0.3c0.1,0,0.3,0,0.6,0.1c0.2,0,0.4,0.1,0.5,0.1c0.1,0,0.4,0,0.6-0.1s0.5-0.1,0.6-0.1
							C75.5,160.3,75.7,160.4,75.7,160.8z"/>
						<path class="st3" d="M93.9,169.6c-1.5,0-2.6-0.4-3.4-1.3c-0.8-0.8-1.2-2-1.2-3.5c0-1.5,0.4-2.7,1.2-3.5
							c0.8-0.8,1.9-1.3,3.4-1.3c1.4,0,2.6,0.4,3.4,1.3c0.8,0.8,1.2,2,1.2,3.5c0,1.5-0.4,2.7-1.2,3.6
							C96.5,169.2,95.4,169.6,93.9,169.6z M93.9,162.2c-0.5,0-0.9,0.2-1.3,0.7c-0.3,0.5-0.5,1.1-0.5,1.9c0,0.8,0.2,1.5,0.5,1.9
							c0.3,0.5,0.7,0.7,1.3,0.7c1.1,0,1.7-0.9,1.7-2.6C95.6,163.1,95,162.2,93.9,162.2z"/>
						<path class="st3" d="M103.3,160.1c0.9,0,1.8,0.4,2.5,1.1v-1.3c0-0.4-0.2-0.6-0.5-0.6c-0.1,0-0.2,0-0.4,0
							c-0.2,0-0.3,0.1-0.5,0.1c-0.2,0-0.4-0.1-0.6-0.3c-0.2-0.2-0.2-0.4-0.2-0.7c0-0.8,0.4-1.2,1.2-1.2c0.3,0,0.5,0,0.6,0
							c0.5,0,0.8,0.1,1,0.1c0.2,0,0.4,0,0.7,0c0.3,0,0.5,0,0.7,0c0.3,0,0.5,0.1,0.6,0.2c0.1,0.1,0.2,0.4,0.2,0.8v8.2
							c0,0.6,0.1,0.9,0.3,0.9c0.1,0,0.2,0,0.3-0.1c0.1,0,0.2,0,0.3,0c0.5,0,0.8,0.3,0.8,0.9c0,0.4-0.1,0.7-0.3,0.9
							c-0.2,0.2-0.4,0.4-0.7,0.4h-0.1l-0.6-0.1c-0.1,0-0.3,0-0.6,0c-0.3,0-0.6,0-0.8,0c-0.3,0-0.5,0.1-0.5,0.1
							c-0.4,0-0.6-0.2-0.6-0.6V168c-0.6,1.1-1.6,1.6-2.8,1.6c-1.1,0-2-0.5-2.7-1.4c-0.7-0.9-1.1-2-1.1-3.4c0-1.4,0.4-2.5,1.1-3.4
							C101.2,160.6,102.1,160.1,103.3,160.1z M103.9,162.4c-0.4,0-0.8,0.2-1.1,0.6s-0.4,1-0.5,1.7v0.2c0,0.7,0.1,1.3,0.4,1.7
							s0.7,0.6,1.1,0.6c0.5,0,1-0.2,1.3-0.7s0.5-1.1,0.5-1.8c0-0.7-0.2-1.3-0.5-1.8C104.9,162.6,104.4,162.4,103.9,162.4z"/>
						<path class="st3" d="M119.2,162.7v0.7l0,1.1l0,1.2c0,0.4,0,0.6,0,0.5c0,0.7,0.2,1.1,0.7,1.1c0.4,0,0.6-0.3,0.6-1
							c0-0.1,0-0.2,0-0.2c0-0.1,0-0.1,0-0.2c0-0.1,0-0.1,0-0.2c0-0.6,0.3-1,1-1c0.8,0,1.1,0.6,1.1,1.8c0,0.9-0.3,1.7-0.8,2.2
							c-0.6,0.5-1.3,0.8-2.4,0.8c-2,0-3-1-3-3.1c0-0.3,0-0.8,0-1.5c0-0.7,0-1.2,0-1.5v-0.6c0-0.3,0-0.5-0.1-0.6
							c-0.1-0.1-0.2-0.1-0.4-0.1h-0.3c-0.2,0-0.4-0.1-0.6-0.3c-0.1-0.2-0.2-0.4-0.2-0.7c0-0.3,0.1-0.5,0.2-0.7
							c0.2-0.2,0.3-0.3,0.5-0.3h0.3c0.3,0,0.5-0.1,0.5-0.3c0-0.1,0.1-0.3,0.1-0.5v-0.9c0-0.4,0.1-0.7,0.3-0.9
							c0.2-0.2,0.6-0.2,1.2-0.2c0.4,0,0.7,0.1,0.9,0.2s0.2,0.4,0.2,0.8v1c0,0.3,0,0.6,0.1,0.6c0.1,0.1,0.2,0.1,0.5,0.1h1.3
							c0.7,0,1.1,0.3,1.1,1c0,0.6-0.3,1-1,1h-1.5c-0.3,0-0.4,0-0.5,0.1S119.2,162.5,119.2,162.7z"/>
						<path class="st3" d="M127.1,160.3c0.3,0,0.5,0.2,0.5,0.7v5.4c0,0.6,0.1,0.9,0.3,0.9c0,0,0.1,0,0.3,0c0.1,0,0.2,0,0.3,0
							c0.5,0,0.8,0.3,0.8,0.9c0,0.8-0.4,1.2-1.1,1.2c-0.1,0-0.5,0-1-0.1c-0.3,0-0.7-0.1-1.2-0.1c-0.2,0-0.5,0-1,0.1
							s-0.7,0.1-0.9,0.1c-0.3,0-0.6-0.1-0.8-0.3c-0.2-0.2-0.3-0.5-0.3-0.9c0-0.7,0.3-1,0.9-1l0.5,0.1c0,0,0.1,0,0.1,0
							c0.2,0,0.3-0.3,0.3-1v-2.9c0-0.7-0.1-1-0.3-1c0,0-0.1,0-0.3,0.1c-0.1,0-0.2,0-0.3,0c-0.6,0-0.9-0.3-0.9-1
							c0-0.4,0.1-0.7,0.3-0.9c0.2-0.2,0.5-0.3,0.8-0.3c0.1,0,0.3,0,0.6,0.1c0.4,0.1,0.8,0.1,1,0.1c0.2,0,0.5,0,0.8-0.1
							S127.1,160.3,127.1,160.3z M126.1,159.6c-0.4,0-0.8-0.2-1.2-0.5c-0.3-0.3-0.5-0.7-0.5-1.2c0-0.5,0.2-0.8,0.5-1.2
							c0.3-0.3,0.7-0.5,1.2-0.5s0.8,0.2,1.2,0.5c0.3,0.3,0.5,0.7,0.5,1.2s-0.2,0.8-0.5,1.2C126.9,159.4,126.6,159.6,126.1,159.6z"/>
						<path class="st3" d="M133.6,160.8v0.9c0.9-1.1,2-1.6,3.1-1.6c1.2,0,2.1,0.5,2.6,1.4c0.3,0.5,0.4,1.2,0.4,2.3v2.7
							c0,0.6,0.1,0.9,0.4,0.9c0.1,0,0.1,0,0.3-0.1c0.1,0,0.2,0,0.3,0c0.5,0,0.8,0.3,0.8,0.9c0,0.8-0.4,1.2-1.1,1.2
							c-0.2,0-0.5,0-0.9-0.1s-0.7-0.1-0.9-0.1c-0.3,0-0.6,0-1,0.1s-0.6,0.1-0.8,0.1c-0.7,0-1.1-0.4-1.1-1.1c0-0.6,0.2-1,0.7-1
							c0.3,0,0.5-0.2,0.5-0.5v-2.5c0-0.7-0.1-1.2-0.3-1.5c-0.2-0.3-0.5-0.4-0.9-0.4c-0.5,0-0.9,0.2-1.2,0.5
							c-0.3,0.3-0.5,0.8-0.5,1.3v1.9c0,0.5,0,0.9,0.1,1c0,0.1,0.2,0.2,0.4,0.2c0.4,0.1,0.6,0.4,0.6,1c0,0.8-0.3,1.1-1,1.1
							c-0.2,0-0.4,0-0.7-0.1c-0.4-0.1-0.8-0.1-1-0.1s-0.5,0-1,0.1c-0.4,0-0.7,0.1-1,0.1c-0.8,0-1.1-0.4-1.1-1.2c0-0.7,0.3-1,0.9-1
							c0.1,0,0.2,0,0.3,0.1s0.2,0.1,0.3,0.1c0.2,0,0.3-0.3,0.3-1v-2.9c0-0.7-0.1-1-0.3-1c0,0-0.1,0-0.3,0.1c-0.1,0-0.2,0.1-0.3,0.1
							c-0.6,0-0.9-0.3-0.9-1c0-0.4,0.1-0.7,0.3-0.9c0.2-0.2,0.5-0.3,0.8-0.3c0.1,0,0.3,0,0.6,0.1c0.2,0,0.3,0.1,0.5,0.1
							c0.1,0,0.4,0,0.7-0.1c0.3,0,0.5-0.1,0.6-0.1C133.4,160.3,133.6,160.4,133.6,160.8z"/>
						<path class="st3" d="M147.4,163.1c0-0.2,0.1-0.4,0.2-0.5c-0.3-0.2-0.6-0.3-0.9-0.3c-0.5,0-1,0.2-1.3,0.7
							c-0.3,0.4-0.5,1-0.5,1.8c0,0.8,0.2,1.4,0.5,1.8c0.3,0.5,0.8,0.7,1.4,0.7c0.6,0,1-0.3,1.3-1c0.2-0.4,0.3-0.6,0.4-0.8
							c0.2-0.1,0.4-0.2,0.8-0.2c0.4,0,0.7,0.1,1,0.4s0.4,0.6,0.4,0.9c0,0.8-0.4,1.5-1.2,2.1c-0.8,0.6-1.7,0.9-2.8,0.9
							c-1.4,0-2.5-0.4-3.4-1.3s-1.3-2-1.3-3.5c0-1.5,0.4-2.6,1.3-3.5c0.9-0.9,2-1.3,3.5-1.3c1.1,0,1.9,0.2,2.6,0.7
							c0.7,0.5,1,1.1,1,1.9c0,0.5-0.2,0.9-0.5,1.2c-0.3,0.3-0.7,0.4-1.2,0.4c-0.4,0-0.7-0.1-1-0.3S147.4,163.5,147.4,163.1z"/>
						<path class="st3" d="M155.3,160.3c0.3,0,0.5,0.2,0.5,0.7v5.4c0,0.6,0.1,0.9,0.3,0.9c0,0,0.1,0,0.3,0c0.1,0,0.2,0,0.3,0
							c0.5,0,0.8,0.3,0.8,0.9c0,0.8-0.4,1.2-1.1,1.2c-0.1,0-0.5,0-1-0.1c-0.3,0-0.7-0.1-1.2-0.1c-0.2,0-0.5,0-1,0.1
							s-0.7,0.1-0.9,0.1c-0.3,0-0.6-0.1-0.8-0.3c-0.2-0.2-0.3-0.5-0.3-0.9c0-0.7,0.3-1,0.9-1l0.5,0.1c0,0,0.1,0,0.1,0
							c0.2,0,0.3-0.3,0.3-1v-2.9c0-0.7-0.1-1-0.3-1c0,0-0.1,0-0.3,0.1c-0.1,0-0.2,0-0.3,0c-0.6,0-0.9-0.3-0.9-1
							c0-0.4,0.1-0.7,0.3-0.9c0.2-0.2,0.5-0.3,0.8-0.3c0.1,0,0.3,0,0.6,0.1c0.4,0.1,0.8,0.1,1,0.1c0.2,0,0.5,0,0.8-0.1
							S155.3,160.3,155.3,160.3z M154.3,159.6c-0.4,0-0.8-0.2-1.2-0.5c-0.3-0.3-0.5-0.7-0.5-1.2c0-0.5,0.2-0.8,0.5-1.2
							c0.3-0.3,0.7-0.5,1.2-0.5s0.8,0.2,1.2,0.5c0.3,0.3,0.5,0.7,0.5,1.2s-0.2,0.8-0.5,1.2C155.1,159.4,154.7,159.6,154.3,159.6z"/>
						<path class="st3" d="M161.8,160.1c0.9,0,1.8,0.4,2.5,1.1v-1.3c0-0.4-0.2-0.6-0.5-0.6c-0.1,0-0.2,0-0.4,0
							c-0.2,0-0.3,0.1-0.5,0.1c-0.2,0-0.4-0.1-0.6-0.3c-0.2-0.2-0.2-0.4-0.2-0.7c0-0.8,0.4-1.2,1.2-1.2c0.3,0,0.5,0,0.6,0
							c0.5,0,0.8,0.1,1,0.1c0.2,0,0.4,0,0.7,0c0.3,0,0.5,0,0.7,0c0.3,0,0.5,0.1,0.6,0.2c0.1,0.1,0.2,0.4,0.2,0.8v8.2
							c0,0.6,0.1,0.9,0.3,0.9c0.1,0,0.2,0,0.3-0.1c0.1,0,0.2,0,0.3,0c0.5,0,0.8,0.3,0.8,0.9c0,0.4-0.1,0.7-0.3,0.9
							c-0.2,0.2-0.4,0.4-0.7,0.4h-0.1l-0.6-0.1c-0.1,0-0.3,0-0.6,0c-0.3,0-0.6,0-0.8,0c-0.3,0-0.5,0.1-0.5,0.1
							c-0.4,0-0.6-0.2-0.6-0.6V168c-0.6,1.1-1.6,1.6-2.8,1.6c-1.1,0-2-0.5-2.7-1.4c-0.7-0.9-1.1-2-1.1-3.4c0-1.4,0.4-2.5,1.1-3.4
							C159.8,160.6,160.7,160.1,161.8,160.1z M162.5,162.4c-0.4,0-0.8,0.2-1.1,0.6s-0.4,1-0.5,1.7v0.2c0,0.7,0.1,1.3,0.4,1.7
							s0.7,0.6,1.1,0.6c0.5,0,1-0.2,1.3-0.7s0.5-1.1,0.5-1.8c0-0.7-0.2-1.3-0.5-1.8C163.4,162.6,163,162.4,162.5,162.4z"/>
						<path class="st3" d="M176.4,168.8v-0.7c-0.8,1-1.8,1.5-3.2,1.5c-0.6,0-1.1-0.1-1.5-0.4c-0.5-0.2-0.8-0.6-1-1
							c-0.2-0.4-0.3-1.1-0.3-2.2v-2.8c0-0.4,0-0.7-0.1-0.7c-0.1-0.1-0.1-0.1-0.3-0.1H170c0,0-0.1,0-0.2,0c-0.5,0-0.8-0.3-0.8-1
							c0-0.8,0.4-1.2,1.1-1.2c0.1,0,0.4,0,0.7,0.1s0.5,0.1,0.7,0.1c0.1,0,0.4,0,0.6-0.1s0.5-0.1,0.6-0.1c0.4,0,0.5,0.3,0.5,0.8
							l0,4.8c0,0.9,0.4,1.4,1.1,1.4c1.1,0,1.6-0.8,1.6-2.2v-1.7c0-0.6-0.1-0.9-0.4-0.9c-0.1,0-0.2,0-0.3,0c-0.1,0-0.2,0-0.3,0
							c-0.4,0-0.7-0.3-0.7-1c0-0.8,0.3-1.2,1-1.2c0.2,0,0.4,0,0.7,0.1c0.3,0,0.6,0.1,0.7,0.1c0,0,0.3,0,0.8-0.1
							c0.3,0,0.5-0.1,0.6-0.1c0.4,0,0.6,0.2,0.6,0.6v5.5c0,0.6,0.1,0.9,0.3,0.9c0.1,0,0.2,0,0.3,0c0.1,0,0.2,0,0.3,0
							c0.5,0,0.8,0.3,0.8,0.9c0,0.8-0.4,1.2-1.1,1.2c-0.1,0-0.4,0-0.6-0.1c-0.3,0-0.5-0.1-0.6-0.1c-0.1,0-0.3,0-0.6,0.1
							c-0.3,0-0.5,0.1-0.6,0.1C176.6,169.4,176.4,169.2,176.4,168.8z"/>
						<path class="st3" d="M184.7,160.8v0.9c0.9-1.1,2-1.6,3.1-1.6c1.2,0,2.1,0.5,2.6,1.4c0.3,0.5,0.4,1.2,0.4,2.3v2.7
							c0,0.6,0.1,0.9,0.4,0.9c0.1,0,0.1,0,0.3-0.1c0.1,0,0.2,0,0.3,0c0.5,0,0.8,0.3,0.8,0.9c0,0.8-0.4,1.2-1.1,1.2
							c-0.2,0-0.5,0-0.9-0.1s-0.7-0.1-0.9-0.1c-0.3,0-0.6,0-1,0.1s-0.6,0.1-0.8,0.1c-0.7,0-1.1-0.4-1.1-1.1c0-0.6,0.2-1,0.7-1
							c0.3,0,0.5-0.2,0.5-0.5v-2.5c0-0.7-0.1-1.2-0.3-1.5c-0.2-0.3-0.5-0.4-0.9-0.4c-0.5,0-0.9,0.2-1.2,0.5
							c-0.3,0.3-0.5,0.8-0.5,1.3v1.9c0,0.5,0,0.9,0.1,1c0,0.1,0.2,0.2,0.4,0.2c0.4,0.1,0.6,0.4,0.6,1c0,0.8-0.3,1.1-1,1.1
							c-0.2,0-0.4,0-0.7-0.1c-0.4-0.1-0.8-0.1-1-0.1s-0.5,0-1,0.1c-0.4,0-0.7,0.1-1,0.1c-0.8,0-1.1-0.4-1.1-1.2c0-0.7,0.3-1,0.9-1
							c0.1,0,0.2,0,0.3,0.1s0.2,0.1,0.3,0.1c0.2,0,0.3-0.3,0.3-1v-2.9c0-0.7-0.1-1-0.3-1c0,0-0.1,0-0.3,0.1c-0.1,0-0.2,0.1-0.3,0.1
							c-0.6,0-0.9-0.3-0.9-1c0-0.4,0.1-0.7,0.3-0.9c0.2-0.2,0.5-0.3,0.8-0.3c0.1,0,0.3,0,0.6,0.1c0.2,0,0.3,0.1,0.5,0.1
							c0.1,0,0.4,0,0.7-0.1c0.3,0,0.5-0.1,0.6-0.1C184.5,160.3,184.7,160.4,184.7,160.8z"/>
						<path class="st3" d="M196.9,162.7v0.7l0,1.1l0,1.2c0,0.4,0,0.6,0,0.5c0,0.7,0.2,1.1,0.7,1.1c0.4,0,0.6-0.3,0.6-1
							c0-0.1,0-0.2,0-0.2c0-0.1,0-0.1,0-0.2c0-0.1,0-0.1,0-0.2c0-0.6,0.3-1,1-1c0.8,0,1.1,0.6,1.1,1.8c0,0.9-0.3,1.7-0.8,2.2
							c-0.6,0.5-1.3,0.8-2.4,0.8c-2,0-3-1-3-3.1c0-0.3,0-0.8,0-1.5c0-0.7,0-1.2,0-1.5v-0.6c0-0.3,0-0.5-0.1-0.6
							c-0.1-0.1-0.2-0.1-0.4-0.1h-0.3c-0.2,0-0.4-0.1-0.6-0.3c-0.1-0.2-0.2-0.4-0.2-0.7c0-0.3,0.1-0.5,0.2-0.7
							c0.2-0.2,0.3-0.3,0.5-0.3h0.3c0.3,0,0.5-0.1,0.5-0.3c0-0.1,0.1-0.3,0.1-0.5v-0.9c0-0.4,0.1-0.7,0.3-0.9
							c0.2-0.2,0.6-0.2,1.2-0.2c0.4,0,0.7,0.1,0.9,0.2s0.2,0.4,0.2,0.8v1c0,0.3,0,0.6,0.1,0.6c0.1,0.1,0.2,0.1,0.5,0.1h1.3
							c0.7,0,1.1,0.3,1.1,1c0,0.6-0.3,1-1,1h-1.5c-0.3,0-0.4,0-0.5,0.1S196.9,162.5,196.9,162.7z"/>
						<path class="st3" d="M212.4,168.8v-0.7c-0.8,1-1.8,1.5-3.2,1.5c-0.6,0-1.1-0.1-1.5-0.4c-0.5-0.2-0.8-0.6-1-1
							c-0.2-0.4-0.3-1.1-0.3-2.2v-2.8c0-0.4,0-0.7-0.1-0.7c-0.1-0.1-0.1-0.1-0.3-0.1h-0.2c0,0-0.1,0-0.2,0c-0.5,0-0.8-0.3-0.8-1
							c0-0.8,0.4-1.2,1.1-1.2c0.1,0,0.4,0,0.7,0.1s0.5,0.1,0.7,0.1c0.1,0,0.4,0,0.6-0.1s0.5-0.1,0.6-0.1c0.4,0,0.5,0.3,0.5,0.8
							l0,4.8c0,0.9,0.4,1.4,1.1,1.4c1.1,0,1.6-0.8,1.6-2.2v-1.7c0-0.6-0.1-0.9-0.4-0.9c-0.1,0-0.2,0-0.3,0c-0.1,0-0.2,0-0.3,0
							c-0.4,0-0.7-0.3-0.7-1c0-0.8,0.3-1.2,1-1.2c0.2,0,0.4,0,0.7,0.1c0.3,0,0.6,0.1,0.7,0.1c0,0,0.3,0,0.8-0.1
							c0.3,0,0.5-0.1,0.6-0.1c0.4,0,0.6,0.2,0.6,0.6v5.5c0,0.6,0.1,0.9,0.3,0.9c0.1,0,0.2,0,0.3,0c0.1,0,0.2,0,0.3,0
							c0.5,0,0.8,0.3,0.8,0.9c0,0.8-0.4,1.2-1.1,1.2c-0.1,0-0.4,0-0.6-0.1c-0.3,0-0.5-0.1-0.6-0.1c-0.1,0-0.3,0-0.6,0.1
							c-0.3,0-0.5,0.1-0.6,0.1C212.6,169.4,212.4,169.2,212.4,168.8z"/>
						<path class="st3" d="M220.7,162.7v0.7l0,1.1l0,1.2c0,0.4,0,0.6,0,0.5c0,0.7,0.2,1.1,0.7,1.1c0.4,0,0.6-0.3,0.6-1
							c0-0.1,0-0.2,0-0.2c0-0.1,0-0.1,0-0.2c0-0.1,0-0.1,0-0.2c0-0.6,0.3-1,1-1c0.8,0,1.1,0.6,1.1,1.8c0,0.9-0.3,1.7-0.8,2.2
							c-0.6,0.5-1.3,0.8-2.4,0.8c-2,0-3-1-3-3.1c0-0.3,0-0.8,0-1.5c0-0.7,0-1.2,0-1.5v-0.6c0-0.3,0-0.5-0.1-0.6
							c-0.1-0.1-0.2-0.1-0.4-0.1h-0.3c-0.2,0-0.4-0.1-0.6-0.3c-0.1-0.2-0.2-0.4-0.2-0.7c0-0.3,0.1-0.5,0.2-0.7
							c0.2-0.2,0.3-0.3,0.5-0.3h0.3c0.3,0,0.5-0.1,0.5-0.3c0-0.1,0.1-0.3,0.1-0.5v-0.9c0-0.4,0.1-0.7,0.3-0.9
							c0.2-0.2,0.6-0.2,1.2-0.2c0.4,0,0.7,0.1,0.9,0.2s0.2,0.4,0.2,0.8v1c0,0.3,0,0.6,0.1,0.6c0.1,0.1,0.2,0.1,0.5,0.1h1.3
							c0.7,0,1.1,0.3,1.1,1c0,0.6-0.3,1-1,1h-1.5c-0.3,0-0.4,0-0.5,0.1S220.7,162.5,220.7,162.7z"/>
						<path class="st3" d="M232.9,157.2c0.3,0,0.5,0.2,0.5,0.7v8.5c0,0.6,0.1,0.9,0.4,0.9c0.1,0,0.2,0,0.3,0c0.1,0,0.2,0,0.3,0
							c0.5,0,0.8,0.3,0.8,0.9c0,0.8-0.4,1.2-1.1,1.2c0,0-0.5,0-1.4-0.1c-0.3,0-0.6,0-0.9,0c-0.3,0-0.5,0-0.8,0.1
							c-0.5,0.1-0.8,0.1-1,0.1c-0.3,0-0.6-0.1-0.8-0.3c-0.2-0.2-0.3-0.5-0.3-0.9c0-0.7,0.3-1,0.9-1c0.1,0,0.2,0,0.3,0.1
							s0.2,0.1,0.3,0.1c0.2,0,0.3-0.3,0.3-1v-6c0-0.7-0.1-1-0.3-1c-0.1,0-0.2,0-0.3,0.1c-0.1,0-0.2,0-0.3,0c-0.6,0-0.9-0.3-0.9-1
							c0-0.4,0.1-0.7,0.3-0.9s0.5-0.3,0.8-0.3c0.1,0,0.3,0,0.6,0.1c0.4,0,0.7,0.1,0.9,0.1c0.3,0,0.5,0,0.7-0.1
							C232.6,157.2,232.8,157.2,232.9,157.2z"/>
						<path class="st3" d="M38.5,185c1.1,0,1.9,0.4,2.6,1.3v-0.5c0-0.5,0.4-0.7,1.2-0.7c0.9,0,1.4,0.3,1.4,0.9v8.5
							c0,0.6,0.1,0.8,0.4,0.8c0.1,0,0.2,0,0.3-0.1c0,0,0.1,0,0.2,0c0.5,0,0.7,0.3,0.7,0.9c0,0.9-0.4,1.3-1.1,1.3c-0.2,0-0.6,0-1-0.1
							c-0.5-0.1-0.8-0.1-1-0.1c-0.3,0-0.7,0-1.3,0.1c-0.6,0.1-1,0.1-1.3,0.1c-0.6,0-1-0.4-1-1.1c0-0.6,0.3-0.9,0.9-0.9
							c0.1,0,0.2,0,0.4,0c0.2,0,0.3,0,0.4,0c0.2,0,0.3-0.1,0.4-0.2c0-0.1,0-0.2,0-0.5v-1.4c-0.6,0.7-1.4,1.1-2.4,1.1
							c-1.1,0-2-0.4-2.7-1.3c-0.7-0.9-1-2-1-3.4c0-1.5,0.3-2.6,1-3.5C36.5,185.4,37.4,185,38.5,185z M39.4,187.3
							c-0.5,0-0.9,0.2-1.2,0.7c-0.3,0.4-0.4,1-0.4,1.8c0,0.7,0.1,1.3,0.4,1.8s0.7,0.7,1.1,0.7c0.5,0,0.9-0.2,1.2-0.7
							c0.3-0.4,0.4-1,0.4-1.8c0-0.8-0.1-1.4-0.4-1.8C40.2,187.5,39.9,187.3,39.4,187.3z"/>
						<path class="st3" d="M52.1,193.8v-0.7c-0.8,1-1.8,1.5-3.2,1.5c-0.6,0-1.1-0.1-1.5-0.4c-0.5-0.2-0.8-0.6-1-1
							c-0.2-0.4-0.3-1.1-0.3-2.2v-2.8c0-0.4,0-0.7-0.1-0.7c-0.1-0.1-0.1-0.1-0.3-0.1h-0.2c0,0-0.1,0-0.2,0c-0.5,0-0.8-0.3-0.8-1
							c0-0.8,0.4-1.2,1.1-1.2c0.1,0,0.4,0,0.7,0.1s0.5,0.1,0.7,0.1c0.1,0,0.4,0,0.6-0.1s0.5-0.1,0.6-0.1c0.4,0,0.5,0.3,0.5,0.8
							l0,4.8c0,0.9,0.4,1.4,1.1,1.4c1.1,0,1.6-0.8,1.6-2.2v-1.7c0-0.6-0.1-0.9-0.4-0.9c-0.1,0-0.2,0-0.3,0c-0.1,0-0.2,0-0.3,0
							c-0.4,0-0.7-0.3-0.7-1c0-0.8,0.3-1.2,1-1.2c0.2,0,0.4,0,0.7,0.1c0.3,0,0.6,0.1,0.7,0.1c0,0,0.3,0,0.8-0.1
							c0.3,0,0.5-0.1,0.6-0.1c0.4,0,0.6,0.2,0.6,0.6v5.5c0,0.6,0.1,0.9,0.3,0.9c0.1,0,0.2,0,0.3,0c0.1,0,0.2,0,0.3,0
							c0.5,0,0.8,0.3,0.8,0.9c0,0.8-0.4,1.2-1.1,1.2c-0.1,0-0.4,0-0.6-0.1c-0.3,0-0.5-0.1-0.6-0.1c-0.1,0-0.3,0-0.6,0.1
							c-0.3,0-0.5,0.1-0.6,0.1C52.3,194.4,52.1,194.2,52.1,193.8z"/>
						<path class="st3" d="M64.7,194.6c-1,0-1.6-0.4-2-1.2c-0.8,0.8-1.8,1.2-3,1.2c-0.9,0-1.7-0.2-2.3-0.7c-0.6-0.5-0.8-1.2-0.8-2
							c0-1.3,0.5-2.1,1.6-2.4c0.5-0.2,1-0.3,1.6-0.4c0.9-0.1,1.4-0.3,1.7-0.5c0.3-0.2,0.5-0.5,0.5-0.9c0-0.3-0.1-0.5-0.4-0.7
							c-0.2-0.2-0.5-0.3-0.9-0.3c-0.4,0-0.6,0.1-0.6,0.4c0,0.1,0,0.2,0,0.3v0.1c0,0.3-0.1,0.6-0.4,0.8c-0.3,0.2-0.6,0.3-1.1,0.3
							c-0.5,0-0.9-0.1-1.2-0.4c-0.3-0.3-0.5-0.6-0.5-1.1c0-0.6,0.3-1.2,1-1.5c0.7-0.4,1.6-0.6,2.8-0.6c1.3,0,2.3,0.2,2.9,0.6
							c0.7,0.4,1,1.2,1,2.4v3.7c0,0.4,0.1,0.6,0.3,0.6c0.1,0,0.2,0,0.3,0c0,0,0.1,0,0.1,0c0.3,0,0.5,0.1,0.7,0.3
							c0.2,0.2,0.3,0.4,0.3,0.7c0,0.4-0.2,0.7-0.5,1C65.7,194.5,65.3,194.6,64.7,194.6z M62.1,190.8v-0.4c-0.1,0-0.6,0.2-1.6,0.5
							c-0.7,0.2-1,0.4-1,0.8c0,0.6,0.3,0.8,1,0.8C61.6,192.4,62.1,191.9,62.1,190.8z"/>
						<path class="st3" d="M70.9,185.8v0.8c0.9-1.1,1.9-1.6,3-1.6c0.9,0,1.7,0.5,2.3,1.4c0.6-0.5,1.1-0.9,1.5-1.1
							c0.4-0.2,0.9-0.3,1.5-0.3c1.1,0,2,0.4,2.6,1.1c0.4,0.5,0.6,1.3,0.6,2.5v2.8c0,0.6,0.1,0.9,0.3,0.9c0.1,0,0.2,0,0.3-0.1
							c0.1,0,0.2,0,0.3,0c0.5,0,0.8,0.3,0.8,0.9c0,0.4-0.1,0.7-0.3,0.9c-0.2,0.2-0.4,0.3-0.8,0.3c0,0-0.2,0-0.5-0.1l-0.4-0.1
							c-0.2,0-0.4,0-0.8,0c-0.4,0-0.8,0-1.1,0.1s-0.6,0.1-0.8,0.1c-0.3,0-0.5-0.1-0.7-0.3c-0.2-0.2-0.3-0.5-0.3-0.8
							c0-0.6,0.2-0.9,0.7-1c0.2,0,0.4-0.1,0.4-0.2c0-0.1,0.1-0.4,0.1-0.8v-1.9c0-0.8-0.1-1.3-0.2-1.6c-0.2-0.3-0.5-0.4-0.9-0.4
							c-1,0-1.5,0.7-1.5,2.2v1.7c0,0.4,0,0.7,0.1,0.8c0,0.1,0.1,0.2,0.3,0.2c0.4,0.1,0.6,0.4,0.6,0.9c0,0.8-0.3,1.2-1,1.2
							c-0.1,0-0.3,0-0.6-0.1c-0.4-0.1-0.7-0.1-0.8-0.1c-0.1,0-0.4,0-0.6,0.1s-0.5,0.1-0.6,0.1c-0.6,0-0.9-0.4-0.9-1.1
							c0-0.5,0.2-0.9,0.6-1c0.2,0,0.3-0.2,0.3-0.4c0-0.3,0-0.5,0-0.6v-2c0-0.7-0.1-1.2-0.2-1.4s-0.5-0.4-0.9-0.4
							c-1.1,0-1.6,0.7-1.6,2.2v2.2c0,0.2,0,0.3,0.1,0.4c0,0.1,0.2,0.1,0.4,0.1c0.5,0.1,0.7,0.4,0.7,0.9c0,0.8-0.3,1.2-1,1.2
							c-0.2,0-0.5,0-0.9-0.1s-0.7-0.1-0.9-0.1c-0.3,0-0.6,0-0.8,0.1c-0.5,0.1-0.8,0.1-0.9,0.1c-0.3,0-0.6-0.1-0.8-0.3
							c-0.2-0.2-0.3-0.5-0.3-0.9c0-0.7,0.3-1,0.9-1c0.1,0,0.2,0,0.3,0.1s0.2,0.1,0.3,0.1c0.2,0,0.3-0.3,0.3-1v-2.9
							c0-0.7-0.1-1-0.3-1c0,0-0.1,0-0.3,0.1c-0.1,0-0.2,0.1-0.3,0.1c-0.6,0-0.9-0.3-0.9-1c0-0.3,0.1-0.6,0.3-0.9
							c0.2-0.2,0.5-0.3,0.8-0.3c0.1,0,0.3,0,0.6,0.1c0.2,0,0.4,0.1,0.5,0.1c0.1,0,0.4,0,0.6-0.1s0.5-0.1,0.6-0.1
							C70.7,185.3,70.9,185.4,70.9,185.8z"/>
						<path class="st3" d="M97.8,189c0,0.5-0.1,0.8-0.2,1c-0.1,0.2-0.4,0.3-0.7,0.3h-4.4c-0.2,0-0.4,0-0.4,0.1s-0.1,0.1-0.1,0.3
							c0,0.5,0.2,0.9,0.5,1.3c0.3,0.3,0.7,0.5,1.2,0.5c0.5,0,1-0.3,1.5-0.8c0.4-0.4,0.8-0.6,1.2-0.6c0.4,0,0.7,0.1,0.9,0.3
							c0.2,0.2,0.3,0.5,0.3,0.8c0,0.7-0.4,1.3-1.1,1.8c-0.8,0.5-1.7,0.7-2.8,0.7c-1.4,0-2.6-0.4-3.4-1.3c-0.9-0.9-1.3-2-1.3-3.5
							c0-1.5,0.4-2.6,1.3-3.5c0.8-0.9,2-1.3,3.3-1.3c1.3,0,2.3,0.4,3.1,1.1C97.4,186.8,97.8,187.8,97.8,189z M92.1,188.1
							c0,0.1,0,0.1,0.1,0.2c0,0,0.2,0.1,0.4,0.1h2c0.2,0,0.3,0,0.3-0.1s0.1-0.1,0.1-0.2c0-0.3-0.1-0.6-0.4-0.8
							c-0.3-0.2-0.6-0.4-1-0.4c-0.5,0-0.9,0.2-1.2,0.6C92.2,187.7,92.1,187.9,92.1,188.1z"/>
						<path class="st3" d="M102.6,185.8v1.5c0.2-0.6,0.4-1.1,0.6-1.4c0.5-0.7,1.3-1,2.2-1c0.7,0,1.2,0.2,1.7,0.6
							c0.5,0.4,0.7,1,0.7,1.6c0,0.5-0.1,0.9-0.4,1.2c-0.3,0.3-0.7,0.5-1.1,0.5c-0.3,0-0.6-0.1-0.9-0.3c-0.2-0.2-0.4-0.5-0.4-0.8
							c0-0.2,0.1-0.4,0.2-0.7h-0.1c-0.8,0-1.3,0.4-1.6,1.3c-0.2,0.7-0.3,1.5-0.3,2.4v0.7c0,0.4,0,0.7,0.1,0.8c0,0.1,0.1,0.1,0.3,0.1
							c0.1,0,0.3,0,0.5-0.1c0.2,0,0.3-0.1,0.4-0.1c0.3,0,0.5,0.1,0.7,0.3c0.2,0.2,0.3,0.4,0.3,0.7c0,0.3-0.1,0.6-0.4,0.9
							c-0.2,0.2-0.5,0.4-0.9,0.4c-0.2,0-0.5,0-1-0.1c-0.3,0-0.7-0.1-1.1-0.1s-0.9,0-1.2,0.1c-0.6,0.1-0.9,0.1-1.1,0.1
							c-0.7,0-1.1-0.4-1.1-1.2c0-0.7,0.3-1,0.9-1c0.1,0,0.2,0,0.3,0.1s0.2,0.1,0.3,0.1c0.2,0,0.3-0.3,0.3-1v-2.9c0-0.7-0.1-1-0.3-1
							c0,0-0.1,0-0.3,0.1c-0.1,0-0.2,0.1-0.3,0.1c-0.6,0-0.9-0.3-0.9-1c0-0.4,0.1-0.7,0.3-0.9c0.2-0.2,0.4-0.3,0.7-0.3
							c0.1,0,0.3,0,0.5,0.1s0.4,0.1,0.6,0.1c0.1,0,0.4,0,0.6-0.1s0.5-0.1,0.6-0.1C102.4,185.3,102.6,185.4,102.6,185.8z"/>
						<path class="st3" d="M116.1,194.6c-1,0-1.6-0.4-2-1.2c-0.8,0.8-1.8,1.2-3,1.2c-0.9,0-1.7-0.2-2.3-0.7c-0.6-0.5-0.8-1.2-0.8-2
							c0-1.3,0.5-2.1,1.6-2.4c0.5-0.2,1-0.3,1.6-0.4c0.9-0.1,1.4-0.3,1.7-0.5c0.3-0.2,0.5-0.5,0.5-0.9c0-0.3-0.1-0.5-0.4-0.7
							c-0.2-0.2-0.5-0.3-0.9-0.3c-0.4,0-0.6,0.1-0.6,0.4c0,0.1,0,0.2,0,0.3v0.1c0,0.3-0.1,0.6-0.4,0.8c-0.3,0.2-0.6,0.3-1.1,0.3
							c-0.5,0-0.9-0.1-1.2-0.4c-0.3-0.3-0.5-0.6-0.5-1.1c0-0.6,0.3-1.2,1-1.5c0.7-0.4,1.6-0.6,2.8-0.6c1.3,0,2.3,0.2,2.9,0.6
							c0.7,0.4,1,1.2,1,2.4v3.7c0,0.4,0.1,0.6,0.3,0.6c0.1,0,0.2,0,0.3,0c0,0,0.1,0,0.1,0c0.3,0,0.5,0.1,0.7,0.3
							c0.2,0.2,0.3,0.4,0.3,0.7c0,0.4-0.2,0.7-0.5,1C117.1,194.5,116.7,194.6,116.1,194.6z M113.5,190.8v-0.4
							c-0.1,0-0.6,0.2-1.6,0.5c-0.7,0.2-1,0.4-1,0.8c0,0.6,0.3,0.8,1,0.8C113,192.4,113.5,191.9,113.5,190.8z"/>
						<path class="st3" d="M122.3,187.7v0.7l0,1.1l0,1.2c0,0.4,0,0.6,0,0.5c0,0.7,0.2,1.1,0.7,1.1c0.4,0,0.6-0.3,0.6-1
							c0-0.1,0-0.2,0-0.2c0-0.1,0-0.1,0-0.2c0-0.1,0-0.1,0-0.2c0-0.6,0.3-1,1-1c0.8,0,1.1,0.6,1.1,1.8c0,0.9-0.3,1.7-0.8,2.2
							c-0.6,0.5-1.3,0.8-2.4,0.8c-2,0-3-1-3-3.1c0-0.3,0-0.8,0-1.5c0-0.7,0-1.2,0-1.5v-0.6c0-0.3,0-0.5-0.1-0.6
							c-0.1-0.1-0.2-0.1-0.4-0.1h-0.3c-0.2,0-0.4-0.1-0.6-0.3c-0.1-0.2-0.2-0.4-0.2-0.7c0-0.3,0.1-0.5,0.2-0.7
							c0.2-0.2,0.3-0.3,0.5-0.3h0.3c0.3,0,0.5-0.1,0.5-0.3c0-0.1,0.1-0.3,0.1-0.5v-0.9c0-0.4,0.1-0.7,0.3-0.9
							c0.2-0.2,0.6-0.2,1.2-0.2c0.4,0,0.7,0.1,0.9,0.2s0.2,0.4,0.2,0.8v1c0,0.3,0,0.6,0.1,0.6c0.1,0.1,0.2,0.1,0.5,0.1h1.3
							c0.7,0,1.1,0.3,1.1,1c0,0.6-0.3,1-1,1h-1.5c-0.3,0-0.4,0-0.5,0.1S122.3,187.5,122.3,187.7z"/>
						<path class="st3" d="M135.1,188.3l1.2,4l1.3-4c0-0.1,0.1-0.2,0.1-0.4c0-0.1,0.1-0.2,0.1-0.3c0-0.2-0.2-0.3-0.5-0.3
							c-0.5-0.1-0.7-0.4-0.7-1c0-0.7,0.3-1,1-1c0.2,0,0.5,0,1,0.1c0.4,0,0.7,0.1,1,0.1c0.3,0,0.7,0,1-0.1c0.3,0,0.6-0.1,0.7-0.1
							c0.7,0,1.1,0.4,1.1,1.1c0,0.7-0.3,1.1-0.9,1.1c0,0-0.1,0-0.1,0c0,0-0.1,0-0.1,0c-0.1,0-0.2,0-0.2,0c-0.2,0-0.4,0.2-0.5,0.6
							c0,0.1-0.2,0.4-0.4,0.9l-1.5,4c-0.4,1-0.9,1.5-1.6,1.4l-0.8-0.1l-0.8,0.1c0,0,0,0-0.1,0c-0.6,0-1-0.4-1.2-1.1l-1.9-5.1
							c-0.1-0.4-0.2-0.6-0.3-0.7c-0.1-0.1-0.2-0.1-0.3-0.1c0,0,0,0-0.1,0c0,0-0.1,0-0.1,0c-0.1,0-0.2,0-0.3,0
							c-0.2,0-0.4-0.1-0.6-0.3c-0.2-0.2-0.2-0.4-0.2-0.7c0-0.8,0.4-1.2,1.1-1.2c0.2,0,0.5,0,0.8,0.1s0.6,0.1,0.8,0.1
							c0.3,0,0.7,0,1.3-0.1c0.4,0,0.6-0.1,0.8-0.1c0.6,0,1,0.3,1,1c0,0.6-0.2,1-0.7,1c-0.3,0-0.5,0.2-0.5,0.4
							C134.9,187.7,134.9,187.9,135.1,188.3z"/>
						<path class="st3" d="M147.3,194.6c-1.5,0-2.6-0.4-3.4-1.3c-0.8-0.8-1.2-2-1.2-3.5c0-1.5,0.4-2.7,1.2-3.5
							c0.8-0.8,1.9-1.3,3.4-1.3c1.4,0,2.6,0.4,3.4,1.3c0.8,0.8,1.2,2,1.2,3.5c0,1.5-0.4,2.7-1.2,3.6
							C149.9,194.2,148.7,194.6,147.3,194.6z M147.2,187.2c-0.5,0-0.9,0.2-1.3,0.7c-0.3,0.5-0.5,1.1-0.5,1.9c0,0.8,0.2,1.5,0.5,1.9
							c0.3,0.5,0.7,0.7,1.3,0.7c1.1,0,1.7-0.9,1.7-2.6C149,188.1,148.4,187.2,147.2,187.2z"/>
						<path class="st3" d="M156.5,182.2c0.3,0,0.5,0.2,0.5,0.7v8.5c0,0.6,0.1,0.9,0.4,0.9c0.1,0,0.2,0,0.3,0c0.1,0,0.2,0,0.3,0
							c0.5,0,0.8,0.3,0.8,0.9c0,0.8-0.4,1.2-1.1,1.2c0,0-0.5,0-1.4-0.1c-0.3,0-0.6,0-0.9,0c-0.3,0-0.5,0-0.8,0.1
							c-0.5,0.1-0.8,0.1-1,0.1c-0.3,0-0.6-0.1-0.8-0.3c-0.2-0.2-0.3-0.5-0.3-0.9c0-0.7,0.3-1,0.9-1c0.1,0,0.2,0,0.3,0.1
							s0.2,0.1,0.3,0.1c0.2,0,0.3-0.3,0.3-1v-6c0-0.7-0.1-1-0.3-1c-0.1,0-0.2,0-0.3,0.1c-0.1,0-0.2,0-0.3,0c-0.6,0-0.9-0.3-0.9-1
							c0-0.4,0.1-0.7,0.3-0.9s0.5-0.3,0.8-0.3c0.1,0,0.3,0,0.6,0.1c0.4,0,0.7,0.1,0.9,0.1c0.3,0,0.5,0,0.7-0.1
							C156.1,182.2,156.3,182.2,156.5,182.2z"/>
						<path class="st3" d="M166.3,193.8v-0.7c-0.8,1-1.8,1.5-3.2,1.5c-0.6,0-1.1-0.1-1.5-0.4c-0.5-0.2-0.8-0.6-1-1
							c-0.2-0.4-0.3-1.1-0.3-2.2v-2.8c0-0.4,0-0.7-0.1-0.7c-0.1-0.1-0.1-0.1-0.3-0.1h-0.2c0,0-0.1,0-0.2,0c-0.5,0-0.8-0.3-0.8-1
							c0-0.8,0.4-1.2,1.1-1.2c0.1,0,0.4,0,0.7,0.1s0.5,0.1,0.7,0.1c0.1,0,0.4,0,0.6-0.1s0.5-0.1,0.6-0.1c0.4,0,0.5,0.3,0.5,0.8
							l0,4.8c0,0.9,0.4,1.4,1.1,1.4c1.1,0,1.6-0.8,1.6-2.2v-1.7c0-0.6-0.1-0.9-0.4-0.9c-0.1,0-0.2,0-0.3,0c-0.1,0-0.2,0-0.3,0
							c-0.4,0-0.7-0.3-0.7-1c0-0.8,0.3-1.2,1-1.2c0.2,0,0.4,0,0.7,0.1c0.3,0,0.6,0.1,0.7,0.1c0,0,0.3,0,0.8-0.1
							c0.3,0,0.5-0.1,0.6-0.1c0.4,0,0.6,0.2,0.6,0.6v5.5c0,0.6,0.1,0.9,0.3,0.9c0.1,0,0.2,0,0.3,0c0.1,0,0.2,0,0.3,0
							c0.5,0,0.8,0.3,0.8,0.9c0,0.8-0.4,1.2-1.1,1.2c-0.1,0-0.4,0-0.6-0.1c-0.3,0-0.5-0.1-0.6-0.1c-0.1,0-0.3,0-0.6,0.1
							c-0.3,0-0.5,0.1-0.6,0.1C166.5,194.4,166.3,194.2,166.3,193.8z"/>
						<path class="st3" d="M174.7,187.7v0.7l0,1.1l0,1.2c0,0.4,0,0.6,0,0.5c0,0.7,0.2,1.1,0.7,1.1c0.4,0,0.6-0.3,0.6-1
							c0-0.1,0-0.2,0-0.2c0-0.1,0-0.1,0-0.2c0-0.1,0-0.1,0-0.2c0-0.6,0.3-1,1-1c0.8,0,1.1,0.6,1.1,1.8c0,0.9-0.3,1.7-0.8,2.2
							c-0.6,0.5-1.3,0.8-2.4,0.8c-2,0-3-1-3-3.1c0-0.3,0-0.8,0-1.5c0-0.7,0-1.2,0-1.5v-0.6c0-0.3,0-0.5-0.1-0.6
							c-0.1-0.1-0.2-0.1-0.4-0.1h-0.3c-0.2,0-0.4-0.1-0.6-0.3c-0.1-0.2-0.2-0.4-0.2-0.7c0-0.3,0.1-0.5,0.2-0.7
							c0.2-0.2,0.3-0.3,0.5-0.3h0.3c0.3,0,0.5-0.1,0.5-0.3c0-0.1,0.1-0.3,0.1-0.5v-0.9c0-0.4,0.1-0.7,0.3-0.9
							c0.2-0.2,0.6-0.2,1.2-0.2c0.4,0,0.7,0.1,0.9,0.2s0.2,0.4,0.2,0.8v1c0,0.3,0,0.6,0.1,0.6c0.1,0.1,0.2,0.1,0.5,0.1h1.3
							c0.7,0,1.1,0.3,1.1,1c0,0.6-0.3,1-1,1h-1.5c-0.3,0-0.4,0-0.5,0.1S174.7,187.5,174.7,187.7z"/>
						<path class="st3" d="M182.2,185.9v0.5c0.7-1,1.7-1.4,2.8-1.4c1.1,0,2,0.4,2.6,1.3c0.6,0.8,1,2,1,3.4c0,1.5-0.3,2.6-1,3.5
							s-1.5,1.3-2.7,1.3c-0.4,0-0.8-0.1-1.2-0.3c-0.2-0.1-0.6-0.3-1-0.7v1.4c0,0.4,0.1,0.6,0.4,0.6c0.1,0,0.3,0,0.4-0.1
							c0.2,0,0.4,0,0.5,0c0.6,0,0.8,0.3,0.8,0.9c0,0.7-0.4,1.1-1.1,1.1c-0.2,0-0.5,0-1-0.1c-0.6-0.1-1.1-0.1-1.6-0.1
							c-0.2,0-0.7,0-1.5,0.1c-0.1,0-0.3,0-0.3,0c-0.3,0-0.6-0.1-0.8-0.3c-0.2-0.2-0.3-0.5-0.3-0.9c0-0.7,0.3-1,0.9-1
							c0.1,0,0.2,0,0.3,0.1c0.2,0,0.3,0.1,0.3,0.1c0.2,0,0.3-0.3,0.3-1v-6c0-0.7-0.1-1-0.3-1c0,0-0.1,0-0.3,0.1c-0.1,0-0.2,0-0.3,0
							c-0.6,0-0.9-0.3-0.9-1c0-0.3,0.1-0.6,0.3-0.9c0.2-0.2,0.4-0.3,0.7-0.3h0.1l0.6,0.1c0.1,0,0.3,0,0.5,0c0.3,0,0.7,0,1-0.1
							c0.2,0,0.3,0,0.3,0C182,185.3,182.2,185.5,182.2,185.9z M184.2,187.3c-0.5,0-0.8,0.2-1.1,0.6c-0.3,0.4-0.4,1-0.4,1.8
							c0,0.8,0.1,1.4,0.4,1.8c0.3,0.4,0.6,0.7,1.1,0.7c0.5,0,0.8-0.2,1.1-0.7c0.3-0.4,0.4-1,0.4-1.8c0-0.7-0.1-1.3-0.4-1.8
							C185,187.5,184.6,187.3,184.2,187.3z"/>
						<path class="st3" d="M197.6,194.6c-1,0-1.6-0.4-2-1.2c-0.8,0.8-1.8,1.2-3,1.2c-0.9,0-1.7-0.2-2.3-0.7c-0.6-0.5-0.8-1.2-0.8-2
							c0-1.3,0.5-2.1,1.6-2.4c0.5-0.2,1-0.3,1.6-0.4c0.9-0.1,1.4-0.3,1.7-0.5c0.3-0.2,0.5-0.5,0.5-0.9c0-0.3-0.1-0.5-0.4-0.7
							c-0.2-0.2-0.5-0.3-0.9-0.3c-0.4,0-0.6,0.1-0.6,0.4c0,0.1,0,0.2,0,0.3v0.1c0,0.3-0.1,0.6-0.4,0.8c-0.3,0.2-0.6,0.3-1.1,0.3
							c-0.5,0-0.9-0.1-1.2-0.4c-0.3-0.3-0.5-0.6-0.5-1.1c0-0.6,0.3-1.2,1-1.5c0.7-0.4,1.6-0.6,2.8-0.6c1.3,0,2.3,0.2,2.9,0.6
							c0.7,0.4,1,1.2,1,2.4v3.7c0,0.4,0.1,0.6,0.3,0.6c0.1,0,0.2,0,0.3,0c0,0,0.1,0,0.1,0c0.3,0,0.5,0.1,0.7,0.3
							c0.2,0.2,0.3,0.4,0.3,0.7c0,0.4-0.2,0.7-0.5,1C198.6,194.5,198.2,194.6,197.6,194.6z M195,190.8v-0.4c-0.1,0-0.6,0.2-1.6,0.5
							c-0.7,0.2-1,0.4-1,0.8c0,0.6,0.3,0.8,1,0.8C194.5,192.4,195,191.9,195,190.8z"/>
						<path class="st3" d="M203.8,187.7v0.7l0,1.1l0,1.2c0,0.4,0,0.6,0,0.5c0,0.7,0.2,1.1,0.7,1.1c0.4,0,0.6-0.3,0.6-1
							c0-0.1,0-0.2,0-0.2c0-0.1,0-0.1,0-0.2c0-0.1,0-0.1,0-0.2c0-0.6,0.3-1,1-1c0.8,0,1.1,0.6,1.1,1.8c0,0.9-0.3,1.7-0.8,2.2
							c-0.6,0.5-1.3,0.8-2.4,0.8c-2,0-3-1-3-3.1c0-0.3,0-0.8,0-1.5c0-0.7,0-1.2,0-1.5v-0.6c0-0.3,0-0.5-0.1-0.6
							c-0.1-0.1-0.2-0.1-0.4-0.1h-0.3c-0.2,0-0.4-0.1-0.6-0.3c-0.1-0.2-0.2-0.4-0.2-0.7c0-0.3,0.1-0.5,0.2-0.7
							c0.2-0.2,0.3-0.3,0.5-0.3h0.3c0.3,0,0.5-0.1,0.5-0.3c0-0.1,0.1-0.3,0.1-0.5v-0.9c0-0.4,0.1-0.7,0.3-0.9
							c0.2-0.2,0.6-0.2,1.2-0.2c0.4,0,0.7,0.1,0.9,0.2s0.2,0.4,0.2,0.8v1c0,0.3,0,0.6,0.1,0.6c0.1,0.1,0.2,0.1,0.5,0.1h1.3
							c0.7,0,1.1,0.3,1.1,1c0,0.6-0.3,1-1,1h-1.5c-0.3,0-0.4,0-0.5,0.1S203.8,187.5,203.8,187.7z"/>
						<path class="st3" d="M210.3,194.6c-0.5,0-0.9-0.2-1.3-0.5c-0.4-0.4-0.5-0.8-0.5-1.3s0.2-0.9,0.5-1.3c0.4-0.4,0.8-0.5,1.3-0.5
							s0.9,0.2,1.3,0.5c0.4,0.4,0.5,0.8,0.5,1.3s-0.2,0.9-0.5,1.3C211.3,194.4,210.8,194.6,210.3,194.6z"/>
						<path class="st3" d="M230.4,185.6v0.8l0,1.6v0.6c0,1.3,0,2.1-0.1,2.4c-0.1,0.9-0.4,1.6-0.9,2.1c-0.9,1-2.4,1.5-4.3,1.5
							c-2,0-3.4-0.5-4.2-1.6c-0.5-0.6-0.8-1.6-0.8-2.8c0-0.1,0-0.8,0.1-2c0-0.8,0-1.5,0-2v-0.7c0-0.6-0.2-1-0.5-1
							c-0.1,0-0.2,0-0.4,0.1c-0.2,0-0.3,0.1-0.4,0.1c-0.3,0-0.5-0.1-0.7-0.3c-0.2-0.2-0.3-0.5-0.3-0.8c0-0.4,0.1-0.7,0.4-1
							c0.3-0.2,0.6-0.4,1-0.4c0.3,0,0.7,0,1.2,0.1c0.5,0.1,0.9,0.1,1.2,0.1c0.2,0,0.6,0,1-0.1c0.5-0.1,0.8-0.1,1-0.1
							c0.4,0,0.6,0.1,0.9,0.4c0.2,0.2,0.3,0.6,0.3,1c0,0.7-0.2,1.1-0.7,1.1h-0.2c-0.1,0-0.1,0-0.2,0c-0.2,0-0.3,0.1-0.4,0.4
							c0,0,0,0.2,0,0.6v4.1c0,0.8,0.1,1.4,0.4,1.8c0.3,0.3,0.8,0.5,1.4,0.5s1.2-0.2,1.5-0.5c0.3-0.4,0.5-0.9,0.5-1.7v-4.1
							c0-0.4,0-0.7-0.1-0.8c0-0.1-0.2-0.2-0.3-0.2c-0.1,0-0.2,0-0.2,0h-0.2c-0.5,0-0.7-0.4-0.7-1.1c0-0.4,0.1-0.7,0.3-1
							c0.2-0.2,0.5-0.4,0.9-0.4c0.2,0,0.6,0,1,0.1c0.5,0.1,0.8,0.1,1,0.1c0.3,0,0.7,0,1.2-0.1c0.5-0.1,0.9-0.1,1.2-0.1
							c0.4,0,0.7,0.1,1,0.4c0.2,0.2,0.4,0.6,0.4,1c0,0.3-0.1,0.6-0.3,0.8c-0.2,0.2-0.4,0.3-0.7,0.3c-0.1,0-0.2,0-0.4-0.1
							c-0.2,0-0.3-0.1-0.4-0.1C230.6,184.6,230.4,184.9,230.4,185.6z"/>
						<path class="st3" d="M39.1,213.3l1.2,4l1.3-4c0-0.1,0.1-0.2,0.1-0.4c0-0.1,0.1-0.2,0.1-0.3c0-0.2-0.2-0.3-0.5-0.3
							c-0.5-0.1-0.7-0.4-0.7-1c0-0.7,0.3-1,1-1c0.2,0,0.5,0,1,0.1c0.4,0,0.7,0.1,1,0.1c0.3,0,0.7,0,1-0.1c0.3,0,0.6-0.1,0.7-0.1
							c0.7,0,1.1,0.4,1.1,1.1c0,0.7-0.3,1.1-0.9,1.1c0,0-0.1,0-0.1,0c0,0-0.1,0-0.1,0c-0.1,0-0.2,0-0.2,0c-0.2,0-0.4,0.2-0.5,0.6
							c0,0.1-0.2,0.4-0.4,0.9l-1.5,4c-0.4,1-0.9,1.5-1.6,1.4l-0.8-0.1l-0.8,0.1c0,0,0,0-0.1,0c-0.6,0-1-0.4-1.2-1.1l-1.9-5.1
							c-0.1-0.4-0.2-0.6-0.3-0.7c-0.1-0.1-0.2-0.1-0.3-0.1c0,0,0,0-0.1,0c0,0-0.1,0-0.1,0c-0.1,0-0.2,0-0.3,0
							c-0.2,0-0.4-0.1-0.6-0.3c-0.2-0.2-0.2-0.4-0.2-0.7c0-0.8,0.4-1.2,1.1-1.2c0.2,0,0.5,0,0.8,0.1s0.6,0.1,0.8,0.1
							c0.3,0,0.7,0,1.3-0.1c0.4,0,0.6-0.1,0.8-0.1c0.6,0,1,0.3,1,1c0,0.6-0.2,1-0.7,1c-0.3,0-0.5,0.2-0.5,0.4
							C38.9,212.7,39,212.9,39.1,213.3z"/>
						<path class="st3" d="M55.5,214c0,0.5-0.1,0.8-0.2,1c-0.1,0.2-0.4,0.3-0.7,0.3h-4.4c-0.2,0-0.4,0-0.4,0.1s-0.1,0.1-0.1,0.3
							c0,0.5,0.2,0.9,0.5,1.3c0.3,0.3,0.7,0.5,1.2,0.5c0.5,0,1-0.3,1.5-0.8c0.4-0.4,0.8-0.6,1.2-0.6c0.4,0,0.7,0.1,0.9,0.3
							c0.2,0.2,0.3,0.5,0.3,0.8c0,0.7-0.4,1.3-1.1,1.8c-0.8,0.5-1.7,0.7-2.8,0.7c-1.4,0-2.6-0.4-3.4-1.3c-0.9-0.9-1.3-2-1.3-3.5
							c0-1.5,0.4-2.6,1.3-3.5c0.8-0.9,2-1.3,3.3-1.3c1.3,0,2.3,0.4,3.1,1.1C55.1,211.8,55.5,212.8,55.5,214z M49.7,213.1
							c0,0.1,0,0.1,0.1,0.2c0,0,0.2,0.1,0.4,0.1h2c0.2,0,0.3,0,0.3-0.1s0.1-0.1,0.1-0.2c0-0.3-0.1-0.6-0.4-0.8
							c-0.3-0.2-0.6-0.4-1-0.4c-0.5,0-0.9,0.2-1.2,0.6C49.8,212.7,49.7,212.9,49.7,213.1z"/>
						<path class="st3" d="M60.3,210.8v0.9c0.9-1.1,2-1.6,3.1-1.6c1.2,0,2.1,0.5,2.6,1.4c0.3,0.5,0.4,1.2,0.4,2.3v2.7
							c0,0.6,0.1,0.9,0.4,0.9c0.1,0,0.1,0,0.3-0.1c0.1,0,0.2,0,0.3,0c0.5,0,0.8,0.3,0.8,0.9c0,0.8-0.4,1.2-1.1,1.2
							c-0.2,0-0.5,0-0.9-0.1s-0.7-0.1-0.9-0.1c-0.3,0-0.6,0-1,0.1s-0.6,0.1-0.8,0.1c-0.7,0-1.1-0.4-1.1-1.1c0-0.6,0.2-1,0.7-1
							c0.3,0,0.5-0.2,0.5-0.5v-2.5c0-0.7-0.1-1.2-0.3-1.5c-0.2-0.3-0.5-0.4-0.9-0.4c-0.5,0-0.9,0.2-1.2,0.5
							c-0.3,0.3-0.5,0.8-0.5,1.3v1.9c0,0.5,0,0.9,0.1,1c0,0.1,0.2,0.2,0.4,0.2c0.4,0.1,0.6,0.4,0.6,1c0,0.8-0.3,1.1-1,1.1
							c-0.2,0-0.4,0-0.7-0.1c-0.4-0.1-0.8-0.1-1-0.1s-0.5,0-1,0.1c-0.4,0-0.7,0.1-1,0.1c-0.8,0-1.1-0.4-1.1-1.2c0-0.7,0.3-1,0.9-1
							c0.1,0,0.2,0,0.3,0.1s0.2,0.1,0.3,0.1c0.2,0,0.3-0.3,0.3-1v-2.9c0-0.7-0.1-1-0.3-1c0,0-0.1,0-0.3,0.1c-0.1,0-0.2,0.1-0.3,0.1
							c-0.6,0-0.9-0.3-0.9-1c0-0.4,0.1-0.7,0.3-0.9c0.2-0.2,0.5-0.3,0.8-0.3c0.1,0,0.3,0,0.6,0.1c0.2,0,0.3,0.1,0.5,0.1
							c0.1,0,0.4,0,0.7-0.1c0.3,0,0.5-0.1,0.6-0.1C60.1,210.3,60.3,210.4,60.3,210.8z"/>
						<path class="st3" d="M72.5,210.3c0.3,0,0.5,0.2,0.5,0.7v5.4c0,0.6,0.1,0.9,0.3,0.9c0,0,0.1,0,0.3,0c0.1,0,0.2,0,0.3,0
							c0.5,0,0.8,0.3,0.8,0.9c0,0.8-0.4,1.2-1.1,1.2c-0.1,0-0.5,0-1-0.1c-0.3,0-0.7-0.1-1.2-0.1c-0.2,0-0.5,0-1,0.1
							s-0.7,0.1-0.9,0.1c-0.3,0-0.6-0.1-0.8-0.3c-0.2-0.2-0.3-0.5-0.3-0.9c0-0.7,0.3-1,0.9-1l0.5,0.1c0,0,0.1,0,0.1,0
							c0.2,0,0.3-0.3,0.3-1v-2.9c0-0.7-0.1-1-0.3-1c0,0-0.1,0-0.3,0.1c-0.1,0-0.2,0-0.3,0c-0.6,0-0.9-0.3-0.9-1
							c0-0.4,0.1-0.7,0.3-0.9c0.2-0.2,0.5-0.3,0.8-0.3c0.1,0,0.3,0,0.6,0.1c0.4,0.1,0.8,0.1,1,0.1c0.2,0,0.5,0,0.8-0.1
							S72.5,210.3,72.5,210.3z M71.5,209.6c-0.4,0-0.8-0.2-1.2-0.5c-0.3-0.3-0.5-0.7-0.5-1.2c0-0.5,0.2-0.8,0.5-1.2
							c0.3-0.3,0.7-0.5,1.2-0.5s0.8,0.2,1.2,0.5c0.3,0.3,0.5,0.7,0.5,1.2s-0.2,0.8-0.5,1.2C72.3,209.4,71.9,209.6,71.5,209.6z"/>
						<path class="st3" d="M83.3,219.6c-1,0-1.6-0.4-2-1.2c-0.8,0.8-1.8,1.2-3,1.2c-0.9,0-1.7-0.2-2.3-0.7c-0.6-0.5-0.8-1.2-0.8-2
							c0-1.3,0.5-2.1,1.6-2.4c0.5-0.2,1-0.3,1.6-0.4c0.9-0.1,1.4-0.3,1.7-0.5c0.3-0.2,0.5-0.5,0.5-0.9c0-0.3-0.1-0.5-0.4-0.7
							c-0.2-0.2-0.5-0.3-0.9-0.3c-0.4,0-0.6,0.1-0.6,0.4c0,0.1,0,0.2,0,0.3v0.1c0,0.3-0.1,0.6-0.4,0.8c-0.3,0.2-0.6,0.3-1.1,0.3
							c-0.5,0-0.9-0.1-1.2-0.4c-0.3-0.3-0.5-0.6-0.5-1.1c0-0.6,0.3-1.2,1-1.5c0.7-0.4,1.6-0.6,2.8-0.6c1.3,0,2.3,0.2,2.9,0.6
							c0.7,0.4,1,1.2,1,2.4v3.7c0,0.4,0.1,0.6,0.3,0.6c0.1,0,0.2,0,0.3,0c0,0,0.1,0,0.1,0c0.3,0,0.5,0.1,0.7,0.3
							c0.2,0.2,0.3,0.4,0.3,0.7c0,0.4-0.2,0.7-0.5,1C84.3,219.5,83.8,219.6,83.3,219.6z M80.7,215.8v-0.4c-0.1,0-0.6,0.2-1.6,0.5
							c-0.7,0.2-1,0.4-1,0.8c0,0.6,0.3,0.8,1,0.8C80.2,217.4,80.7,216.9,80.7,215.8z"/>
						<path class="st3" d="M89.4,210.8v0.8c0.9-1.1,1.9-1.6,3-1.6c0.9,0,1.7,0.5,2.3,1.4c0.6-0.5,1.1-0.9,1.5-1.1
							c0.4-0.2,0.9-0.3,1.5-0.3c1.1,0,2,0.4,2.6,1.1c0.4,0.5,0.6,1.3,0.6,2.5v2.8c0,0.6,0.1,0.9,0.3,0.9c0.1,0,0.2,0,0.3-0.1
							c0.1,0,0.2,0,0.3,0c0.5,0,0.8,0.3,0.8,0.9c0,0.4-0.1,0.7-0.3,0.9c-0.2,0.2-0.4,0.3-0.8,0.3c0,0-0.2,0-0.5-0.1l-0.4-0.1
							c-0.2,0-0.4,0-0.8,0c-0.4,0-0.8,0-1.1,0.1s-0.6,0.1-0.8,0.1c-0.3,0-0.5-0.1-0.7-0.3c-0.2-0.2-0.3-0.5-0.3-0.8
							c0-0.6,0.2-0.9,0.7-1c0.2,0,0.4-0.1,0.4-0.2c0-0.1,0.1-0.4,0.1-0.8v-1.9c0-0.8-0.1-1.3-0.2-1.6c-0.2-0.3-0.5-0.4-0.9-0.4
							c-1,0-1.5,0.7-1.5,2.2v1.7c0,0.4,0,0.7,0.1,0.8c0,0.1,0.1,0.2,0.3,0.2c0.4,0.1,0.6,0.4,0.6,0.9c0,0.8-0.3,1.2-1,1.2
							c-0.1,0-0.3,0-0.6-0.1c-0.4-0.1-0.7-0.1-0.8-0.1c-0.1,0-0.4,0-0.6,0.1s-0.5,0.1-0.6,0.1c-0.6,0-0.9-0.4-0.9-1.1
							c0-0.5,0.2-0.9,0.6-1c0.2,0,0.3-0.2,0.3-0.4c0-0.3,0-0.5,0-0.6v-2c0-0.7-0.1-1.2-0.2-1.4s-0.5-0.4-0.9-0.4
							c-1.1,0-1.6,0.7-1.6,2.2v2.2c0,0.2,0,0.3,0.1,0.4c0,0.1,0.2,0.1,0.4,0.1c0.5,0.1,0.7,0.4,0.7,0.9c0,0.8-0.3,1.2-1,1.2
							c-0.2,0-0.5,0-0.9-0.1s-0.7-0.1-0.9-0.1c-0.3,0-0.6,0-0.8,0.1c-0.5,0.1-0.8,0.1-0.9,0.1c-0.3,0-0.6-0.1-0.8-0.3
							c-0.2-0.2-0.3-0.5-0.3-0.9c0-0.7,0.3-1,0.9-1c0.1,0,0.2,0,0.3,0.1s0.2,0.1,0.3,0.1c0.2,0,0.3-0.3,0.3-1v-2.9
							c0-0.7-0.1-1-0.3-1c0,0-0.1,0-0.3,0.1c-0.1,0-0.2,0.1-0.3,0.1c-0.6,0-0.9-0.3-0.9-1c0-0.3,0.1-0.6,0.3-0.9
							c0.2-0.2,0.5-0.3,0.8-0.3c0.1,0,0.3,0,0.6,0.1c0.2,0,0.4,0.1,0.5,0.1c0.1,0,0.4,0,0.6-0.1s0.5-0.1,0.6-0.1
							C89.3,210.3,89.4,210.4,89.4,210.8z"/>
						<path class="st3" d="M103.5,217.7c0-0.5,0.2-0.9,0.5-1.3s0.7-0.5,1.2-0.5c0.6,0,1.1,0.2,1.5,0.7s0.6,1.1,0.6,1.8
							c0,1.5-0.6,3-1.9,4.5c-0.3,0.4-0.6,0.6-0.9,0.6c-0.4,0-0.7-0.2-0.7-0.7c0-0.3,0.1-0.6,0.4-1c0.7-1,1-1.6,1-2
							c0-0.2-0.1-0.3-0.4-0.4C104,219.2,103.5,218.6,103.5,217.7z"/>
						<path class="st3" d="M117.1,210c1.1,0,1.9,0.4,2.6,1.3v-0.5c0-0.5,0.4-0.7,1.2-0.7c0.9,0,1.4,0.3,1.4,0.9v8.5
							c0,0.6,0.1,0.8,0.4,0.8c0.1,0,0.2,0,0.3-0.1c0,0,0.1,0,0.2,0c0.5,0,0.7,0.3,0.7,0.9c0,0.9-0.4,1.3-1.1,1.3c-0.2,0-0.6,0-1-0.1
							c-0.5-0.1-0.8-0.1-1-0.1c-0.3,0-0.7,0-1.3,0.1c-0.6,0.1-1,0.1-1.3,0.1c-0.6,0-1-0.4-1-1.1c0-0.6,0.3-0.9,0.9-0.9
							c0.1,0,0.2,0,0.4,0c0.2,0,0.3,0,0.4,0c0.2,0,0.3-0.1,0.4-0.2c0-0.1,0-0.2,0-0.5v-1.4c-0.6,0.7-1.4,1.1-2.4,1.1
							c-1.1,0-2-0.4-2.7-1.3c-0.7-0.9-1-2-1-3.4c0-1.5,0.3-2.6,1-3.5C115.1,210.4,116,210,117.1,210z M117.9,212.3
							c-0.5,0-0.9,0.2-1.2,0.7c-0.3,0.4-0.4,1-0.4,1.8c0,0.7,0.1,1.3,0.4,1.8s0.7,0.7,1.1,0.7c0.5,0,0.9-0.2,1.2-0.7
							c0.3-0.4,0.4-1,0.4-1.8c0-0.8-0.1-1.4-0.4-1.8C118.8,212.5,118.4,212.3,117.9,212.3z"/>
						<path class="st3" d="M130.7,218.8v-0.7c-0.8,1-1.8,1.5-3.2,1.5c-0.6,0-1.1-0.1-1.5-0.4c-0.5-0.2-0.8-0.6-1-1
							c-0.2-0.4-0.3-1.1-0.3-2.2v-2.8c0-0.4,0-0.7-0.1-0.7c-0.1-0.1-0.1-0.1-0.3-0.1h-0.2c0,0-0.1,0-0.2,0c-0.5,0-0.8-0.3-0.8-1
							c0-0.8,0.4-1.2,1.1-1.2c0.1,0,0.4,0,0.7,0.1s0.5,0.1,0.7,0.1c0.1,0,0.4,0,0.6-0.1s0.5-0.1,0.6-0.1c0.4,0,0.5,0.3,0.5,0.8
							l0,4.8c0,0.9,0.4,1.4,1.1,1.4c1.1,0,1.6-0.8,1.6-2.2v-1.7c0-0.6-0.1-0.9-0.4-0.9c-0.1,0-0.2,0-0.3,0c-0.1,0-0.2,0-0.3,0
							c-0.4,0-0.7-0.3-0.7-1c0-0.8,0.3-1.2,1-1.2c0.2,0,0.4,0,0.7,0.1c0.3,0,0.6,0.1,0.7,0.1c0,0,0.3,0,0.8-0.1
							c0.3,0,0.5-0.1,0.6-0.1c0.4,0,0.6,0.2,0.6,0.6v5.5c0,0.6,0.1,0.9,0.3,0.9c0.1,0,0.2,0,0.3,0c0.1,0,0.2,0,0.3,0
							c0.5,0,0.8,0.3,0.8,0.9c0,0.8-0.4,1.2-1.1,1.2c-0.1,0-0.4,0-0.6-0.1c-0.3,0-0.5-0.1-0.6-0.1c-0.1,0-0.3,0-0.6,0.1
							c-0.3,0-0.5,0.1-0.6,0.1C130.9,219.4,130.7,219.2,130.7,218.8z"/>
						<path class="st3" d="M139.1,210.3c0.3,0,0.5,0.2,0.5,0.7v5.4c0,0.6,0.1,0.9,0.3,0.9c0,0,0.1,0,0.3,0c0.1,0,0.2,0,0.3,0
							c0.5,0,0.8,0.3,0.8,0.9c0,0.8-0.4,1.2-1.1,1.2c-0.1,0-0.5,0-1-0.1c-0.3,0-0.7-0.1-1.2-0.1c-0.2,0-0.5,0-1,0.1
							s-0.7,0.1-0.9,0.1c-0.3,0-0.6-0.1-0.8-0.3c-0.2-0.2-0.3-0.5-0.3-0.9c0-0.7,0.3-1,0.9-1l0.5,0.1c0,0,0.1,0,0.1,0
							c0.2,0,0.3-0.3,0.3-1v-2.9c0-0.7-0.1-1-0.3-1c0,0-0.1,0-0.3,0.1c-0.1,0-0.2,0-0.3,0c-0.6,0-0.9-0.3-0.9-1
							c0-0.4,0.1-0.7,0.3-0.9c0.2-0.2,0.5-0.3,0.8-0.3c0.1,0,0.3,0,0.6,0.1c0.4,0.1,0.8,0.1,1,0.1c0.2,0,0.5,0,0.8-0.1
							S139,210.3,139.1,210.3z M138,209.6c-0.4,0-0.8-0.2-1.2-0.5c-0.3-0.3-0.5-0.7-0.5-1.2c0-0.5,0.2-0.8,0.5-1.2
							c0.3-0.3,0.7-0.5,1.2-0.5s0.8,0.2,1.2,0.5c0.3,0.3,0.5,0.7,0.5,1.2s-0.2,0.8-0.5,1.2C138.9,209.4,138.5,209.6,138,209.6z"/>
						<path class="st3" d="M145.3,210c0.9,0,1.7,0.3,2.3,0.8c0-0.5,0.4-0.8,1-0.8c0.6,0,0.9,0.2,0.9,0.6c0,0.1,0,0.3-0.1,0.5
							c0,0.2-0.1,0.4-0.1,0.6c0,0,0,0.1,0,0.3c0,0.2,0,0.3,0,0.4v0.1c0,0.6-0.3,1-1,1c-0.5,0-0.9-0.2-1.2-0.7
							c-0.4-0.6-0.9-0.8-1.5-0.8c-0.7,0-1,0.2-1,0.7c0,0.3,0.1,0.4,0.3,0.5c0.2,0.1,0.8,0.2,1.8,0.4c0.8,0.1,1.4,0.3,1.8,0.5
							c0.4,0.2,0.7,0.4,0.9,0.8c0.3,0.4,0.5,0.9,0.5,1.5c0,0.9-0.4,1.7-1.1,2.3c-0.7,0.6-1.6,0.9-2.6,0.9s-2-0.3-2.9-1
							c0,0.6-0.3,0.9-0.9,0.9c-0.6,0-1-0.3-1-0.8c0-0.1,0-0.3,0-0.6s0-0.4,0-0.6c0-0.1,0-0.3,0-0.5c0-0.2,0-0.4,0-0.5
							c0-0.5,0.3-0.8,1-0.8c0.3,0,0.6,0,0.7,0.1c0.2,0.1,0.3,0.3,0.5,0.6c0.3,0.4,0.6,0.7,0.8,0.9c0.3,0.1,0.6,0.2,1.1,0.2
							c0.9,0,1.3-0.3,1.3-0.8c0-0.4-0.3-0.6-1-0.8l-1-0.2c-0.9-0.2-1.5-0.4-1.8-0.5c-0.4-0.2-0.6-0.5-0.8-0.9
							c-0.2-0.4-0.3-0.8-0.3-1.3c0-0.9,0.3-1.6,0.9-2.2C143.6,210.3,144.4,210,145.3,210z"/>
						<path class="st3" d="M159.2,210.8v0.9c0.9-1.1,2-1.6,3.1-1.6c1.2,0,2.1,0.5,2.6,1.4c0.3,0.5,0.4,1.2,0.4,2.3v2.7
							c0,0.6,0.1,0.9,0.4,0.9c0.1,0,0.1,0,0.3-0.1c0.1,0,0.2,0,0.3,0c0.5,0,0.8,0.3,0.8,0.9c0,0.8-0.4,1.2-1.1,1.2
							c-0.2,0-0.5,0-0.9-0.1s-0.7-0.1-0.9-0.1c-0.3,0-0.6,0-1,0.1s-0.6,0.1-0.8,0.1c-0.7,0-1.1-0.4-1.1-1.1c0-0.6,0.2-1,0.7-1
							c0.3,0,0.5-0.2,0.5-0.5v-2.5c0-0.7-0.1-1.2-0.3-1.5c-0.2-0.3-0.5-0.4-0.9-0.4c-0.5,0-0.9,0.2-1.2,0.5
							c-0.3,0.3-0.5,0.8-0.5,1.3v1.9c0,0.5,0,0.9,0.1,1c0,0.1,0.2,0.2,0.4,0.2c0.4,0.1,0.6,0.4,0.6,1c0,0.8-0.3,1.1-1,1.1
							c-0.2,0-0.4,0-0.7-0.1c-0.4-0.1-0.8-0.1-1-0.1s-0.5,0-1,0.1c-0.4,0-0.7,0.1-1,0.1c-0.8,0-1.1-0.4-1.1-1.2c0-0.7,0.3-1,0.9-1
							c0.1,0,0.2,0,0.3,0.1s0.2,0.1,0.3,0.1c0.2,0,0.3-0.3,0.3-1v-2.9c0-0.7-0.1-1-0.3-1c0,0-0.1,0-0.3,0.1c-0.1,0-0.2,0.1-0.3,0.1
							c-0.6,0-0.9-0.3-0.9-1c0-0.4,0.1-0.7,0.3-0.9c0.2-0.2,0.5-0.3,0.8-0.3c0.1,0,0.3,0,0.6,0.1c0.2,0,0.3,0.1,0.5,0.1
							c0.1,0,0.4,0,0.7-0.1c0.3,0,0.5-0.1,0.6-0.1C159,210.3,159.2,210.4,159.2,210.8z"/>
						<path class="st3" d="M172.2,219.6c-1.5,0-2.6-0.4-3.4-1.3c-0.8-0.8-1.2-2-1.2-3.5c0-1.5,0.4-2.7,1.2-3.5
							c0.8-0.8,1.9-1.3,3.4-1.3c1.4,0,2.6,0.4,3.4,1.3c0.8,0.8,1.2,2,1.2,3.5c0,1.5-0.4,2.7-1.2,3.6
							C174.8,219.2,173.7,219.6,172.2,219.6z M172.2,212.2c-0.5,0-0.9,0.2-1.3,0.7c-0.3,0.5-0.5,1.1-0.5,1.9c0,0.8,0.2,1.5,0.5,1.9
							c0.3,0.5,0.7,0.7,1.3,0.7c1.1,0,1.7-0.9,1.7-2.6C173.9,213.1,173.3,212.2,172.2,212.2z"/>
						<path class="st3" d="M181.3,210c0.9,0,1.7,0.3,2.3,0.8c0-0.5,0.4-0.8,1-0.8c0.6,0,0.9,0.2,0.9,0.6c0,0.1,0,0.3-0.1,0.5
							c0,0.2-0.1,0.4-0.1,0.6c0,0,0,0.1,0,0.3c0,0.2,0,0.3,0,0.4v0.1c0,0.6-0.3,1-1,1c-0.5,0-0.9-0.2-1.2-0.7
							c-0.4-0.6-0.9-0.8-1.5-0.8c-0.7,0-1,0.2-1,0.7c0,0.3,0.1,0.4,0.3,0.5c0.2,0.1,0.8,0.2,1.8,0.4c0.8,0.1,1.4,0.3,1.8,0.5
							c0.4,0.2,0.7,0.4,0.9,0.8c0.3,0.4,0.5,0.9,0.5,1.5c0,0.9-0.4,1.7-1.1,2.3c-0.7,0.6-1.6,0.9-2.6,0.9s-2-0.3-2.9-1
							c0,0.6-0.3,0.9-0.9,0.9c-0.6,0-1-0.3-1-0.8c0-0.1,0-0.3,0-0.6s0-0.4,0-0.6c0-0.1,0-0.3,0-0.5c0-0.2,0-0.4,0-0.5
							c0-0.5,0.3-0.8,1-0.8c0.3,0,0.6,0,0.7,0.1c0.2,0.1,0.3,0.3,0.5,0.6c0.3,0.4,0.6,0.7,0.8,0.9c0.3,0.1,0.6,0.2,1.1,0.2
							c0.9,0,1.3-0.3,1.3-0.8c0-0.4-0.3-0.6-1-0.8l-1-0.2c-0.9-0.2-1.5-0.4-1.8-0.5c-0.4-0.2-0.6-0.5-0.8-0.9
							c-0.2-0.4-0.3-0.8-0.3-1.3c0-0.9,0.3-1.6,0.9-2.2C179.6,210.3,180.3,210,181.3,210z"/>
						<path class="st3" d="M190.7,212.7v0.7l0,1.1l0,1.2c0,0.4,0,0.6,0,0.5c0,0.7,0.2,1.1,0.7,1.1c0.4,0,0.6-0.3,0.6-1
							c0-0.1,0-0.2,0-0.2c0-0.1,0-0.1,0-0.2c0-0.1,0-0.1,0-0.2c0-0.6,0.3-1,1-1c0.8,0,1.1,0.6,1.1,1.8c0,0.9-0.3,1.7-0.8,2.2
							c-0.6,0.5-1.3,0.8-2.4,0.8c-2,0-3-1-3-3.1c0-0.3,0-0.8,0-1.5c0-0.7,0-1.2,0-1.5v-0.6c0-0.3,0-0.5-0.1-0.6
							c-0.1-0.1-0.2-0.1-0.4-0.1h-0.3c-0.2,0-0.4-0.1-0.6-0.3c-0.1-0.2-0.2-0.4-0.2-0.7c0-0.3,0.1-0.5,0.2-0.7
							c0.2-0.2,0.3-0.3,0.5-0.3h0.3c0.3,0,0.5-0.1,0.5-0.3c0-0.1,0.1-0.3,0.1-0.5v-0.9c0-0.4,0.1-0.7,0.3-0.9
							c0.2-0.2,0.6-0.2,1.2-0.2c0.4,0,0.7,0.1,0.9,0.2s0.2,0.4,0.2,0.8v1c0,0.3,0,0.6,0.1,0.6c0.1,0.1,0.2,0.1,0.5,0.1h1.3
							c0.7,0,1.1,0.3,1.1,1c0,0.6-0.3,1-1,1h-1.5c-0.3,0-0.4,0-0.5,0.1S190.7,212.5,190.7,212.7z"/>
						<path class="st3" d="M198.5,210.8v1.5c0.2-0.6,0.4-1.1,0.6-1.4c0.5-0.7,1.3-1,2.2-1c0.7,0,1.2,0.2,1.7,0.6
							c0.5,0.4,0.7,1,0.7,1.6c0,0.5-0.1,0.9-0.4,1.2c-0.3,0.3-0.7,0.5-1.1,0.5c-0.3,0-0.6-0.1-0.9-0.3c-0.2-0.2-0.4-0.5-0.4-0.8
							c0-0.2,0.1-0.4,0.2-0.7H201c-0.8,0-1.3,0.4-1.6,1.3c-0.2,0.7-0.3,1.5-0.3,2.4v0.7c0,0.4,0,0.7,0.1,0.8c0,0.1,0.1,0.1,0.3,0.1
							c0.1,0,0.3,0,0.5-0.1c0.2,0,0.3-0.1,0.4-0.1c0.3,0,0.5,0.1,0.7,0.3c0.2,0.2,0.3,0.4,0.3,0.7c0,0.3-0.1,0.6-0.4,0.9
							c-0.2,0.2-0.5,0.4-0.9,0.4c-0.2,0-0.5,0-1-0.1c-0.3,0-0.7-0.1-1.1-0.1s-0.9,0-1.2,0.1c-0.6,0.1-0.9,0.1-1.1,0.1
							c-0.7,0-1.1-0.4-1.1-1.2c0-0.7,0.3-1,0.9-1c0.1,0,0.2,0,0.3,0.1s0.2,0.1,0.3,0.1c0.2,0,0.3-0.3,0.3-1v-2.9c0-0.7-0.1-1-0.3-1
							c0,0-0.1,0-0.3,0.1c-0.1,0-0.2,0.1-0.3,0.1c-0.6,0-0.9-0.3-0.9-1c0-0.4,0.1-0.7,0.3-0.9c0.2-0.2,0.4-0.3,0.7-0.3
							c0.1,0,0.3,0,0.5,0.1s0.4,0.1,0.6,0.1c0.1,0,0.4,0,0.6-0.1s0.5-0.1,0.6-0.1C198.3,210.3,198.5,210.4,198.5,210.8z"/>
						<path class="st3" d="M211.4,218.8v-0.7c-0.8,1-1.8,1.5-3.2,1.5c-0.6,0-1.1-0.1-1.5-0.4c-0.5-0.2-0.8-0.6-1-1
							c-0.2-0.4-0.3-1.1-0.3-2.2v-2.8c0-0.4,0-0.7-0.1-0.7c-0.1-0.1-0.1-0.1-0.3-0.1h-0.2c0,0-0.1,0-0.2,0c-0.5,0-0.8-0.3-0.8-1
							c0-0.8,0.4-1.2,1.1-1.2c0.1,0,0.4,0,0.7,0.1s0.5,0.1,0.7,0.1c0.1,0,0.4,0,0.6-0.1s0.5-0.1,0.6-0.1c0.4,0,0.5,0.3,0.5,0.8
							l0,4.8c0,0.9,0.4,1.4,1.1,1.4c1.1,0,1.6-0.8,1.6-2.2v-1.7c0-0.6-0.1-0.9-0.4-0.9c-0.1,0-0.2,0-0.3,0c-0.1,0-0.2,0-0.3,0
							c-0.4,0-0.7-0.3-0.7-1c0-0.8,0.3-1.2,1-1.2c0.2,0,0.4,0,0.7,0.1c0.3,0,0.6,0.1,0.7,0.1c0,0,0.3,0,0.8-0.1
							c0.3,0,0.5-0.1,0.6-0.1c0.4,0,0.6,0.2,0.6,0.6v5.5c0,0.6,0.1,0.9,0.3,0.9c0.1,0,0.2,0,0.3,0c0.1,0,0.2,0,0.3,0
							c0.5,0,0.8,0.3,0.8,0.9c0,0.8-0.4,1.2-1.1,1.2c-0.1,0-0.4,0-0.6-0.1c-0.3,0-0.5-0.1-0.6-0.1c-0.1,0-0.3,0-0.6,0.1
							c-0.3,0-0.5,0.1-0.6,0.1C211.6,219.4,211.4,219.2,211.4,218.8z"/>
						<path class="st3" d="M219.7,210.1c0.9,0,1.8,0.4,2.5,1.1v-1.3c0-0.4-0.2-0.6-0.5-0.6c-0.1,0-0.2,0-0.4,0
							c-0.2,0-0.3,0.1-0.5,0.1c-0.2,0-0.4-0.1-0.6-0.3c-0.2-0.2-0.2-0.4-0.2-0.7c0-0.8,0.4-1.2,1.2-1.2c0.3,0,0.5,0,0.6,0
							c0.5,0,0.8,0.1,1,0.1c0.2,0,0.4,0,0.7,0c0.3,0,0.5,0,0.7,0c0.3,0,0.5,0.1,0.6,0.2c0.1,0.1,0.2,0.4,0.2,0.8v8.2
							c0,0.6,0.1,0.9,0.3,0.9c0.1,0,0.2,0,0.3-0.1c0.1,0,0.2,0,0.3,0c0.5,0,0.8,0.3,0.8,0.9c0,0.4-0.1,0.7-0.3,0.9
							c-0.2,0.2-0.4,0.4-0.7,0.4h-0.1l-0.6-0.1c-0.1,0-0.3,0-0.6,0c-0.3,0-0.6,0-0.8,0c-0.3,0-0.5,0.1-0.5,0.1
							c-0.4,0-0.6-0.2-0.6-0.6V218c-0.6,1.1-1.6,1.6-2.8,1.6c-1.1,0-2-0.5-2.7-1.4c-0.7-0.9-1.1-2-1.1-3.4c0-1.4,0.4-2.5,1.1-3.4
							C217.6,210.6,218.6,210.1,219.7,210.1z M220.3,212.4c-0.4,0-0.8,0.2-1.1,0.6s-0.4,1-0.5,1.7v0.2c0,0.7,0.1,1.3,0.4,1.7
							s0.7,0.6,1.1,0.6c0.5,0,1-0.2,1.3-0.7s0.5-1.1,0.5-1.8c0-0.7-0.2-1.3-0.5-1.8C221.3,212.6,220.9,212.4,220.3,212.4z"/>
					</g>
				</g>
				<polygon class="st4" points="288.2,78.7 384.7,174.4 407,272.3 259,296.3 				"/>
				<path class="st5" d="M204.2,128.7c0,0,59.1-45.5,71.3-32.3s28.5,14.6,26.5,71.7s12.2,55.7-4.8,56.4s-74.7,8.2-82.2,0
					S174.3,157.9,204.2,128.7z"/>
				<path class="st6" d="M229.7,218.4c0,0-29.7,3.6-38.6,4.4c-14.1,1.2-18.4,17.7-21.1,24.5c-1.2,3-16.2,70.4-16.5,74.5
					c-0.3,4.1,62.3,17.5,79.2,18.2l19-3.7h3.2l14.3-0.7c24.1-1.1,74.1-54.9,74.1-58.3c0-3.3-5.5-22.4-11.8-36.3
					c-3-6.7-7.4-16.8-16.3-18.2c-8.8-1.4-38.6-4.4-38.6-4.4H229.7z"/>
				<path class="st6" d="M226.3,226.6c0,0-29.7,3.6-38.6,4.4c-14.1,1.2-18.4,17.7-21.1,24.5c-1.2,3-16.2,70.4-16.5,74.5
					c-0.3,4.1,62.3,17.5,79.2,18.2l19-3.7h3.2l14.3-0.7c24.1-1.1,74.1-54.9,74.1-58.3c0-3.3-5.5-22.4-11.8-36.3
					c-3-6.7-7.4-16.8-16.3-18.2c-8.8-1.4-38.6-4.4-38.6-4.4H226.3z"/>
				<g>
					<path class="st7" d="M227,226.5h46.9c0,0,37.9,4.5,53.1,27.8c7,10.7,11.8,21.7,13.2,28.4c2.4-2.9,3.9-4.9,3.9-5.4
						c0-3.3-5.5-22.4-11.8-36.3c-3-6.7-7.4-16.8-16.3-18.2s-38.6-4.4-38.6-4.4h-46.9c0,0-29.7,3.6-38.6,4.4
						C179.5,223.8,227,226.5,227,226.5z"/>
				</g>
				<path class="st7" d="M198.6,278l0.5-2.5l-9-6l6.7,15.9c-1,4.7-2.2,10.8-2.5,15.2c-1.7,23.1-1,31.8-1,31.8l10.7-0.7
					C203.9,331.8,197.3,298.6,198.6,278z"/>
				<path class="st7" d="M307.8,280l-0.5-2.5l9-6l-6.7,15.9c1,4.7,2.2,10.8,2.5,15.2c1.7,23.1,1,31.8,1,31.8l-10.7-0.7
					C302.4,333.8,309,300.6,307.8,280z"/>
				<path class="st7" d="M252.5,236.6c0,0,23-12.7,23.3-18.5l28.9,3.2c0,0-10.8,21.8-39,25.1C253.9,247.9,252.5,236.6,252.5,236.6z"
					/>
				<path class="st8" d="M277.2,220.8c-2.7-5.4-3.5-28.2-3.5-28.2c-3.8-7.2-18.2,2.5-20.6,4.2c-2.4-1.7-16.8-11.3-20.6-4.2
					c0,0,0,0.6-0.1,1.7c-0.2,5.3-1.2,22-3.4,26.5c-2.7,5.3,14.1,10.6,23.8,11.5v0.1c0.1,0,0.2,0,0.3,0c0.1,0,0.2,0,0.3,0v-0.1
					C263.1,231.4,279.9,226.1,277.2,220.8z"/>
				<path class="st9" d="M277.5,220c-1.2-2.5-2.1-8.7-2.6-14.6c0,0,0,0,0,0v-16.2l-17-3.1l-26.8,1.3l1.5,5.2
					c0,0,13.5,14.9,21.2,15.6c4.6,0.4,9-0.8,14.4-4.8c0.5,4.8,0,17.1,1,19.1c2.5,4.9-8.4,7.3-18.2,8.7c0.8,0.1,1.5,0.2,2.2,0.3v0.1
					c0.1,0,0.2,0,0.3,0c0.1,0,0.2,0,0.3,0v-0.1C263.4,230.6,280.2,225.3,277.5,220z"/>
				<path class="st10" d="M269.1,69.3c0,0,2-4.1,6.8-1.4c4.8,2.7,28.5,12.9,28.5,40.1c0,4.8,1.4,21.1-0.7,19.7
					c-4.1-2.7-8.2,2.7-8.2,2.7s0-12.9-13.6-24.5c-5.6-4.7-12.1-5.9-12.2-10.6C269.7,95.3,270.4,78.6,269.1,69.3z"/>
				<path class="st10" d="M269.6,72.8c0,0,2-4.1,6.8-1.4c4.8,2.7,28.5,12.9,28.5,40.1c0,4.8,1.4,21.1-0.7,19.7
					c-4.1-2.7-8.2,2.7-8.2,2.7s0-12.9-13.6-24.5c-5.6-4.7-11.1-5.8-11.2-10.5C271.3,99,273,81,269.6,72.8z"/>
				<path class="st11" d="M276.4,71.4c4.3,2.4,23.7,10.9,27.8,32.1c-2.4-23.9-23.8-33.1-28.3-35.6c-4.8-2.7-6.8,1.4-6.8,1.4
					c0.4,0.9,0.7,1.9,0.9,2.9C270.8,71.1,272.8,69.4,276.4,71.4z"/>
				<path class="st10" d="M304.7,147.1c0,0,6.8,69.3,9.5,75.4l-14.3-1.4c0,0-4.6-45.9-3.8-68.6"/>
				<path class="st8" d="M307.6,134.9c-0.2-2-0.8-3.7-1.6-5.1c-2.1-3.7-6.6-4.8-10.7,0.6c0,0-0.8-32.3-27.8-36.7l-3.6-0.6
					c-6.1-1-12.3-1.1-18.4-0.3c-3.1,0.4-5.9,0.8-6.4,0.9c-27,4.4-27.8,36.7-27.8,36.7c-5.1-6.8-11-3.4-11.7,2.7
					c-0.7,21.7,11.7,19,11.7,19c0.7,6.8,0,7.5,6.6,23.8c6.6,16.3,30.1,25.2,31.8,25.9c2.6,1,5.4,0.9,8-0.2
					c1.4-0.6,24.5-9.4,31.1-25.7c4-10,5.3-14.1,5.9-17.4c0.4,0,0.7,0,0.7,0S308.4,161.9,307.6,134.9z"/>
				<path class="st9" d="M307.6,135c-0.2-2-0.8-3.7-1.6-5.1c-2.1-3.7-6.6-4.8-10.7,0.6c0,0-0.8-32.3-27.8-36.7l-3.6-0.6
					c-3.4-0.5-6.8-0.8-10.2-0.8c0.7,0.1,1.5,0.2,2.2,0.3l3.6,0.6c27,4.4,27.8,36.7,27.8,36.7c1.7,13.1-0.2,28.1-0.7,28.1
					c-0.6,3.3-1.8,7.4-5.9,17.4c-6.6,16.3-29.7,25.1-31.1,25.7c-0.3,0.1-0.6,0.2-0.8,0.3c0.4,0.2,0.8,0.3,0.9,0.3
					c2.6,1,5.4,0.9,8-0.2c1.4-0.6,24.5-9.4,31.1-25.7c4-10,5.3-14.1,5.9-17.4c0.4,0,0.7,0,0.7,0S308.3,162,307.6,135z"/>
				<path class="st11" d="M296.1,166.5c0.7,23.6,3.8,54.4,3.8,54.4l4.7,0.5c-1.5-7.7-6.3-34.8-7-54.9
					C297.1,166.6,296.5,166.6,296.1,166.5z"/>
				<path class="st12" d="M305.8,157.6c-0.3-2.4-0.5-4.6-0.6-6.3c-2.9,6.6-7.5,6.8-9.2,6.6c0,2.5,0.1,5.2,0.1,8
					C298.1,166,303.1,165.6,305.8,157.6z"/>
				<path class="st9" d="M266.1,96.3c-7.5,6.1-44.2,31.5-48.6,37c-6.2,7.8-6.8,17.8-6,25.8c0.6-5.3,2.3-10.8,6-15.5
					c4.4-5.5,41.4-23.3,48.6-37c2.3-4.5,4.1-11,3.4-17.7C269.1,92.1,268,94.8,266.1,96.3z"/>
				<path class="st9" d="M307.6,134.9c-0.2-2-0.8-3.7-1.6-5.1c-1.1-2-2.4-3.1-2.3-2.1c-8.5,25.2-9,30.2-9.4,30.2
					c-0.6,3.3-4.9,10.9-10,18.9c-9,14.1-25.1,19.3-26.6,19.9c-2.5,1.1-5.4,1.1-8,0.2c-1.1-0.4-16.7-4.4-25.4-11.2
					c9.5,10.1,24.1,15.6,25.4,16.1c2.6,1,5.4,0.9,8-0.2c1.4-0.6,24.5-9.4,31.1-25.7c4-10,5.3-14.1,5.9-17.4c0.4,0,0.7,0,0.7,0
					S308.4,161.9,307.6,134.9z"/>
				<path class="st7" d="M254.2,236.2c0,0,0.5-3.3-2.3-4.8c-7.5-3.9-23.8-9.6-25.5-15.6l-9.6,3.7l0,0c0,0,15.4,21.4,26.4,24.1
					C254.2,246.4,254.2,236.2,254.2,236.2z"/>
				<path class="st6" d="M251.9,231.4c0,0-19.4-8.9-21.7-17.1l-13.4,5.1c0,0,2.3,3,5.8,6.6c4.8,5,11.9,11.3,18.3,12.9
					C251.9,241.6,251.9,231.4,251.9,231.4z"/>
				<path class="st6" d="M251.9,231.4c0,0,23.6-12.7,24-18.5l13.4,6.5c0,0-13.6,16.8-25.2,19.5C252.5,241.6,251.9,231.4,251.9,231.4
					z"/>
				<path class="st10" d="M185.4,223.8c-0.9-19.9-14.5-106,23.6-137.2c19.7-16.2,50.6-27.5,60.1-17.3c0,0,6.1,23.1-1.4,29.2
					c-7.5,6.1-44.2,31.5-48.6,37c-10.5,13.2-4.8,32.6-4.1,38c0.7,5.4,5.1,30.2,7.1,40.4l1,3.1l-6.5,3.2c0,0-26.2,2.3-28.9,3.3
					C185.2,224.5,185.4,223.8,185.4,223.8z"/>
				<path class="st11" d="M269.7,73.9c-33.3,10.6-80.1,59.3-80.1,59.3s15-19.3,36-36.2C262.8,66.8,269.7,73.9,269.7,73.9z"/>
				<path class="st11" d="M211.3,145.9c0,0-23.8,45.6-22.3,77.2l5.6-0.7C194.6,222.5,191.2,198.3,211.3,145.9z"/>
				<path class="st12" d="M304.5,105.5c-8.3-18.4-32.6-21.5-32.6-21.5c0.3,0.6,8.7,0.7,17.9,9.2c9.2,8.6,13.5,18.4,15.4,23.4
					c-0.1-2-0.2-3.7-0.2-4.8C304.9,109.6,304.8,107.5,304.5,105.5z"/>
				<path class="st11" d="M209.5,95.2c18.7-18.9,58.4-28.7,59.5-26c-9.5-10.2-40.4,1.1-60.1,17.3c-29.4,24.1-28,80.9-25.4,114.7
					C181.5,167,184.9,120,209.5,95.2z"/>
				<path class="st12" d="M271.2,81.5c-0.4,3.4-1.4,6.3-3.5,7.9c-5.1,4.2-24,17.4-36.7,27.1c0,0,0,0,0,0
					c-14.2,10.8-10.8,17.2-13.5,21.3c-4.3,6.4-8.1,18-8.1,31.2c0,14.5,5.7,39.2,7.9,51l6.1-2.8l-1-3.1c-2-10.2-6.5-35-7.1-40.4
					c-0.5-3.7-3.3-14-1.7-24.4c-0.1,0.1-0.1,0.2-0.2,0.2c0.7-4.9,2.4-9.8,5.8-14.1c4.4-5.5,41.1-30.9,48.6-37
					C271.5,95.4,271.8,88.1,271.2,81.5z"/>
				<g>
					<path id="nose_4_" class="st9" d="M253.7,157c2.9,0,5.3-2.4,5.3-5.3l-10.5,0C248.4,154.6,250.8,157,253.7,157z"/>
					<path id="lips_4_" class="st9" d="M270,167.4h-32.6c0,0,0,0.1,0,0.1c0,4.9,6.7,11.4,15.7,11.4C262.1,178.9,270,172.4,270,167.4
						C270,167.5,270,167.4,270,167.4z"/>
					<g id="right_eye_4_">
						<path class="st13" d="M270.6,130.9c-2.5,0-4.6,2.1-4.6,4.6c0,1,0.3,2,0.9,2.7h7.4c0.6-0.8,0.9-1.7,0.9-2.7
							C275.2,133,273.1,130.9,270.6,130.9z"/>
					</g>
					<g id="left_eye_4_">
						<path class="st13" d="M235.6,130.9c-2.5,0-4.6,2.1-4.6,4.6c0,1,0.3,2,0.9,2.7h7.4c0.6-0.8,0.9-1.7,0.9-2.7
							C240.2,133,238.1,130.9,235.6,130.9z"/>
					</g>
					<path id="teeth_4_" class="st14" d="M237.3,167.4c0,0,0,0.1,0,0.1c0,2.5,7.3,4.5,16.4,4.5s16.4-2,16.4-4.5c0,0,0-0.1,0-0.1
						H237.3z"/>
				</g>
			</g>
		</g>
		<path class="st15" d="M217.6,290.2c-0.4,1.2,28.2,9.2,49,4.9c19.4-4.1,28.5-20.8,28.5-20.8S265.3,298.3,217.6,290.2z"/>
		<path class="st15" d="M211.7,267.6c-0.5,0.4,5.3,10.5,13,13.9c7.3,3.2,15.9-1,15.9-1S223.2,282.4,211.7,267.6z"/>
	</g>
	<circle class="st16" cx="218.3" cy="181.2" r="154.7"/>
	<g class="st17">
		<path class="st18" d="M87.6,405.2l-65.9-7.5l-65.4,7.5c-2.6,0-4.8-1.8-4.8-4.1v-79c0-1.5,1.4-2.7,3.2-2.7H89.2
			c1.8,0,3.2,1.2,3.2,2.7v79C92.4,403.3,90.3,405.2,87.6,405.2z"/>
		<path class="st19" d="M87.7,399.5L21.8,392l-65.4,7.5c-2.6,0-4.8-1.8-4.8-4.1v-79c0-1.5,1.4-2.7,3.2-2.7H89.3
			c1.8,0,3.2,1.2,3.2,2.7v79C92.4,397.7,90.3,399.5,87.7,399.5z"/>
		<path class="st20" d="M-43.9,393.9c0,0,56.7-27.2,66.2,0v-67.7c-9.5-27.2-66.2,0-66.2,0V393.9z"/>
		<path class="st20" d="M88,393.9c0,0-56.7-27.2-66.2,0v-67.7c9.5-27.2,66.2,0,66.2,0V393.9z"/>
		<path class="st21" d="M89.4,381.8c0,0-56.7-30.1-66.2,0v-64.5c9.5-30.1,66.2,0,66.2,0V381.8z"/>
		<path class="st21" d="M-46.4,381.8c0,0,59.2-30.1,68.6,0v-64.5c-9.5-30.1-68.6,0-68.6,0V381.8z"/>
	</g>
	<g>
		<path class="st23" d="M66.8,326.1c0,0-8.5,5.4-21.7,1.5c-9.6-2.9-22.2,1.5-22.2,1.5l4.1-6.9c0,0,11.9-4,21.2-1.4
			c12.7,3.6,20.8-1.3,20.8-1.3"/>
		<path class="st24" d="M67.4,324.1c0,0-8.4,5.3-21.5,1.4c-9.5-2.8-21.9,1.4-21.9,1.4l4-6.8c0,0,11.7-3.9,20.9-1.3
			c12.6,3.5,20.5-1.3,20.5-1.3"/>
		<path class="st23" d="M213.9,349.6l-81.4-5.2l-79.8,5.2c-3.2,0-5.4-1.3-4.8-2.9l16-41.5c0.2-0.6,1.7-1.1,3.3-1.1h122.9
			c1.6,0,3.2,0.5,3.6,1.1l24.4,41.5C219,348.3,217.1,349.6,213.9,349.6z"/>
		<path class="st24" d="M211.7,345.7l-79.5-5l-78,5c-3.2,0-5.3-1.2-4.7-2.7L64.8,303c0.2-0.6,1.7-1,3.3-1h120.8c1.6,0,3.1,0.5,3.5,1
			l23.5,39.9C216.8,344.4,214.9,345.7,211.7,345.7z"/>
		<path class="st25" d="M55.1,341.9c0,0,66-16,77.7,0l-3.6-35c-9.2-10.3-61.7,0-61.7,0L55.1,341.9z"/>
		<path class="st25" d="M210,341.9c0,0-69.2-16-77.7,0l-3.5-35c7.1-10.3,61.7,0,61.7,0L210,341.9z"/>
		<path class="st26" d="M207.5,334.4c0,0-66.5-16.1-74.3,0l-3.4-31c6.7-10.8,60.1,0,60.1,0L207.5,334.4z"/>
		<path class="st26" d="M55,334.4c0,0,65.8-16.1,77,0l-3.2-31c-9-10.8-62.3,0-62.3,0L55,334.4z"/>
		<path class="st23" d="M39.4,320.8c0.2,0.7-2,1.5-4.8,1.8c-2.8,0.3-5.2,0.1-5.3-0.6c-0.1-0.7,2.1-1.5,4.8-1.8
			C36.9,319.9,39.2,320.1,39.4,320.8z"/>
		<path class="st27" d="M38,321.5c0.1,0.6-1.7,1.3-4.1,1.6c-2.4,0.3-4.4,0.1-4.5-0.5c-0.1-0.6,1.8-1.3,4.1-1.6
			C35.9,320.7,37.9,321,38,321.5z"/>
	</g>
	<g>
		<g>
			<path class="st3" d="M153.4,307.2l-1,0.3c-2.1,0.7-4.4-0.7-5.2-3.2L125.7,236c-0.8-2.5,0.3-5.1,2.3-5.8l1-0.3
				c2.1-0.7,4.4,0.7,5.2,3.2l21.6,68.4C156.6,303.9,155.5,306.5,153.4,307.2z"/>
			<path class="st28" d="M134.5,248.9L134.5,248.9c-1.1,0.4-2.4-0.4-2.8-1.7l-5.7-18c-0.4-1.3,0.1-2.7,1.3-3.1h0
				c1.1-0.4,2.4,0.4,2.8,1.7l5.7,18C136.2,247.2,135.6,248.6,134.5,248.9z"/>
			<path class="st0" d="M157.5,317.6l-0.9-13.5c-0.1-0.9-1-1.5-1.8-1.2l-6,2.1c-0.8,0.3-1.2,1.3-0.7,2l6.9,11.4
				C155.7,319.7,157.6,319.1,157.5,317.6z"/>
		</g>
		<g>
			<ellipse class="st29" cx="154.3" cy="279.2" rx="7.1" ry="7.7"/>
			<g>
				<path class="st30" d="M159.3,273.7c0.6,1.2,0.9,2.6,0.8,4.1c-0.3,4.3-3.7,7.5-7.6,7.2c-1.8-0.1-3.3-1-4.5-2.2
					c1.1,2.3,3.2,4,5.8,4.2c3.9,0.3,7.3-2.9,7.6-7.2C161.6,277.4,160.8,275.2,159.3,273.7z"/>
			</g>
		</g>
		<g>
			<path class="st29" d="M136.7,307.9l-19.4-14.8c-2.6-2-3.2-5.8-1.2-8.4l0.6-0.8c1.9-2.6,5.6-3.2,8.2-1.2l19.4,14.8
				c2.6,2,3.2,5.8,1.2,8.4l-0.6,0.8C143,309.3,139.3,309.8,136.7,307.9z"/>
			<path class="st30" d="M146.4,303.9C146.4,303.9,146.4,304,146.4,303.9c-2.1,2.8-6,3.4-8.7,1.3l-21.6-16.5
				c-0.3-0.2-0.5-0.5-0.8-0.7c0,2,0.9,4,2.6,5.3l18.5,14.1c2.8,2.2,6.9,1.6,9-1.3C145.9,305.5,146.2,304.7,146.4,303.9z"/>
		</g>
		<g>
			<path class="st29" d="M126.2,315.8l-10.7-8c-2.6-2-3.2-5.7-1.3-8.4l0.6-0.8c1.9-2.7,5.6-3.2,8.2-1.3l10.7,8
				c2.6,2,3.2,5.7,1.3,8.4l-0.6,0.8C132.5,317.1,128.8,317.7,126.2,315.8z"/>
			<path class="st30" d="M135.8,311.7C135.8,311.7,135.8,311.8,135.8,311.7c-2,2.8-5.9,3.4-8.7,1.4l-13-9.7
				c-0.3-0.2-0.5-0.5-0.8-0.7c0,2,0.9,4,2.6,5.3l9.9,7.3c2.9,2.1,6.9,1.5,8.9-1.4C135.3,313.3,135.6,312.5,135.8,311.7z"/>
		</g>
		<g>
			<path class="st29" d="M149.5,301.3l-29.7-22.9c-2.7-2.1-3.2-6-1.2-8.7l0.8-1.1c2-2.7,5.8-3.2,8.5-1.2l29.7,22.9
				c2.7,2.1,3.2,6,1.2,8.7l-0.8,1.1C156,302.8,152.2,303.3,149.5,301.3z"/>
			<g>
				<path class="st30" d="M159.3,297.5C159.3,297.6,159.3,297.6,159.3,297.5c-2.2,3-6.2,3.6-8.9,1.5l-32.3-24.9
					c-0.3-0.2-0.5-0.5-0.8-0.7c-0.1,2.1,0.8,4.1,2.4,5.5l29.2,22.5c2.8,2.2,6.9,1.5,9.2-1.5C158.7,299.2,159.1,298.4,159.3,297.5z"
					/>
			</g>
		</g>
	</g>
	<g>
		<path class="st7" d="M230.2,214.5l-13.4,5.1c0,0,1.9,2.5,5,5.7l10.1-7.7C231.1,216.5,230.5,215.5,230.2,214.5z"/>
	</g>
</g>
</svg>
