<?xml version="1.0" encoding="utf-8"?>
<!-- Generator: Adobe Illustrator 22.1.0, SVG Export Plug-In . SVG Version: 6.00 Build 0)  -->
<svg version="1.1" id="DEVELOPER" xmlns="http://www.w3.org/2000/svg" xmlns:xlink="http://www.w3.org/1999/xlink" x="0px" y="0px"
	 viewBox="0 0 422 370" style="enable-background:new 0 0 422 370;" xml:space="preserve">
<style type="text/css">
	.st0{fill:#BAEF97;}
	.st1{fill:none;stroke:#43BDBC;stroke-width:10;stroke-miterlimit:10;}
	.st2{clip-path:url(#SVGID_2_);}
	.st3{clip-path:url(#SVGID_4_);}
	.st4{fill:#43BDBC;}
	.st5{clip-path:url(#SVGID_6_);}
	.st6{opacity:0.67;fill:#43BDBC;}
	.st7{fill:#351B0A;}
	.st8{fill:#10558E;}
	.st9{fill:#0A344C;}
	.st10{fill:#269ABC;}
	.st11{fill:#E2A77F;}
	.st12{fill:#B27757;}
	.st13{fill:#C4875F;}
	.st14{fill:#6DD2DA;}
	.st15{fill:#664026;}
	.st16{fill:#1368A0;}
	.st17{fill:#FFFFFF;}
	.st18{fill:#C1272D;}
	.st19{fill:#D8D9DA;}
	.st20{fill:none;stroke:#D8D9DA;stroke-miterlimit:10;}
	.st21{fill:#914817;}
	.st22{fill:#C66626;}
	.st23{fill:#B3B3B3;}
	.st24{fill:#CCCCCC;}
	.st25{fill:#808080;}
	.st26{fill:#4D4D4D;}
</style>
<circle class="st0" cx="217" cy="180.4" r="154.7"/>
<circle class="st1" cx="217" cy="180.4" r="154.7"/>
<g>
	<defs>
		<circle id="SVGID_1_" cx="217" cy="180.4" r="149.7"/>
	</defs>
	<clipPath id="SVGID_2_">
		<use xlink:href="#SVGID_1_"  style="overflow:visible;"/>
	</clipPath>
	<g id="BKG_1_" class="st2">
		<defs>
			<rect id="SVGID_3_" x="26.9" y="106.2" width="208.9" height="123.8"/>
		</defs>
		<clipPath id="SVGID_4_">
			<use xlink:href="#SVGID_3_"  style="overflow:visible;"/>
		</clipPath>
		<g class="st3">
			<path class="st4" d="M62.7,74.3c-0.9-0.8-1.4-2-1.4-3.6c0-0.3,0-0.9,0-1.6c0-0.7,0-1.3,0-1.6c0.1-1.5,0.5-2.7,1.5-3.6
				c0.9-0.9,2.2-1.3,3.8-1.3c1.1,0,2,0.2,2.8,0.5c0.8,0.4,1.4,0.9,1.8,1.5c0.4,0.6,0.7,1.4,0.7,2.1v0c0,0.1,0,0.2-0.1,0.2
				c-0.1,0.1-0.2,0.1-0.3,0.1h-1.7c-0.1,0-0.3,0-0.3-0.1c-0.1-0.1-0.1-0.2-0.2-0.4c-0.2-0.7-0.5-1.3-0.9-1.6c-0.4-0.3-1-0.5-1.8-0.5
				c-1.7,0-2.6,1-2.7,2.9c0,0.3,0,0.8,0,1.5s0,1.2,0,1.5c0.1,1.9,1,2.9,2.7,2.9c0.7,0,1.3-0.2,1.8-0.5s0.8-0.8,0.9-1.6
				c0-0.2,0.1-0.3,0.2-0.4c0.1-0.1,0.2-0.1,0.3-0.1h1.7c0.1,0,0.2,0,0.3,0.1c0.1,0.1,0.1,0.2,0.1,0.3c0,0.8-0.3,1.5-0.7,2.1
				s-1.1,1.1-1.8,1.5s-1.7,0.5-2.8,0.5C64.9,75.6,63.6,75.1,62.7,74.3z"/>
			<path class="st4" d="M74.7,74.5c-0.8-0.7-1.2-1.7-1.2-3l0-0.8l0-0.8c0.1-1.3,0.5-2.3,1.3-3c0.8-0.7,1.9-1.1,3.3-1.1
				c1.4,0,2.5,0.4,3.2,1.1c0.8,0.7,1.2,1.7,1.3,3c0,0.1,0,0.4,0,0.8c0,0.4,0,0.6,0,0.8c-0.1,1.3-0.5,2.3-1.2,3
				c-0.8,0.7-1.9,1.1-3.3,1.1C76.5,75.6,75.4,75.2,74.7,74.5z M79.4,73.1c0.3-0.4,0.5-1,0.5-1.7c0-0.1,0-0.4,0-0.7
				c0-0.3,0-0.6,0-0.7c0-0.8-0.2-1.4-0.6-1.8c-0.3-0.4-0.8-0.6-1.5-0.6c-0.6,0-1.1,0.2-1.5,0.6c-0.3,0.4-0.5,1-0.6,1.8l0,0.7l0,0.7
				c0,0.8,0.2,1.4,0.6,1.7c0.3,0.4,0.8,0.6,1.5,0.6C78.6,73.7,79.1,73.5,79.4,73.1z"/>
			<path class="st4" d="M84.6,78.7c-0.1-0.1-0.1-0.2-0.1-0.3V66.4c0-0.1,0-0.2,0.1-0.3s0.2-0.1,0.3-0.1h1.4c0.1,0,0.2,0,0.3,0.1
				s0.1,0.2,0.1,0.3v0.7c0.6-0.9,1.6-1.3,2.9-1.3c1.2,0,2.1,0.4,2.8,1.1c0.6,0.8,1,1.8,1,3.1c0,0.1,0,0.4,0,0.6c0,0.3,0,0.5,0,0.6
				c0,1.3-0.4,2.3-1,3.1c-0.7,0.8-1.6,1.2-2.8,1.2c-1.2,0-2.1-0.4-2.8-1.3v4.1c0,0.1,0,0.2-0.1,0.3c-0.1,0.1-0.2,0.1-0.3,0.1h-1.6
				C84.8,78.8,84.7,78.8,84.6,78.7z M91,71.2c0-0.1,0-0.3,0-0.5c0-0.2,0-0.4,0-0.5c-0.1-1.6-0.8-2.4-2.1-2.4c-0.7,0-1.2,0.2-1.5,0.7
				c-0.3,0.4-0.5,1-0.5,1.6c0,0.1,0,0.4,0,0.7c0,0.3,0,0.5,0,0.7c0,0.6,0.2,1.1,0.6,1.5c0.3,0.4,0.9,0.6,1.5,0.6
				C90.3,73.6,90.9,72.8,91,71.2z"/>
			<path class="st4" d="M96.6,78.7c-0.1-0.1-0.1-0.2-0.1-0.3c0-0.1,0-0.2,0.1-0.3l1.4-3.3l-3.5-8.2c0-0.1-0.1-0.2-0.1-0.3
				c0-0.1,0.1-0.2,0.1-0.3c0.1-0.1,0.2-0.1,0.3-0.1h1.5c0.2,0,0.4,0.1,0.5,0.3l2.4,5.9l2.4-5.9c0.1-0.2,0.3-0.3,0.5-0.3h1.5
				c0.1,0,0.2,0,0.3,0.1c0.1,0.1,0.1,0.2,0.1,0.3c0,0.1,0,0.2-0.1,0.3l-5.1,11.8c-0.1,0.2-0.3,0.3-0.5,0.3h-1.4
				C96.7,78.8,96.6,78.8,96.6,78.7z"/>
			<path class="st4" d="M67.5,99.2l-6.1-4.2c-0.2-0.1-0.3-0.2-0.4-0.4c-0.1-0.1-0.1-0.3-0.1-0.4v-0.4c0-0.2,0-0.3,0.1-0.4
				s0.2-0.2,0.4-0.4l6.1-4.2c0.1-0.1,0.3-0.2,0.4-0.2s0.2,0,0.3,0.1c0.1,0.1,0.1,0.2,0.1,0.3v1.4c0,0.2,0,0.3-0.1,0.4
				c-0.1,0.1-0.2,0.2-0.3,0.3l-4.4,2.9l4.4,2.9c0.2,0.1,0.3,0.2,0.3,0.3c0.1,0.1,0.1,0.2,0.1,0.4V99c0,0.1,0,0.2-0.1,0.3
				c-0.1,0.1-0.2,0.1-0.3,0.1C67.7,99.4,67.6,99.3,67.5,99.2z"/>
			<path class="st4" d="M71.2,99.4c-0.6-0.8-1-1.8-1.1-3.1l0-0.6l0-0.6c0-1.3,0.4-2.3,1.1-3.1c0.7-0.8,1.6-1.2,2.8-1.2
				c1.2,0,2.1,0.4,2.8,1.2v-4c0-0.1,0-0.2,0.1-0.3s0.2-0.1,0.3-0.1h1.6c0.1,0,0.2,0,0.3,0.1s0.1,0.2,0.1,0.3v11.9
				c0,0.1,0,0.2-0.1,0.3s-0.2,0.1-0.3,0.1h-1.5c-0.1,0-0.2,0-0.3-0.1s-0.1-0.2-0.1-0.3v-0.7c-0.7,0.9-1.6,1.3-2.9,1.3
				C72.8,100.6,71.9,100.2,71.2,99.4z M76.2,98c0.3-0.4,0.5-1,0.5-1.6c0-0.1,0-0.4,0-0.7c0-0.3,0-0.6,0-0.7c0-0.6-0.2-1.1-0.6-1.5
				s-0.9-0.6-1.5-0.6c-1.3,0-2,0.8-2.1,2.4l0,0.5l0,0.5c0.1,1.6,0.8,2.4,2.1,2.4C75.4,98.6,75.9,98.4,76.2,98z"/>
			<path class="st4" d="M81.7,89.4c-0.1-0.1-0.1-0.2-0.1-0.3v-1.3c0-0.1,0-0.2,0.1-0.3c0.1-0.1,0.2-0.1,0.3-0.1h1.7
				c0.1,0,0.2,0,0.3,0.1s0.1,0.2,0.1,0.3v1.3c0,0.1,0,0.2-0.1,0.3c-0.1,0.1-0.2,0.1-0.3,0.1H82C81.8,89.5,81.7,89.4,81.7,89.4z
				 M81.7,100.2c-0.1-0.1-0.1-0.2-0.1-0.3v-8.5c0-0.1,0-0.2,0.1-0.3S81.9,91,82,91h1.5c0.1,0,0.2,0,0.3,0.1s0.1,0.2,0.1,0.3v8.5
				c0,0.1,0,0.2-0.1,0.3s-0.2,0.1-0.3,0.1H82C81.9,100.4,81.8,100.3,81.7,100.2z"/>
			<path class="st4" d="M89.3,100.3c-0.1-0.1-0.2-0.2-0.2-0.3l-3.4-8.4c0,0,0-0.1,0-0.2c0-0.1,0-0.2,0.1-0.3S85.9,91,86,91h1.5
				c0.2,0,0.4,0.1,0.5,0.3l2.4,6.3l2.4-6.3c0-0.1,0.1-0.2,0.2-0.2c0.1-0.1,0.2-0.1,0.3-0.1h1.5c0.1,0,0.2,0,0.3,0.1s0.1,0.2,0.1,0.3
				c0,0.1,0,0.1,0,0.2l-3.4,8.4c-0.1,0.3-0.3,0.5-0.6,0.5h-1.4C89.5,100.4,89.4,100.3,89.3,100.3z"/>
			<path class="st4" d="M101.2,99.5c-0.8-0.7-1.2-1.7-1.3-3l0-0.7l0-0.7c0-1.3,0.5-2.3,1.3-3c0.8-0.7,1.8-1.1,3.2-1.1
				c0.9,0,1.7,0.2,2.4,0.5c0.7,0.3,1.1,0.7,1.5,1.2c0.3,0.5,0.5,1,0.5,1.4c0,0.1,0,0.2-0.1,0.3c-0.1,0.1-0.2,0.1-0.3,0.1h-1.6
				c-0.1,0-0.2,0-0.3-0.1c-0.1-0.1-0.1-0.2-0.2-0.3c-0.2-0.5-0.4-0.8-0.7-1c-0.3-0.2-0.7-0.3-1.1-0.3c-0.6,0-1.1,0.2-1.4,0.6
				c-0.3,0.4-0.5,1-0.5,1.8l0,0.7l0,0.6c0.1,1.6,0.7,2.3,2,2.3c0.5,0,0.8-0.1,1.1-0.3c0.3-0.2,0.5-0.5,0.7-1c0-0.1,0.1-0.2,0.2-0.3
				c0.1-0.1,0.2-0.1,0.3-0.1h1.6c0.1,0,0.2,0,0.3,0.1c0.1,0.1,0.1,0.2,0.1,0.3c0,0.4-0.2,0.9-0.5,1.4c-0.3,0.5-0.8,0.9-1.4,1.3
				c-0.6,0.3-1.5,0.5-2.4,0.5C103.1,100.6,102,100.2,101.2,99.5z"/>
			<path class="st4" d="M110.8,100.2c-0.1-0.1-0.1-0.2-0.1-0.3V88c0-0.1,0-0.2,0.1-0.3s0.2-0.1,0.3-0.1h1.5c0.1,0,0.2,0,0.3,0.1
				s0.1,0.2,0.1,0.3v11.9c0,0.1,0,0.2-0.1,0.3s-0.2,0.1-0.3,0.1h-1.5C111,100.4,110.9,100.3,110.8,100.2z"/>
			<path class="st4" d="M116.5,100.2c-0.5-0.2-0.9-0.6-1.2-1c-0.3-0.4-0.4-0.9-0.4-1.4c0-0.8,0.3-1.5,1-2c0.7-0.5,1.6-0.8,2.7-1
				l2.5-0.4v-0.4c0-0.5-0.1-0.9-0.4-1.2c-0.3-0.3-0.7-0.4-1.3-0.4c-0.4,0-0.7,0.1-1,0.2c-0.2,0.1-0.4,0.3-0.6,0.4
				c-0.2,0.2-0.2,0.2-0.3,0.3c0,0.1-0.1,0.2-0.3,0.2h-1.4c-0.1,0-0.2,0-0.3-0.1c-0.1-0.1-0.1-0.2-0.1-0.3c0-0.3,0.2-0.6,0.4-1
				c0.3-0.4,0.7-0.7,1.3-1c0.6-0.3,1.3-0.4,2.2-0.4c1.4,0,2.4,0.3,3.1,1s1,1.5,1,2.5v5.7c0,0.1,0,0.2-0.1,0.3s-0.2,0.1-0.3,0.1h-1.5
				c-0.1,0-0.2,0-0.3-0.1c-0.1-0.1-0.1-0.2-0.1-0.3v-0.7c-0.3,0.4-0.6,0.7-1.1,0.9c-0.5,0.2-1.1,0.4-1.8,0.4
				C117.5,100.6,117,100.4,116.5,100.2z M120.4,98.2c0.4-0.4,0.6-1.1,0.6-1.9v-0.4l-1.8,0.3c-1.4,0.2-2.1,0.7-2.1,1.4
				c0,0.4,0.2,0.7,0.5,0.9s0.7,0.3,1.1,0.3C119.4,98.8,120,98.6,120.4,98.2z"/>
			<path class="st4" d="M127,100.1c-0.6-0.3-1.1-0.6-1.4-1s-0.4-0.7-0.4-0.9c0-0.1,0-0.2,0.1-0.3c0.1-0.1,0.2-0.1,0.3-0.1h1.5
				c0.1,0,0.2,0,0.3,0.1c0.1,0,0.2,0.2,0.4,0.3c0.2,0.2,0.5,0.3,0.7,0.4c0.3,0.1,0.6,0.2,0.9,0.2c0.5,0,0.9-0.1,1.2-0.3
				c0.3-0.2,0.4-0.5,0.4-0.8c0-0.2-0.1-0.4-0.2-0.6c-0.1-0.1-0.4-0.3-0.7-0.4s-0.9-0.3-1.6-0.4c-1-0.2-1.8-0.5-2.3-1
				c-0.5-0.4-0.7-1-0.7-1.8c0-0.5,0.1-0.9,0.4-1.4s0.7-0.8,1.3-1c0.6-0.3,1.3-0.4,2-0.4c0.8,0,1.5,0.1,2.1,0.4
				c0.6,0.3,1,0.6,1.3,0.9c0.3,0.4,0.5,0.7,0.5,1c0,0.1,0,0.2-0.1,0.3c-0.1,0.1-0.2,0.1-0.3,0.1h-1.4c-0.1,0-0.2,0-0.3-0.1
				c-0.1-0.1-0.2-0.2-0.4-0.3s-0.4-0.3-0.6-0.4c-0.2-0.1-0.5-0.1-0.8-0.1c-0.4,0-0.8,0.1-1,0.3c-0.2,0.2-0.4,0.4-0.4,0.8
				c0,0.2,0.1,0.4,0.2,0.5c0.1,0.1,0.3,0.3,0.7,0.4c0.3,0.1,0.9,0.3,1.6,0.4c2.2,0.4,3.2,1.4,3.2,2.8c0,0.9-0.4,1.5-1.1,2.1
				c-0.7,0.5-1.8,0.8-3.1,0.8C128.4,100.6,127.6,100.4,127,100.1z"/>
			<path class="st4" d="M136.6,100.1c-0.6-0.3-1.1-0.6-1.4-1s-0.4-0.7-0.4-0.9c0-0.1,0-0.2,0.1-0.3c0.1-0.1,0.2-0.1,0.3-0.1h1.5
				c0.1,0,0.2,0,0.3,0.1c0.1,0,0.2,0.2,0.4,0.3c0.2,0.2,0.5,0.3,0.7,0.4c0.3,0.1,0.6,0.2,0.9,0.2c0.5,0,0.9-0.1,1.2-0.3
				c0.3-0.2,0.4-0.5,0.4-0.8c0-0.2-0.1-0.4-0.2-0.6c-0.1-0.1-0.4-0.3-0.7-0.4s-0.9-0.3-1.6-0.4c-1-0.2-1.8-0.5-2.3-1
				c-0.5-0.4-0.7-1-0.7-1.8c0-0.5,0.1-0.9,0.4-1.4s0.7-0.8,1.3-1c0.6-0.3,1.3-0.4,2-0.4c0.8,0,1.5,0.1,2.1,0.4
				c0.6,0.3,1,0.6,1.3,0.9c0.3,0.4,0.5,0.7,0.5,1c0,0.1,0,0.2-0.1,0.3c-0.1,0.1-0.2,0.1-0.3,0.1H141c-0.1,0-0.2,0-0.3-0.1
				c-0.1-0.1-0.2-0.2-0.4-0.3s-0.4-0.3-0.6-0.4c-0.2-0.1-0.5-0.1-0.8-0.1c-0.4,0-0.8,0.1-1,0.3c-0.2,0.2-0.4,0.4-0.4,0.8
				c0,0.2,0.1,0.4,0.2,0.5c0.1,0.1,0.3,0.3,0.7,0.4c0.3,0.1,0.9,0.3,1.6,0.4c2.2,0.4,3.2,1.4,3.2,2.8c0,0.9-0.4,1.5-1.1,2.1
				c-0.7,0.5-1.8,0.8-3.1,0.8C138,100.6,137.2,100.4,136.6,100.1z"/>
			<path class="st4" d="M145,93.5c-0.1-0.1-0.1-0.2-0.1-0.3v-1c0-0.1,0-0.2,0.1-0.3c0.1-0.1,0.2-0.1,0.3-0.1h7c0.1,0,0.2,0,0.3,0.1
				c0.1,0.1,0.1,0.2,0.1,0.3v1c0,0.1,0,0.2-0.1,0.3c-0.1,0.1-0.2,0.1-0.3,0.1h-7C145.2,93.7,145.1,93.6,145,93.5z M145,98
				c-0.1-0.1-0.1-0.2-0.1-0.3v-1c0-0.1,0-0.2,0.1-0.3c0.1-0.1,0.2-0.1,0.3-0.1h7c0.1,0,0.2,0,0.3,0.1c0.1,0.1,0.1,0.2,0.1,0.3v1
				c0,0.1,0,0.2-0.1,0.3c-0.1,0.1-0.2,0.1-0.3,0.1h-7C145.2,98.2,145.1,98.1,145,98z"/>
			<path class="st4" d="M155.2,91.5l-0.4-3.5c0-0.1,0-0.3,0.1-0.4c0.1-0.1,0.2-0.1,0.3-0.1h1.6c0.1,0,0.2,0,0.3,0.1s0.1,0.2,0.1,0.4
				l-0.4,3.5c0,0.3-0.2,0.4-0.5,0.4h-0.8C155.4,92,155.2,91.8,155.2,91.5z M158.5,91.5l-0.4-3.5c0-0.1,0-0.3,0.1-0.4
				c0.1-0.1,0.2-0.1,0.3-0.1h1.6c0.1,0,0.2,0,0.3,0.1c0.1,0.1,0.1,0.2,0.1,0.4l-0.4,3.5c0,0.3-0.2,0.4-0.4,0.4h-0.8
				C158.7,92,158.5,91.8,158.5,91.5z"/>
			<path class="st4" d="M165,99.3v0.7c0,0.1,0,0.2-0.1,0.3s-0.2,0.1-0.3,0.1h-1.4c-0.1,0-0.2,0-0.3-0.1s-0.1-0.2-0.1-0.3V88
				c0-0.1,0-0.2,0.1-0.3s0.2-0.1,0.3-0.1h1.6c0.1,0,0.2,0,0.3,0.1c0.1,0.1,0.1,0.2,0.1,0.3v4c0.7-0.8,1.6-1.2,2.8-1.2
				c1.2,0,2.1,0.4,2.8,1.2c0.7,0.8,1,1.8,1,3.1c0,0.1,0,0.3,0,0.6c0,0.2,0,0.4,0,0.6c0,1.3-0.4,2.3-1,3.1c-0.6,0.8-1.6,1.2-2.8,1.2
				C166.6,100.6,165.6,100.1,165,99.3z M169.2,96.2c0-0.1,0-0.3,0-0.5c0-0.2,0-0.4,0-0.5c-0.1-1.6-0.8-2.4-2.1-2.4
				c-0.7,0-1.2,0.2-1.5,0.6s-0.5,0.9-0.6,1.5c0,0.1,0,0.4,0,0.7c0,0.3,0,0.5,0,0.7c0,0.6,0.2,1.2,0.5,1.6c0.3,0.4,0.8,0.7,1.5,0.7
				C168.4,98.6,169.1,97.8,169.2,96.2z"/>
			<path class="st4" d="M175.4,99.5c-0.6-0.6-0.8-1.4-0.8-2.5v-4.1h-1.4c-0.1,0-0.2,0-0.3-0.1s-0.1-0.2-0.1-0.3v-1.1
				c0-0.1,0-0.2,0.1-0.3s0.2-0.1,0.3-0.1h1.4v-3c0-0.1,0-0.2,0.1-0.3s0.2-0.1,0.3-0.1h1.5c0.1,0,0.2,0,0.3,0.1s0.1,0.2,0.1,0.3v3
				h2.2c0.1,0,0.2,0,0.3,0.1c0.1,0.1,0.1,0.2,0.1,0.3v1.1c0,0.1,0,0.2-0.1,0.3c-0.1,0.1-0.2,0.1-0.3,0.1h-2.2v3.9
				c0,0.5,0.1,0.9,0.3,1.2c0.2,0.3,0.5,0.4,0.9,0.4h1.3c0.1,0,0.2,0,0.3,0.1c0.1,0.1,0.1,0.2,0.1,0.3v1.1c0,0.1,0,0.2-0.1,0.3
				c-0.1,0.1-0.2,0.1-0.3,0.1h-1.5C176.8,100.4,175.9,100.1,175.4,99.5z"/>
			<path class="st4" d="M181.5,100.2c-0.1-0.1-0.1-0.2-0.1-0.3v-8.5c0-0.1,0-0.2,0.1-0.3s0.2-0.1,0.3-0.1h1.5c0.1,0,0.2,0,0.3,0.1
				c0.1,0.1,0.1,0.2,0.1,0.3v0.7c0.7-0.9,1.7-1.3,3-1.3c1.1,0,2,0.4,2.6,1.1c0.6,0.7,1,1.7,1,3v5.1c0,0.1,0,0.2-0.1,0.3
				c-0.1,0.1-0.2,0.1-0.3,0.1h-1.6c-0.1,0-0.2,0-0.3-0.1s-0.1-0.2-0.1-0.3V95c0-0.7-0.2-1.2-0.5-1.6c-0.3-0.4-0.8-0.6-1.5-0.6
				c-0.6,0-1.1,0.2-1.5,0.6c-0.4,0.4-0.6,0.9-0.6,1.6v4.9c0,0.1,0,0.2-0.1,0.3c-0.1,0.1-0.2,0.1-0.3,0.1h-1.6
				C181.7,100.4,181.6,100.3,181.5,100.2z"/>
			<path class="st4" d="M192.7,95.9c-0.1-0.1-0.1-0.2-0.1-0.3v-1.2c0-0.1,0-0.2,0.1-0.3c0.1-0.1,0.2-0.1,0.3-0.1h5.5
				c0.1,0,0.2,0,0.3,0.1c0.1,0.1,0.1,0.2,0.1,0.3v1.2c0,0.1,0,0.2-0.1,0.3s-0.2,0.1-0.3,0.1H193C192.8,96,192.7,96,192.7,95.9z"/>
			<path class="st4" d="M202.8,99.5c-0.6-0.6-0.8-1.4-0.8-2.5v-4.1h-1.4c-0.1,0-0.2,0-0.3-0.1s-0.1-0.2-0.1-0.3v-1.1
				c0-0.1,0-0.2,0.1-0.3s0.2-0.1,0.3-0.1h1.4v-3c0-0.1,0-0.2,0.1-0.3s0.2-0.1,0.3-0.1h1.5c0.1,0,0.2,0,0.3,0.1s0.1,0.2,0.1,0.3v3
				h2.2c0.1,0,0.2,0,0.3,0.1c0.1,0.1,0.1,0.2,0.1,0.3v1.1c0,0.1,0,0.2-0.1,0.3c-0.1,0.1-0.2,0.1-0.3,0.1h-2.2v3.9
				c0,0.5,0.1,0.9,0.3,1.2c0.2,0.3,0.5,0.4,0.9,0.4h1.3c0.1,0,0.2,0,0.3,0.1c0.1,0.1,0.1,0.2,0.1,0.3v1.1c0,0.1,0,0.2-0.1,0.3
				c-0.1,0.1-0.2,0.1-0.3,0.1h-1.5C204.2,100.4,203.4,100.1,202.8,99.5z"/>
			<path class="st4" d="M209.7,99.5c-0.8-0.7-1.2-1.7-1.2-3l0-0.8l0-0.8c0.1-1.3,0.5-2.3,1.3-3c0.8-0.7,1.9-1.1,3.3-1.1
				c1.4,0,2.5,0.4,3.2,1.1c0.8,0.7,1.2,1.7,1.3,3c0,0.1,0,0.4,0,0.8c0,0.4,0,0.6,0,0.8c-0.1,1.3-0.5,2.3-1.2,3
				c-0.8,0.7-1.9,1.1-3.3,1.1C211.5,100.6,210.5,100.2,209.7,99.5z M214.4,98.1c0.3-0.4,0.5-1,0.5-1.7c0-0.1,0-0.4,0-0.7
				c0-0.3,0-0.6,0-0.7c0-0.8-0.2-1.4-0.6-1.8c-0.3-0.4-0.8-0.6-1.5-0.6c-0.6,0-1.1,0.2-1.5,0.6c-0.3,0.4-0.5,1-0.6,1.8l0,0.7l0,0.7
				c0,0.8,0.2,1.4,0.6,1.7c0.3,0.4,0.8,0.6,1.5,0.6C213.6,98.7,214.1,98.5,214.4,98.1z"/>
			<path class="st4" d="M63.8,124.3v0.7c0,0.1,0,0.2-0.1,0.3s-0.2,0.1-0.3,0.1h-1.4c-0.1,0-0.2,0-0.3-0.1s-0.1-0.2-0.1-0.3V113
				c0-0.1,0-0.2,0.1-0.3s0.2-0.1,0.3-0.1h1.6c0.1,0,0.2,0,0.3,0.1c0.1,0.1,0.1,0.2,0.1,0.3v4c0.7-0.8,1.6-1.2,2.8-1.2
				c1.2,0,2.1,0.4,2.8,1.2c0.7,0.8,1,1.8,1,3.1c0,0.1,0,0.3,0,0.6c0,0.2,0,0.4,0,0.6c0,1.3-0.4,2.3-1,3.1c-0.6,0.8-1.6,1.2-2.8,1.2
				C65.4,125.6,64.5,125.1,63.8,124.3z M68,121.2c0-0.1,0-0.3,0-0.5c0-0.2,0-0.4,0-0.5c-0.1-1.6-0.8-2.4-2.1-2.4
				c-0.7,0-1.2,0.2-1.5,0.6s-0.5,0.9-0.6,1.5c0,0.1,0,0.4,0,0.7c0,0.3,0,0.5,0,0.7c0,0.6,0.2,1.2,0.5,1.6c0.3,0.4,0.8,0.7,1.5,0.7
				C67.3,123.6,67.9,122.8,68,121.2z"/>
			<path class="st4" d="M73.4,124.4c-0.8-0.8-1.2-1.9-1.3-3.3l0-0.5c0-1.5,0.4-2.7,1.2-3.5c0.8-0.9,1.9-1.3,3.3-1.3
				c1.4,0,2.5,0.4,3.3,1.3s1.2,2,1.2,3.5v0.4c0,0.1,0,0.2-0.1,0.3c-0.1,0.1-0.2,0.1-0.3,0.1h-6v0.1c0,0.7,0.2,1.2,0.5,1.7
				c0.3,0.4,0.8,0.7,1.4,0.7c0.7,0,1.2-0.3,1.7-0.8c0.1-0.1,0.2-0.2,0.3-0.2s0.2,0,0.3,0h1.6c0.1,0,0.2,0,0.3,0.1
				c0.1,0.1,0.1,0.1,0.1,0.3c0,0.3-0.2,0.6-0.5,1c-0.3,0.4-0.8,0.7-1.5,1c-0.6,0.3-1.4,0.4-2.2,0.4
				C75.2,125.6,74.2,125.2,73.4,124.4z M78.5,119.9L78.5,119.9c0-0.7-0.2-1.3-0.5-1.7s-0.8-0.6-1.4-0.6c-0.6,0-1.1,0.2-1.4,0.6
				s-0.5,1-0.5,1.7v0H78.5z"/>
			<path class="st4" d="M83.1,125.2c-0.1-0.1-0.1-0.2-0.1-0.3V113c0-0.1,0-0.2,0.1-0.3s0.2-0.1,0.3-0.1h1.5c0.1,0,0.2,0,0.3,0.1
				s0.1,0.2,0.1,0.3v11.9c0,0.1,0,0.2-0.1,0.3s-0.2,0.1-0.3,0.1h-1.5C83.2,125.4,83.1,125.3,83.1,125.2z"/>
			<path class="st4" d="M87.8,118.5c-0.1-0.1-0.1-0.2-0.1-0.3v-1c0-0.1,0-0.2,0.1-0.3c0.1-0.1,0.2-0.1,0.3-0.1h7
				c0.1,0,0.2,0,0.3,0.1c0.1,0.1,0.1,0.2,0.1,0.3v1c0,0.1,0,0.2-0.1,0.3c-0.1,0.1-0.2,0.1-0.3,0.1h-7
				C88,118.7,87.9,118.6,87.8,118.5z M87.8,123c-0.1-0.1-0.1-0.2-0.1-0.3v-1c0-0.1,0-0.2,0.1-0.3c0.1-0.1,0.2-0.1,0.3-0.1h7
				c0.1,0,0.2,0,0.3,0.1c0.1,0.1,0.1,0.2,0.1,0.3v1c0,0.1,0,0.2-0.1,0.3c-0.1,0.1-0.2,0.1-0.3,0.1h-7C88,123.2,87.9,123.1,87.8,123z
				"/>
			<path class="st4" d="M98,116.5l-0.4-3.5c0-0.1,0-0.3,0.1-0.4c0.1-0.1,0.2-0.1,0.3-0.1h1.6c0.1,0,0.2,0,0.3,0.1s0.1,0.2,0.1,0.4
				l-0.4,3.5c0,0.3-0.2,0.4-0.5,0.4h-0.8C98.2,117,98,116.8,98,116.5z M101.3,116.5l-0.4-3.5c0-0.1,0-0.3,0.1-0.4
				c0.1-0.1,0.2-0.1,0.3-0.1h1.6c0.1,0,0.2,0,0.3,0.1c0.1,0.1,0.1,0.2,0.1,0.4l-0.4,3.5c0,0.3-0.2,0.4-0.4,0.4h-0.8
				C101.5,117,101.3,116.8,101.3,116.5z"/>
			<path class="st4" d="M108.5,125.2c-0.1-0.1-0.1-0.2-0.1-0.3V115h-3.3c-0.1,0-0.2,0-0.3-0.1c-0.1-0.1-0.1-0.2-0.1-0.3v-1.4
				c0-0.1,0-0.2,0.1-0.3c0.1-0.1,0.2-0.1,0.3-0.1h9.2c0.1,0,0.2,0,0.3,0.1c0.1,0.1,0.1,0.2,0.1,0.3v1.4c0,0.1,0,0.2-0.1,0.3
				c-0.1,0.1-0.2,0.1-0.3,0.1h-3.3v9.9c0,0.1,0,0.2-0.1,0.3c-0.1,0.1-0.2,0.1-0.3,0.1h-1.7C108.7,125.4,108.6,125.3,108.5,125.2z"/>
			<path class="st4" d="M115.5,124.5c-0.8-0.7-1.2-1.7-1.2-3l0-0.8l0-0.8c0.1-1.3,0.5-2.3,1.3-3c0.8-0.7,1.9-1.1,3.3-1.1
				c1.4,0,2.5,0.4,3.2,1.1c0.8,0.7,1.2,1.7,1.3,3c0,0.1,0,0.4,0,0.8c0,0.4,0,0.6,0,0.8c-0.1,1.3-0.5,2.3-1.2,3
				c-0.8,0.7-1.9,1.1-3.3,1.1C117.4,125.6,116.3,125.2,115.5,124.5z M120.3,123.1c0.3-0.4,0.5-1,0.5-1.7c0-0.1,0-0.4,0-0.7
				c0-0.3,0-0.6,0-0.7c0-0.8-0.2-1.4-0.6-1.8c-0.3-0.4-0.8-0.6-1.5-0.6c-0.6,0-1.1,0.2-1.5,0.6c-0.3,0.4-0.5,1-0.6,1.8l0,0.7l0,0.7
				c0,0.8,0.2,1.4,0.6,1.7c0.3,0.4,0.8,0.6,1.5,0.6C119.4,123.7,119.9,123.5,120.3,123.1z"/>
			<path class="st4" d="M126.2,124.5c-0.8-0.7-1.2-1.7-1.2-3l0-0.8l0-0.8c0.1-1.3,0.5-2.3,1.3-3c0.8-0.7,1.9-1.1,3.3-1.1
				c1.4,0,2.5,0.4,3.2,1.1c0.8,0.7,1.2,1.7,1.3,3c0,0.1,0,0.4,0,0.8c0,0.4,0,0.6,0,0.8c-0.1,1.3-0.5,2.3-1.2,3
				c-0.8,0.7-1.9,1.1-3.3,1.1C128.1,125.6,127,125.2,126.2,124.5z M130.9,123.1c0.3-0.4,0.5-1,0.5-1.7c0-0.1,0-0.4,0-0.7
				c0-0.3,0-0.6,0-0.7c0-0.8-0.2-1.4-0.6-1.8c-0.3-0.4-0.8-0.6-1.5-0.6c-0.6,0-1.1,0.2-1.5,0.6c-0.3,0.4-0.5,1-0.6,1.8l0,0.7l0,0.7
				c0,0.8,0.2,1.4,0.6,1.7c0.3,0.4,0.8,0.6,1.5,0.6C130.1,123.7,130.6,123.5,130.9,123.1z"/>
			<path class="st4" d="M136.1,125.2c-0.1-0.1-0.1-0.2-0.1-0.3V113c0-0.1,0-0.2,0.1-0.3s0.2-0.1,0.3-0.1h1.5c0.1,0,0.2,0,0.3,0.1
				s0.1,0.2,0.1,0.3v11.9c0,0.1,0,0.2-0.1,0.3s-0.2,0.1-0.3,0.1h-1.5C136.3,125.4,136.2,125.3,136.1,125.2z"/>
			<path class="st4" d="M143.1,124.3v0.7c0,0.1,0,0.2-0.1,0.3s-0.2,0.1-0.3,0.1h-1.4c-0.1,0-0.2,0-0.3-0.1s-0.1-0.2-0.1-0.3V113
				c0-0.1,0-0.2,0.1-0.3s0.2-0.1,0.3-0.1h1.6c0.1,0,0.2,0,0.3,0.1c0.1,0.1,0.1,0.2,0.1,0.3v4c0.7-0.8,1.6-1.2,2.8-1.2
				c1.2,0,2.1,0.4,2.8,1.2c0.7,0.8,1,1.8,1,3.1c0,0.1,0,0.3,0,0.6c0,0.2,0,0.4,0,0.6c0,1.3-0.4,2.3-1,3.1c-0.6,0.8-1.6,1.2-2.8,1.2
				C144.7,125.6,143.8,125.1,143.1,124.3z M147.4,121.2c0-0.1,0-0.3,0-0.5c0-0.2,0-0.4,0-0.5c-0.1-1.6-0.8-2.4-2.1-2.4
				c-0.7,0-1.2,0.2-1.5,0.6s-0.5,0.9-0.6,1.5c0,0.1,0,0.4,0,0.7c0,0.3,0,0.5,0,0.7c0,0.6,0.2,1.2,0.5,1.6c0.3,0.4,0.8,0.7,1.5,0.7
				C146.6,123.6,147.3,122.8,147.4,121.2z"/>
			<path class="st4" d="M152.9,125.2c-0.5-0.2-0.9-0.6-1.2-1c-0.3-0.4-0.4-0.9-0.4-1.4c0-0.8,0.3-1.5,1-2c0.7-0.5,1.6-0.8,2.7-1
				l2.5-0.4v-0.4c0-0.5-0.1-0.9-0.4-1.2c-0.3-0.3-0.7-0.4-1.3-0.4c-0.4,0-0.7,0.1-1,0.2c-0.2,0.1-0.4,0.3-0.6,0.4
				c-0.2,0.2-0.2,0.2-0.3,0.3c0,0.1-0.1,0.2-0.3,0.2h-1.4c-0.1,0-0.2,0-0.3-0.1c-0.1-0.1-0.1-0.2-0.1-0.3c0-0.3,0.2-0.6,0.4-1
				c0.3-0.4,0.7-0.7,1.3-1c0.6-0.3,1.3-0.4,2.2-0.4c1.4,0,2.4,0.3,3.1,1s1,1.5,1,2.5v5.7c0,0.1,0,0.2-0.1,0.3s-0.2,0.1-0.3,0.1h-1.5
				c-0.1,0-0.2,0-0.3-0.1c-0.1-0.1-0.1-0.2-0.1-0.3v-0.7c-0.3,0.4-0.6,0.7-1.1,0.9c-0.5,0.2-1.1,0.4-1.8,0.4
				C153.9,125.6,153.4,125.4,152.9,125.2z M156.8,123.2c0.4-0.4,0.6-1.1,0.6-1.9v-0.4l-1.8,0.3c-1.4,0.2-2.1,0.7-2.1,1.4
				c0,0.4,0.2,0.7,0.5,0.9s0.7,0.3,1.1,0.3C155.8,123.8,156.4,123.6,156.8,123.2z"/>
			<path class="st4" d="M162.3,125.2c-0.1-0.1-0.1-0.2-0.1-0.3v-8.5c0-0.1,0-0.2,0.1-0.3s0.2-0.1,0.3-0.1h1.5c0.1,0,0.2,0,0.3,0.1
				s0.1,0.2,0.1,0.3v0.7c0.6-0.8,1.5-1.2,2.6-1.2h0.8c0.1,0,0.2,0,0.3,0.1s0.1,0.2,0.1,0.3v1.3c0,0.1,0,0.2-0.1,0.3
				c-0.1,0.1-0.2,0.1-0.3,0.1h-1.4c-0.6,0-1,0.2-1.3,0.5c-0.3,0.3-0.5,0.8-0.5,1.3v4.9c0,0.1,0,0.2-0.1,0.3s-0.2,0.1-0.3,0.1h-1.6
				C162.4,125.4,162.3,125.3,162.3,125.2z"/>
			<path class="st4" d="M175,124.9l-2.6-8.4c0,0,0-0.1,0-0.2c0-0.1,0-0.2,0.1-0.3s0.2-0.1,0.3-0.1h1.4c0.1,0,0.2,0,0.3,0.1
				c0.1,0.1,0.1,0.1,0.2,0.2l1.7,5.9l1.9-5.9c0-0.1,0.1-0.2,0.2-0.3c0.1-0.1,0.2-0.1,0.4-0.1h0.9c0.1,0,0.3,0,0.4,0.1
				c0.1,0.1,0.1,0.2,0.2,0.3l1.9,5.9l1.7-5.9c0-0.1,0.1-0.2,0.2-0.2c0.1-0.1,0.2-0.1,0.3-0.1h1.4c0.1,0,0.2,0,0.3,0.1
				c0.1,0.1,0.1,0.2,0.1,0.3l0,0.2l-2.6,8.4c0,0.1-0.1,0.3-0.2,0.3c-0.1,0.1-0.2,0.1-0.4,0.1h-1.2c-0.3,0-0.5-0.2-0.6-0.5l-1.9-5.7
				l-1.9,5.7c-0.1,0.3-0.3,0.5-0.6,0.5h-1.2C175.3,125.4,175.1,125.2,175,124.9z"/>
			<path class="st4" d="M187.8,114.4c-0.1-0.1-0.1-0.2-0.1-0.3v-1.3c0-0.1,0-0.2,0.1-0.3c0.1-0.1,0.2-0.1,0.3-0.1h1.7
				c0.1,0,0.2,0,0.3,0.1s0.1,0.2,0.1,0.3v1.3c0,0.1,0,0.2-0.1,0.3c-0.1,0.1-0.2,0.1-0.3,0.1h-1.7C188,114.5,187.9,114.4,187.8,114.4
				z M187.9,125.2c-0.1-0.1-0.1-0.2-0.1-0.3v-8.5c0-0.1,0-0.2,0.1-0.3s0.2-0.1,0.3-0.1h1.5c0.1,0,0.2,0,0.3,0.1s0.1,0.2,0.1,0.3v8.5
				c0,0.1,0,0.2-0.1,0.3s-0.2,0.1-0.3,0.1h-1.5C188.1,125.4,188,125.3,187.9,125.2z"/>
			<path class="st4" d="M194.3,124.5c-0.6-0.6-0.8-1.4-0.8-2.5v-4.1h-1.4c-0.1,0-0.2,0-0.3-0.1s-0.1-0.2-0.1-0.3v-1.1
				c0-0.1,0-0.2,0.1-0.3s0.2-0.1,0.3-0.1h1.4v-3c0-0.1,0-0.2,0.1-0.3s0.2-0.1,0.3-0.1h1.5c0.1,0,0.2,0,0.3,0.1s0.1,0.2,0.1,0.3v3
				h2.2c0.1,0,0.2,0,0.3,0.1c0.1,0.1,0.1,0.2,0.1,0.3v1.1c0,0.1,0,0.2-0.1,0.3c-0.1,0.1-0.2,0.1-0.3,0.1h-2.2v3.9
				c0,0.5,0.1,0.9,0.3,1.2c0.2,0.3,0.5,0.4,0.9,0.4h1.3c0.1,0,0.2,0,0.3,0.1c0.1,0.1,0.1,0.2,0.1,0.3v1.1c0,0.1,0,0.2-0.1,0.3
				c-0.1,0.1-0.2,0.1-0.3,0.1h-1.5C195.7,125.4,194.9,125.1,194.3,124.5z"/>
			<path class="st4" d="M200.5,125.2c-0.1-0.1-0.1-0.2-0.1-0.3V113c0-0.1,0-0.2,0.1-0.3s0.2-0.1,0.3-0.1h1.6c0.1,0,0.2,0,0.3,0.1
				s0.1,0.2,0.1,0.3v4.1c0.7-0.9,1.7-1.3,2.9-1.3c1.1,0,2,0.4,2.6,1.1c0.7,0.7,1,1.7,1,3v5.1c0,0.1,0,0.2-0.1,0.3s-0.2,0.1-0.3,0.1
				h-1.6c-0.1,0-0.2,0-0.3-0.1c-0.1-0.1-0.1-0.2-0.1-0.3V120c0-0.7-0.2-1.2-0.5-1.6c-0.3-0.4-0.8-0.6-1.5-0.6
				c-0.6,0-1.1,0.2-1.5,0.6c-0.4,0.4-0.6,0.9-0.6,1.6v4.9c0,0.1,0,0.2-0.1,0.3s-0.2,0.1-0.3,0.1h-1.6
				C200.6,125.4,200.5,125.3,200.5,125.2z"/>
			<path class="st4" d="M75.7,149.2l-6.1-4.2c-0.2-0.1-0.3-0.2-0.4-0.4c-0.1-0.1-0.1-0.3-0.1-0.4v-0.4c0-0.2,0-0.3,0.1-0.4
				s0.2-0.2,0.4-0.4l6.1-4.2c0.1-0.1,0.3-0.2,0.4-0.2s0.2,0,0.3,0.1c0.1,0.1,0.1,0.2,0.1,0.3v1.4c0,0.2,0,0.3-0.1,0.4
				c-0.1,0.1-0.2,0.2-0.3,0.3l-4.4,2.9L76,147c0.2,0.1,0.3,0.2,0.3,0.3c0.1,0.1,0.1,0.2,0.1,0.4v1.4c0,0.1,0,0.2-0.1,0.3
				c-0.1,0.1-0.2,0.1-0.3,0.1C75.9,149.4,75.8,149.3,75.7,149.2z"/>
			<path class="st4" d="M79.4,149.4c-0.6-0.8-1-1.8-1.1-3.1l0-0.6l0-0.6c0-1.3,0.4-2.3,1.1-3.1c0.7-0.8,1.6-1.2,2.8-1.2
				c1.2,0,2.1,0.4,2.8,1.2v-4c0-0.1,0-0.2,0.1-0.3s0.2-0.1,0.3-0.1H87c0.1,0,0.2,0,0.3,0.1s0.1,0.2,0.1,0.3v11.9
				c0,0.1,0,0.2-0.1,0.3s-0.2,0.1-0.3,0.1h-1.5c-0.1,0-0.2,0-0.3-0.1s-0.1-0.2-0.1-0.3v-0.7c-0.7,0.9-1.6,1.3-2.9,1.3
				C81,150.6,80.1,150.2,79.4,149.4z M84.4,148c0.3-0.4,0.5-1,0.5-1.6c0-0.1,0-0.4,0-0.7c0-0.3,0-0.6,0-0.7c0-0.6-0.2-1.1-0.6-1.5
				s-0.9-0.6-1.5-0.6c-1.3,0-2,0.8-2.1,2.4l0,0.5l0,0.5c0.1,1.6,0.8,2.4,2.1,2.4C83.6,148.6,84.1,148.4,84.4,148z"/>
			<path class="st4" d="M89.9,139.4c-0.1-0.1-0.1-0.2-0.1-0.3v-1.3c0-0.1,0-0.2,0.1-0.3c0.1-0.1,0.2-0.1,0.3-0.1h1.7
				c0.1,0,0.2,0,0.3,0.1s0.1,0.2,0.1,0.3v1.3c0,0.1,0,0.2-0.1,0.3c-0.1,0.1-0.2,0.1-0.3,0.1h-1.7C90,139.5,89.9,139.4,89.9,139.4z
				 M89.9,150.2c-0.1-0.1-0.1-0.2-0.1-0.3v-8.5c0-0.1,0-0.2,0.1-0.3s0.2-0.1,0.3-0.1h1.5c0.1,0,0.2,0,0.3,0.1s0.1,0.2,0.1,0.3v8.5
				c0,0.1,0,0.2-0.1,0.3s-0.2,0.1-0.3,0.1h-1.5C90.1,150.4,90,150.3,89.9,150.2z"/>
			<path class="st4" d="M97.5,150.3c-0.1-0.1-0.2-0.2-0.2-0.3l-3.4-8.4c0,0,0-0.1,0-0.2c0-0.1,0-0.2,0.1-0.3s0.2-0.1,0.3-0.1h1.5
				c0.2,0,0.4,0.1,0.5,0.3l2.4,6.3l2.4-6.3c0-0.1,0.1-0.2,0.2-0.2c0.1-0.1,0.2-0.1,0.3-0.1h1.5c0.1,0,0.2,0,0.3,0.1s0.1,0.2,0.1,0.3
				c0,0.1,0,0.1,0,0.2l-3.4,8.4c-0.1,0.3-0.3,0.5-0.6,0.5h-1.4C97.7,150.4,97.6,150.3,97.5,150.3z"/>
			<path class="st4" d="M109.5,149.5c-0.8-0.7-1.2-1.7-1.3-3l0-0.7l0-0.7c0-1.3,0.5-2.3,1.3-3c0.8-0.7,1.8-1.1,3.2-1.1
				c0.9,0,1.7,0.2,2.4,0.5c0.7,0.3,1.1,0.7,1.5,1.2c0.3,0.5,0.5,1,0.5,1.4c0,0.1,0,0.2-0.1,0.3c-0.1,0.1-0.2,0.1-0.3,0.1H115
				c-0.1,0-0.2,0-0.3-0.1c-0.1-0.1-0.1-0.2-0.2-0.3c-0.2-0.5-0.4-0.8-0.7-1c-0.3-0.2-0.7-0.3-1.1-0.3c-0.6,0-1.1,0.2-1.4,0.6
				c-0.3,0.4-0.5,1-0.5,1.8l0,0.7l0,0.6c0.1,1.6,0.7,2.3,2,2.3c0.5,0,0.8-0.1,1.1-0.3c0.3-0.2,0.5-0.5,0.7-1c0-0.1,0.1-0.2,0.2-0.3
				c0.1-0.1,0.2-0.1,0.3-0.1h1.6c0.1,0,0.2,0,0.3,0.1c0.1,0.1,0.1,0.2,0.1,0.3c0,0.4-0.2,0.9-0.5,1.4c-0.3,0.5-0.8,0.9-1.4,1.3
				c-0.6,0.3-1.5,0.5-2.4,0.5C111.3,150.6,110.2,150.2,109.5,149.5z"/>
			<path class="st4" d="M119,150.2c-0.1-0.1-0.1-0.2-0.1-0.3V138c0-0.1,0-0.2,0.1-0.3s0.2-0.1,0.3-0.1h1.5c0.1,0,0.2,0,0.3,0.1
				s0.1,0.2,0.1,0.3v11.9c0,0.1,0,0.2-0.1,0.3s-0.2,0.1-0.3,0.1h-1.5C119.2,150.4,119.1,150.3,119,150.2z"/>
			<path class="st4" d="M124.7,150.2c-0.5-0.2-0.9-0.6-1.2-1c-0.3-0.4-0.4-0.9-0.4-1.4c0-0.8,0.3-1.5,1-2c0.7-0.5,1.6-0.8,2.7-1
				l2.5-0.4v-0.4c0-0.5-0.1-0.9-0.4-1.2c-0.3-0.3-0.7-0.4-1.3-0.4c-0.4,0-0.7,0.1-1,0.2c-0.2,0.1-0.4,0.3-0.6,0.4
				c-0.2,0.2-0.2,0.2-0.3,0.3c0,0.1-0.1,0.2-0.3,0.2H124c-0.1,0-0.2,0-0.3-0.1c-0.1-0.1-0.1-0.2-0.1-0.3c0-0.3,0.2-0.6,0.4-1
				c0.3-0.4,0.7-0.7,1.3-1c0.6-0.3,1.3-0.4,2.2-0.4c1.4,0,2.4,0.3,3.1,1s1,1.5,1,2.5v5.7c0,0.1,0,0.2-0.1,0.3s-0.2,0.1-0.3,0.1h-1.5
				c-0.1,0-0.2,0-0.3-0.1c-0.1-0.1-0.1-0.2-0.1-0.3v-0.7c-0.3,0.4-0.6,0.7-1.1,0.9c-0.5,0.2-1.1,0.4-1.8,0.4
				C125.8,150.6,125.2,150.4,124.7,150.2z M128.6,148.2c0.4-0.4,0.6-1.1,0.6-1.9v-0.4l-1.8,0.3c-1.4,0.2-2.1,0.7-2.1,1.4
				c0,0.4,0.2,0.7,0.5,0.9s0.7,0.3,1.1,0.3C127.6,148.8,128.2,148.6,128.6,148.2z"/>
			<path class="st4" d="M135.2,150.1c-0.6-0.3-1.1-0.6-1.4-1s-0.4-0.7-0.4-0.9c0-0.1,0-0.2,0.1-0.3c0.1-0.1,0.2-0.1,0.3-0.1h1.5
				c0.1,0,0.2,0,0.3,0.1c0.1,0,0.2,0.2,0.4,0.3c0.2,0.2,0.5,0.3,0.7,0.4c0.3,0.1,0.6,0.2,0.9,0.2c0.5,0,0.9-0.1,1.2-0.3
				c0.3-0.2,0.4-0.5,0.4-0.8c0-0.2-0.1-0.4-0.2-0.6c-0.1-0.1-0.4-0.3-0.7-0.4s-0.9-0.3-1.6-0.4c-1-0.2-1.8-0.5-2.3-1
				c-0.5-0.4-0.7-1-0.7-1.8c0-0.5,0.1-0.9,0.4-1.4s0.7-0.8,1.3-1c0.6-0.3,1.3-0.4,2-0.4c0.8,0,1.5,0.1,2.1,0.4
				c0.6,0.3,1,0.6,1.3,0.9c0.3,0.4,0.5,0.7,0.5,1c0,0.1,0,0.2-0.1,0.3c-0.1,0.1-0.2,0.1-0.3,0.1h-1.4c-0.1,0-0.2,0-0.3-0.1
				c-0.1-0.1-0.2-0.2-0.4-0.3s-0.4-0.3-0.6-0.4c-0.2-0.1-0.5-0.1-0.8-0.1c-0.4,0-0.8,0.1-1,0.3c-0.2,0.2-0.4,0.4-0.4,0.8
				c0,0.2,0.1,0.4,0.2,0.5c0.1,0.1,0.3,0.3,0.7,0.4c0.3,0.1,0.9,0.3,1.6,0.4c2.2,0.4,3.2,1.4,3.2,2.8c0,0.9-0.4,1.5-1.1,2.1
				c-0.7,0.5-1.8,0.8-3.1,0.8C136.6,150.6,135.8,150.4,135.2,150.1z"/>
			<path class="st4" d="M144.8,150.1c-0.6-0.3-1.1-0.6-1.4-1s-0.4-0.7-0.4-0.9c0-0.1,0-0.2,0.1-0.3c0.1-0.1,0.2-0.1,0.3-0.1h1.5
				c0.1,0,0.2,0,0.3,0.1c0.1,0,0.2,0.2,0.4,0.3c0.2,0.2,0.5,0.3,0.7,0.4c0.3,0.1,0.6,0.2,0.9,0.2c0.5,0,0.9-0.1,1.2-0.3
				c0.3-0.2,0.4-0.5,0.4-0.8c0-0.2-0.1-0.4-0.2-0.6c-0.1-0.1-0.4-0.3-0.7-0.4s-0.9-0.3-1.6-0.4c-1-0.2-1.8-0.5-2.3-1
				c-0.5-0.4-0.7-1-0.7-1.8c0-0.5,0.1-0.9,0.4-1.4s0.7-0.8,1.3-1c0.6-0.3,1.3-0.4,2-0.4c0.8,0,1.5,0.1,2.1,0.4
				c0.6,0.3,1,0.6,1.3,0.9c0.3,0.4,0.5,0.7,0.5,1c0,0.1,0,0.2-0.1,0.3c-0.1,0.1-0.2,0.1-0.3,0.1h-1.4c-0.1,0-0.2,0-0.3-0.1
				c-0.1-0.1-0.2-0.2-0.4-0.3s-0.4-0.3-0.6-0.4c-0.2-0.1-0.5-0.1-0.8-0.1c-0.4,0-0.8,0.1-1,0.3c-0.2,0.2-0.4,0.4-0.4,0.8
				c0,0.2,0.1,0.4,0.2,0.5c0.1,0.1,0.3,0.3,0.7,0.4c0.3,0.1,0.9,0.3,1.6,0.4c2.2,0.4,3.2,1.4,3.2,2.8c0,0.9-0.4,1.5-1.1,2.1
				c-0.7,0.5-1.8,0.8-3.1,0.8C146.2,150.6,145.4,150.4,144.8,150.1z"/>
			<path class="st4" d="M153.3,143.5c-0.1-0.1-0.1-0.2-0.1-0.3v-1c0-0.1,0-0.2,0.1-0.3c0.1-0.1,0.2-0.1,0.3-0.1h7
				c0.1,0,0.2,0,0.3,0.1c0.1,0.1,0.1,0.2,0.1,0.3v1c0,0.1,0,0.2-0.1,0.3c-0.1,0.1-0.2,0.1-0.3,0.1h-7
				C153.4,143.7,153.3,143.6,153.3,143.5z M153.3,148c-0.1-0.1-0.1-0.2-0.1-0.3v-1c0-0.1,0-0.2,0.1-0.3c0.1-0.1,0.2-0.1,0.3-0.1h7
				c0.1,0,0.2,0,0.3,0.1c0.1,0.1,0.1,0.2,0.1,0.3v1c0,0.1,0,0.2-0.1,0.3c-0.1,0.1-0.2,0.1-0.3,0.1h-7
				C153.4,148.2,153.3,148.1,153.3,148z"/>
			<path class="st4" d="M163.4,141.5l-0.4-3.5c0-0.1,0-0.3,0.1-0.4c0.1-0.1,0.2-0.1,0.3-0.1h1.6c0.1,0,0.2,0,0.3,0.1
				s0.1,0.2,0.1,0.4l-0.4,3.5c0,0.3-0.2,0.4-0.5,0.4h-0.8C163.6,142,163.4,141.8,163.4,141.5z M166.7,141.5l-0.4-3.5
				c0-0.1,0-0.3,0.1-0.4c0.1-0.1,0.2-0.1,0.3-0.1h1.6c0.1,0,0.2,0,0.3,0.1c0.1,0.1,0.1,0.2,0.1,0.4l-0.4,3.5c0,0.3-0.2,0.4-0.4,0.4
				h-0.8C166.9,142,166.8,141.8,166.7,141.5z"/>
			<path class="st4" d="M173.2,149.3v0.7c0,0.1,0,0.2-0.1,0.3s-0.2,0.1-0.3,0.1h-1.4c-0.1,0-0.2,0-0.3-0.1s-0.1-0.2-0.1-0.3V138
				c0-0.1,0-0.2,0.1-0.3s0.2-0.1,0.3-0.1h1.6c0.1,0,0.2,0,0.3,0.1c0.1,0.1,0.1,0.2,0.1,0.3v4c0.7-0.8,1.6-1.2,2.8-1.2
				c1.2,0,2.1,0.4,2.8,1.2c0.7,0.8,1,1.8,1,3.1c0,0.1,0,0.3,0,0.6c0,0.2,0,0.4,0,0.6c0,1.3-0.4,2.3-1,3.1c-0.6,0.8-1.6,1.2-2.8,1.2
				C174.8,150.6,173.8,150.1,173.2,149.3z M177.4,146.2c0-0.1,0-0.3,0-0.5c0-0.2,0-0.4,0-0.5c-0.1-1.6-0.8-2.4-2.1-2.4
				c-0.7,0-1.2,0.2-1.5,0.6s-0.5,0.9-0.6,1.5c0,0.1,0,0.4,0,0.7c0,0.3,0,0.5,0,0.7c0,0.6,0.2,1.2,0.5,1.6c0.3,0.4,0.8,0.7,1.5,0.7
				C176.6,148.6,177.3,147.8,177.4,146.2z"/>
			<path class="st4" d="M183.6,149.5c-0.6-0.6-0.8-1.4-0.8-2.5v-4.1h-1.4c-0.1,0-0.2,0-0.3-0.1s-0.1-0.2-0.1-0.3v-1.1
				c0-0.1,0-0.2,0.1-0.3s0.2-0.1,0.3-0.1h1.4v-3c0-0.1,0-0.2,0.1-0.3s0.2-0.1,0.3-0.1h1.5c0.1,0,0.2,0,0.3,0.1s0.1,0.2,0.1,0.3v3
				h2.2c0.1,0,0.2,0,0.3,0.1c0.1,0.1,0.1,0.2,0.1,0.3v1.1c0,0.1,0,0.2-0.1,0.3c-0.1,0.1-0.2,0.1-0.3,0.1h-2.2v3.9
				c0,0.5,0.1,0.9,0.3,1.2c0.2,0.3,0.5,0.4,0.9,0.4h1.3c0.1,0,0.2,0,0.3,0.1c0.1,0.1,0.1,0.2,0.1,0.3v1.1c0,0.1,0,0.2-0.1,0.3
				c-0.1,0.1-0.2,0.1-0.3,0.1h-1.5C185,150.4,184.1,150.1,183.6,149.5z"/>
			<path class="st4" d="M189.7,150.2c-0.1-0.1-0.1-0.2-0.1-0.3v-8.5c0-0.1,0-0.2,0.1-0.3s0.2-0.1,0.3-0.1h1.5c0.1,0,0.2,0,0.3,0.1
				c0.1,0.1,0.1,0.2,0.1,0.3v0.7c0.7-0.9,1.7-1.3,3-1.3c1.1,0,2,0.4,2.6,1.1c0.6,0.7,1,1.7,1,3v5.1c0,0.1,0,0.2-0.1,0.3
				c-0.1,0.1-0.2,0.1-0.3,0.1h-1.6c-0.1,0-0.2,0-0.3-0.1s-0.1-0.2-0.1-0.3V145c0-0.7-0.2-1.2-0.5-1.6c-0.3-0.4-0.8-0.6-1.5-0.6
				c-0.6,0-1.1,0.2-1.5,0.6c-0.4,0.4-0.6,0.9-0.6,1.6v4.9c0,0.1,0,0.2-0.1,0.3c-0.1,0.1-0.2,0.1-0.3,0.1H190
				C189.9,150.4,189.8,150.3,189.7,150.2z"/>
			<path class="st4" d="M200.9,145.9c-0.1-0.1-0.1-0.2-0.1-0.3v-1.2c0-0.1,0-0.2,0.1-0.3c0.1-0.1,0.2-0.1,0.3-0.1h5.5
				c0.1,0,0.2,0,0.3,0.1c0.1,0.1,0.1,0.2,0.1,0.3v1.2c0,0.1,0,0.2-0.1,0.3s-0.2,0.1-0.3,0.1h-5.5C201.1,146,200.9,146,200.9,145.9z"
				/>
			<path class="st4" d="M211.1,153.8c-0.7-0.4-1.1-0.8-1.4-1.2s-0.4-0.8-0.4-1.2c0-0.1,0-0.2,0.1-0.3c0.1-0.1,0.2-0.1,0.3-0.1h1.6
				c0.1,0,0.2,0,0.3,0.1s0.1,0.2,0.2,0.3c0.1,0.3,0.3,0.6,0.6,0.8c0.3,0.2,0.7,0.3,1.2,0.3c0.7,0,1.2-0.2,1.6-0.5
				c0.3-0.3,0.5-0.9,0.5-1.7v-1.2c-0.6,0.8-1.6,1.2-2.8,1.2c-1.2,0-2.2-0.4-2.8-1.1c-0.6-0.8-1-1.8-1-3.1l0-0.5l0-0.5
				c0-1.3,0.4-2.3,1-3.1c0.6-0.8,1.6-1.2,2.8-1.2c0.6,0,1.2,0.1,1.7,0.4c0.5,0.2,0.9,0.6,1.2,1v-0.7c0-0.1,0-0.2,0.1-0.3
				c0.1-0.1,0.2-0.1,0.3-0.1h1.5c0.1,0,0.2,0,0.3,0.1s0.1,0.2,0.1,0.3l0,8.7c0,1.3-0.4,2.4-1.1,3.1c-0.7,0.7-1.9,1.1-3.4,1.1
				C212.6,154.3,211.8,154.2,211.1,153.8z M215.1,147.7c0.3-0.4,0.5-1,0.6-1.6c0-0.1,0-0.3,0-0.6s0-0.5,0-0.6c0-0.6-0.2-1.2-0.6-1.6
				s-0.8-0.6-1.5-0.6c-1.3,0-2,0.8-2.1,2.4l0,0.4c0,1.9,0.7,2.8,2.1,2.8C214.3,148.4,214.8,148.2,215.1,147.7z"/>
			<path class="st4" d="M63.8,174.3v0.7c0,0.1,0,0.2-0.1,0.3s-0.2,0.1-0.3,0.1h-1.4c-0.1,0-0.2,0-0.3-0.1s-0.1-0.2-0.1-0.3V163
				c0-0.1,0-0.2,0.1-0.3s0.2-0.1,0.3-0.1h1.6c0.1,0,0.2,0,0.3,0.1c0.1,0.1,0.1,0.2,0.1,0.3v4c0.7-0.8,1.6-1.2,2.8-1.2
				c1.2,0,2.1,0.4,2.8,1.2c0.7,0.8,1,1.8,1,3.1c0,0.1,0,0.3,0,0.6c0,0.2,0,0.4,0,0.6c0,1.3-0.4,2.3-1,3.1c-0.6,0.8-1.6,1.2-2.8,1.2
				C65.4,175.6,64.5,175.1,63.8,174.3z M68,171.2c0-0.1,0-0.3,0-0.5c0-0.2,0-0.4,0-0.5c-0.1-1.6-0.8-2.4-2.1-2.4
				c-0.7,0-1.2,0.2-1.5,0.6s-0.5,0.9-0.6,1.5c0,0.1,0,0.4,0,0.7c0,0.3,0,0.5,0,0.7c0,0.6,0.2,1.2,0.5,1.6c0.3,0.4,0.8,0.7,1.5,0.7
				C67.3,173.6,67.9,172.8,68,171.2z"/>
			<path class="st4" d="M73.4,174.4c-0.8-0.8-1.2-1.9-1.3-3.3l0-0.5c0-1.5,0.4-2.7,1.2-3.5c0.8-0.9,1.9-1.3,3.3-1.3
				c1.4,0,2.5,0.4,3.3,1.3s1.2,2,1.2,3.5v0.4c0,0.1,0,0.2-0.1,0.3c-0.1,0.1-0.2,0.1-0.3,0.1h-6v0.1c0,0.7,0.2,1.2,0.5,1.7
				c0.3,0.4,0.8,0.7,1.4,0.7c0.7,0,1.2-0.3,1.7-0.8c0.1-0.1,0.2-0.2,0.3-0.2s0.2,0,0.3,0h1.6c0.1,0,0.2,0,0.3,0.1
				c0.1,0.1,0.1,0.1,0.1,0.3c0,0.3-0.2,0.6-0.5,1c-0.3,0.4-0.8,0.7-1.5,1c-0.6,0.3-1.4,0.4-2.2,0.4
				C75.2,175.6,74.2,175.2,73.4,174.4z M78.5,169.9L78.5,169.9c0-0.7-0.2-1.3-0.5-1.7s-0.8-0.6-1.4-0.6c-0.6,0-1.1,0.2-1.4,0.6
				s-0.5,1-0.5,1.7v0H78.5z"/>
			<path class="st4" d="M83.1,175.2c-0.1-0.1-0.1-0.2-0.1-0.3V163c0-0.1,0-0.2,0.1-0.3s0.2-0.1,0.3-0.1h1.5c0.1,0,0.2,0,0.3,0.1
				s0.1,0.2,0.1,0.3v11.9c0,0.1,0,0.2-0.1,0.3s-0.2,0.1-0.3,0.1h-1.5C83.2,175.4,83.1,175.3,83.1,175.2z"/>
			<path class="st4" d="M87.8,168.5c-0.1-0.1-0.1-0.2-0.1-0.3v-1c0-0.1,0-0.2,0.1-0.3c0.1-0.1,0.2-0.1,0.3-0.1h7
				c0.1,0,0.2,0,0.3,0.1c0.1,0.1,0.1,0.2,0.1,0.3v1c0,0.1,0,0.2-0.1,0.3c-0.1,0.1-0.2,0.1-0.3,0.1h-7
				C88,168.7,87.9,168.6,87.8,168.5z M87.8,173c-0.1-0.1-0.1-0.2-0.1-0.3v-1c0-0.1,0-0.2,0.1-0.3c0.1-0.1,0.2-0.1,0.3-0.1h7
				c0.1,0,0.2,0,0.3,0.1c0.1,0.1,0.1,0.2,0.1,0.3v1c0,0.1,0,0.2-0.1,0.3c-0.1,0.1-0.2,0.1-0.3,0.1h-7C88,173.2,87.9,173.1,87.8,173z
				"/>
			<path class="st4" d="M98,166.5l-0.4-3.5c0-0.1,0-0.3,0.1-0.4c0.1-0.1,0.2-0.1,0.3-0.1h1.6c0.1,0,0.2,0,0.3,0.1s0.1,0.2,0.1,0.4
				l-0.4,3.5c0,0.3-0.2,0.4-0.5,0.4h-0.8C98.2,167,98,166.8,98,166.5z M101.3,166.5l-0.4-3.5c0-0.1,0-0.3,0.1-0.4
				c0.1-0.1,0.2-0.1,0.3-0.1h1.6c0.1,0,0.2,0,0.3,0.1c0.1,0.1,0.1,0.2,0.1,0.4l-0.4,3.5c0,0.3-0.2,0.4-0.4,0.4h-0.8
				C101.5,167,101.3,166.8,101.3,166.5z"/>
			<path class="st4" d="M105.7,175.2c-0.1-0.1-0.1-0.2-0.1-0.3v-11.7c0-0.1,0-0.2,0.1-0.3c0.1-0.1,0.2-0.1,0.3-0.1h7.8
				c0.1,0,0.2,0,0.3,0.1c0.1,0.1,0.1,0.2,0.1,0.3v1.3c0,0.1,0,0.2-0.1,0.3c-0.1,0.1-0.2,0.1-0.3,0.1h-5.8v3.4h5.4
				c0.1,0,0.2,0,0.3,0.1s0.1,0.2,0.1,0.3v1.3c0,0.1,0,0.2-0.1,0.3s-0.2,0.1-0.3,0.1h-5.4v4.4c0,0.1,0,0.2-0.1,0.3s-0.2,0.1-0.3,0.1
				H106C105.9,175.4,105.8,175.3,105.7,175.2z"/>
			<path class="st4" d="M116.3,164.4c-0.1-0.1-0.1-0.2-0.1-0.3v-1.3c0-0.1,0-0.2,0.1-0.3c0.1-0.1,0.2-0.1,0.3-0.1h1.7
				c0.1,0,0.2,0,0.3,0.1s0.1,0.2,0.1,0.3v1.3c0,0.1,0,0.2-0.1,0.3c-0.1,0.1-0.2,0.1-0.3,0.1h-1.7
				C116.5,164.5,116.4,164.4,116.3,164.4z M116.4,175.2c-0.1-0.1-0.1-0.2-0.1-0.3v-8.5c0-0.1,0-0.2,0.1-0.3s0.2-0.1,0.3-0.1h1.5
				c0.1,0,0.2,0,0.3,0.1s0.1,0.2,0.1,0.3v8.5c0,0.1,0,0.2-0.1,0.3s-0.2,0.1-0.3,0.1h-1.5C116.5,175.4,116.4,175.3,116.4,175.2z"/>
			<path class="st4" d="M121.1,175.2c-0.1-0.1-0.1-0.2-0.1-0.3v-8.5c0-0.1,0-0.2,0.1-0.3s0.2-0.1,0.3-0.1h1.5c0.1,0,0.2,0,0.3,0.1
				s0.1,0.2,0.1,0.3v0.7c0.6-0.8,1.5-1.2,2.6-1.2h0.8c0.1,0,0.2,0,0.3,0.1s0.1,0.2,0.1,0.3v1.3c0,0.1,0,0.2-0.1,0.3
				c-0.1,0.1-0.2,0.1-0.3,0.1h-1.4c-0.6,0-1,0.2-1.3,0.5c-0.3,0.3-0.5,0.8-0.5,1.3v4.9c0,0.1,0,0.2-0.1,0.3s-0.2,0.1-0.3,0.1h-1.6
				C121.3,175.4,121.2,175.3,121.1,175.2z"/>
			<path class="st4" d="M129.8,175.1c-0.6-0.3-1.1-0.6-1.4-1s-0.4-0.7-0.4-0.9c0-0.1,0-0.2,0.1-0.3c0.1-0.1,0.2-0.1,0.3-0.1h1.5
				c0.1,0,0.2,0,0.3,0.1c0.1,0,0.2,0.2,0.4,0.3c0.2,0.2,0.5,0.3,0.7,0.4c0.3,0.1,0.6,0.2,0.9,0.2c0.5,0,0.9-0.1,1.2-0.3
				c0.3-0.2,0.4-0.5,0.4-0.8c0-0.2-0.1-0.4-0.2-0.6c-0.1-0.1-0.4-0.3-0.7-0.4s-0.9-0.3-1.6-0.4c-1-0.2-1.8-0.5-2.3-1
				c-0.5-0.4-0.7-1-0.7-1.8c0-0.5,0.1-0.9,0.4-1.4s0.7-0.8,1.3-1c0.6-0.3,1.3-0.4,2-0.4c0.8,0,1.5,0.1,2.1,0.4
				c0.6,0.3,1,0.6,1.3,0.9c0.3,0.4,0.5,0.7,0.5,1c0,0.1,0,0.2-0.1,0.3c-0.1,0.1-0.2,0.1-0.3,0.1h-1.4c-0.1,0-0.2,0-0.3-0.1
				c-0.1-0.1-0.2-0.2-0.4-0.3s-0.4-0.3-0.6-0.4c-0.2-0.1-0.5-0.1-0.8-0.1c-0.4,0-0.8,0.1-1,0.3c-0.2,0.2-0.4,0.4-0.4,0.8
				c0,0.2,0.1,0.4,0.2,0.5c0.1,0.1,0.3,0.3,0.7,0.4c0.3,0.1,0.9,0.3,1.6,0.4c2.2,0.4,3.2,1.4,3.2,2.8c0,0.9-0.4,1.5-1.1,2.1
				c-0.7,0.5-1.8,0.8-3.1,0.8C131.2,175.6,130.4,175.4,129.8,175.1z"/>
			<path class="st4" d="M139.9,174.5c-0.6-0.6-0.8-1.4-0.8-2.5v-4.1h-1.4c-0.1,0-0.2,0-0.3-0.1s-0.1-0.2-0.1-0.3v-1.1
				c0-0.1,0-0.2,0.1-0.3s0.2-0.1,0.3-0.1h1.4v-3c0-0.1,0-0.2,0.1-0.3s0.2-0.1,0.3-0.1h1.5c0.1,0,0.2,0,0.3,0.1s0.1,0.2,0.1,0.3v3
				h2.2c0.1,0,0.2,0,0.3,0.1c0.1,0.1,0.1,0.2,0.1,0.3v1.1c0,0.1,0,0.2-0.1,0.3c-0.1,0.1-0.2,0.1-0.3,0.1h-2.2v3.9
				c0,0.5,0.1,0.9,0.3,1.2c0.2,0.3,0.5,0.4,0.9,0.4h1.3c0.1,0,0.2,0,0.3,0.1c0.1,0.1,0.1,0.2,0.1,0.3v1.1c0,0.1,0,0.2-0.1,0.3
				c-0.1,0.1-0.2,0.1-0.3,0.1h-1.5C141.3,175.4,140.4,175.1,139.9,174.5z"/>
			<path class="st4" d="M151.6,178.8c-0.7-0.4-1.1-0.8-1.4-1.2s-0.4-0.8-0.4-1.2c0-0.1,0-0.2,0.1-0.3c0.1-0.1,0.2-0.1,0.3-0.1h1.6
				c0.1,0,0.2,0,0.3,0.1s0.1,0.2,0.2,0.3c0.1,0.3,0.3,0.6,0.6,0.8c0.3,0.2,0.7,0.3,1.2,0.3c0.7,0,1.2-0.2,1.6-0.5
				c0.3-0.3,0.5-0.9,0.5-1.7v-1.2c-0.6,0.8-1.6,1.2-2.8,1.2c-1.2,0-2.2-0.4-2.8-1.1c-0.6-0.8-1-1.8-1-3.1l0-0.5l0-0.5
				c0-1.3,0.4-2.3,1-3.1c0.6-0.8,1.6-1.2,2.8-1.2c0.6,0,1.2,0.1,1.7,0.4c0.5,0.2,0.9,0.6,1.2,1v-0.7c0-0.1,0-0.2,0.1-0.3
				c0.1-0.1,0.2-0.1,0.3-0.1h1.5c0.1,0,0.2,0,0.3,0.1s0.1,0.2,0.1,0.3l0,8.7c0,1.3-0.4,2.4-1.1,3.1c-0.7,0.7-1.9,1.1-3.4,1.1
				C153.1,179.3,152.3,179.2,151.6,178.8z M155.6,172.7c0.3-0.4,0.5-1,0.6-1.6c0-0.1,0-0.3,0-0.6s0-0.5,0-0.6c0-0.6-0.2-1.2-0.6-1.6
				s-0.8-0.6-1.5-0.6c-1.3,0-2,0.8-2.1,2.4l0,0.4c0,1.9,0.7,2.8,2.1,2.8C154.8,173.4,155.3,173.2,155.6,172.7z"/>
			<path class="st4" d="M161.2,175.2c-0.1-0.1-0.1-0.2-0.1-0.3v-8.5c0-0.1,0-0.2,0.1-0.3s0.2-0.1,0.3-0.1h1.5c0.1,0,0.2,0,0.3,0.1
				s0.1,0.2,0.1,0.3v0.7c0.6-0.8,1.5-1.2,2.6-1.2h0.8c0.1,0,0.2,0,0.3,0.1s0.1,0.2,0.1,0.3v1.3c0,0.1,0,0.2-0.1,0.3
				c-0.1,0.1-0.2,0.1-0.3,0.1h-1.4c-0.6,0-1,0.2-1.3,0.5c-0.3,0.3-0.5,0.8-0.5,1.3v4.9c0,0.1,0,0.2-0.1,0.3s-0.2,0.1-0.3,0.1h-1.6
				C161.4,175.4,161.3,175.3,161.2,175.2z"/>
			<path class="st4" d="M169.3,174.5c-0.8-0.7-1.2-1.7-1.2-3l0-0.8l0-0.8c0.1-1.3,0.5-2.3,1.3-3c0.8-0.7,1.9-1.1,3.3-1.1
				c1.4,0,2.5,0.4,3.2,1.1c0.8,0.7,1.2,1.7,1.3,3c0,0.1,0,0.4,0,0.8c0,0.4,0,0.6,0,0.8c-0.1,1.3-0.5,2.3-1.2,3
				c-0.8,0.7-1.9,1.1-3.3,1.1C171.2,175.6,170.1,175.2,169.3,174.5z M174.1,173.1c0.3-0.4,0.5-1,0.5-1.7c0-0.1,0-0.4,0-0.7
				c0-0.3,0-0.6,0-0.7c0-0.8-0.2-1.4-0.6-1.8c-0.3-0.4-0.8-0.6-1.5-0.6c-0.6,0-1.1,0.2-1.5,0.6c-0.3,0.4-0.5,1-0.6,1.8l0,0.7l0,0.7
				c0,0.8,0.2,1.4,0.6,1.7c0.3,0.4,0.8,0.6,1.5,0.6C173.3,173.7,173.7,173.5,174.1,173.1z"/>
			<path class="st4" d="M180,174.5c-0.6-0.7-1-1.7-1-3v-5.1c0-0.1,0-0.2,0.1-0.3c0.1-0.1,0.2-0.1,0.3-0.1h1.6c0.1,0,0.2,0,0.3,0.1
				s0.1,0.2,0.1,0.3v5c0,1.5,0.6,2.2,1.9,2.2c0.6,0,1.1-0.2,1.5-0.6c0.4-0.4,0.5-0.9,0.5-1.6v-5c0-0.1,0-0.2,0.1-0.3
				s0.2-0.1,0.3-0.1h1.6c0.1,0,0.2,0,0.3,0.1c0.1,0.1,0.1,0.2,0.1,0.3v8.5c0,0.1,0,0.2-0.1,0.3c-0.1,0.1-0.2,0.1-0.3,0.1H186
				c-0.1,0-0.2,0-0.3-0.1s-0.1-0.2-0.1-0.3v-0.7c-0.7,0.9-1.7,1.3-3,1.3C181.5,175.6,180.6,175.2,180,174.5z"/>
			<path class="st4" d="M190.5,178.7c-0.1-0.1-0.1-0.2-0.1-0.3v-11.9c0-0.1,0-0.2,0.1-0.3s0.2-0.1,0.3-0.1h1.4c0.1,0,0.2,0,0.3,0.1
				s0.1,0.2,0.1,0.3v0.7c0.6-0.9,1.6-1.3,2.9-1.3c1.2,0,2.1,0.4,2.8,1.1c0.6,0.8,1,1.8,1,3.1c0,0.1,0,0.4,0,0.6c0,0.3,0,0.5,0,0.6
				c0,1.3-0.4,2.3-1,3.1c-0.7,0.8-1.6,1.2-2.8,1.2c-1.2,0-2.1-0.4-2.8-1.3v4.1c0,0.1,0,0.2-0.1,0.3c-0.1,0.1-0.2,0.1-0.3,0.1h-1.6
				C190.7,178.8,190.6,178.8,190.5,178.7z M196.9,171.2c0-0.1,0-0.3,0-0.5c0-0.2,0-0.4,0-0.5c-0.1-1.6-0.8-2.4-2.1-2.4
				c-0.7,0-1.2,0.2-1.5,0.7c-0.3,0.4-0.5,1-0.5,1.6c0,0.1,0,0.4,0,0.7c0,0.3,0,0.5,0,0.7c0,0.6,0.2,1.1,0.6,1.5
				c0.3,0.4,0.9,0.6,1.5,0.6C196.1,173.6,196.8,172.8,196.9,171.2z"/>
			<path class="st4" d="M200.9,166.5l-0.4-3.5c0-0.1,0-0.3,0.1-0.4c0.1-0.1,0.2-0.1,0.3-0.1h1.6c0.1,0,0.2,0,0.3,0.1
				s0.1,0.2,0.1,0.4l-0.4,3.5c0,0.3-0.2,0.4-0.5,0.4h-0.8C201.1,167,200.9,166.8,200.9,166.5z M204.2,166.5l-0.4-3.5
				c0-0.1,0-0.3,0.1-0.4c0.1-0.1,0.2-0.1,0.3-0.1h1.6c0.1,0,0.2,0,0.3,0.1c0.1,0.1,0.1,0.2,0.1,0.4l-0.4,3.5c0,0.3-0.2,0.4-0.4,0.4
				h-0.8C204.4,167,204.2,166.8,204.2,166.5z"/>
			<path class="st4" d="M208.4,174.3c-0.1-0.1-0.1-0.2-0.1-0.3v-1.4c0-0.1,0-0.3,0.1-0.4c0.1-0.1,0.2-0.2,0.3-0.3l4.4-2.9l-4.4-2.9
				c-0.2-0.1-0.3-0.2-0.3-0.3c-0.1-0.1-0.1-0.2-0.1-0.4v-1.4c0-0.1,0-0.2,0.1-0.3c0.1-0.1,0.2-0.1,0.3-0.1c0.1,0,0.2,0.1,0.4,0.2
				l6.1,4.2c0.2,0.1,0.3,0.3,0.4,0.4s0.1,0.3,0.1,0.4v0.4c0,0.2,0,0.3-0.1,0.4c-0.1,0.1-0.2,0.2-0.4,0.4l-6.1,4.2
				c-0.1,0.1-0.2,0.1-0.4,0.1C208.5,174.4,208.4,174.4,208.4,174.3z"/>
			<path class="st4" d="M63.8,199.3v0.7c0,0.1,0,0.2-0.1,0.3s-0.2,0.1-0.3,0.1h-1.4c-0.1,0-0.2,0-0.3-0.1s-0.1-0.2-0.1-0.3V188
				c0-0.1,0-0.2,0.1-0.3s0.2-0.1,0.3-0.1h1.6c0.1,0,0.2,0,0.3,0.1c0.1,0.1,0.1,0.2,0.1,0.3v4c0.7-0.8,1.6-1.2,2.8-1.2
				c1.2,0,2.1,0.4,2.8,1.2c0.7,0.8,1,1.8,1,3.1c0,0.1,0,0.3,0,0.6c0,0.2,0,0.4,0,0.6c0,1.3-0.4,2.3-1,3.1c-0.6,0.8-1.6,1.2-2.8,1.2
				C65.4,200.6,64.5,200.1,63.8,199.3z M68,196.2c0-0.1,0-0.3,0-0.5c0-0.2,0-0.4,0-0.5c-0.1-1.6-0.8-2.4-2.1-2.4
				c-0.7,0-1.2,0.2-1.5,0.6s-0.5,0.9-0.6,1.5c0,0.1,0,0.4,0,0.7c0,0.3,0,0.5,0,0.7c0,0.6,0.2,1.2,0.5,1.6c0.3,0.4,0.8,0.7,1.5,0.7
				C67.3,198.6,67.9,197.8,68,196.2z"/>
			<path class="st4" d="M73.4,199.5c-0.6-0.7-1-1.7-1-3v-5.1c0-0.1,0-0.2,0.1-0.3c0.1-0.1,0.2-0.1,0.3-0.1h1.6c0.1,0,0.2,0,0.3,0.1
				s0.1,0.2,0.1,0.3v5c0,1.5,0.6,2.2,1.9,2.2c0.6,0,1.1-0.2,1.5-0.6c0.4-0.4,0.5-0.9,0.5-1.6v-5c0-0.1,0-0.2,0.1-0.3
				s0.2-0.1,0.3-0.1h1.6c0.1,0,0.2,0,0.3,0.1c0.1,0.1,0.1,0.2,0.1,0.3v8.5c0,0.1,0,0.2-0.1,0.3c-0.1,0.1-0.2,0.1-0.3,0.1h-1.5
				c-0.1,0-0.2,0-0.3-0.1s-0.1-0.2-0.1-0.3v-0.7c-0.7,0.9-1.7,1.3-3,1.3C74.9,200.6,74,200.2,73.4,199.5z"/>
			<path class="st4" d="M85.5,199.5c-0.6-0.6-0.8-1.4-0.8-2.5v-4.1h-1.4c-0.1,0-0.2,0-0.3-0.1s-0.1-0.2-0.1-0.3v-1.1
				c0-0.1,0-0.2,0.1-0.3s0.2-0.1,0.3-0.1h1.4v-3c0-0.1,0-0.2,0.1-0.3s0.2-0.1,0.3-0.1h1.5c0.1,0,0.2,0,0.3,0.1s0.1,0.2,0.1,0.3v3
				h2.2c0.1,0,0.2,0,0.3,0.1c0.1,0.1,0.1,0.2,0.1,0.3v1.1c0,0.1,0,0.2-0.1,0.3c-0.1,0.1-0.2,0.1-0.3,0.1H87v3.9
				c0,0.5,0.1,0.9,0.3,1.2c0.2,0.3,0.5,0.4,0.9,0.4h1.3c0.1,0,0.2,0,0.3,0.1c0.1,0.1,0.1,0.2,0.1,0.3v1.1c0,0.1,0,0.2-0.1,0.3
				c-0.1,0.1-0.2,0.1-0.3,0.1H88C86.9,200.4,86,200.1,85.5,199.5z"/>
			<path class="st4" d="M93.2,199.5c-0.6-0.6-0.8-1.4-0.8-2.5v-4.1H91c-0.1,0-0.2,0-0.3-0.1s-0.1-0.2-0.1-0.3v-1.1
				c0-0.1,0-0.2,0.1-0.3s0.2-0.1,0.3-0.1h1.4v-3c0-0.1,0-0.2,0.1-0.3s0.2-0.1,0.3-0.1h1.5c0.1,0,0.2,0,0.3,0.1s0.1,0.2,0.1,0.3v3H97
				c0.1,0,0.2,0,0.3,0.1c0.1,0.1,0.1,0.2,0.1,0.3v1.1c0,0.1,0,0.2-0.1,0.3c-0.1,0.1-0.2,0.1-0.3,0.1h-2.2v3.9c0,0.5,0.1,0.9,0.3,1.2
				c0.2,0.3,0.5,0.4,0.9,0.4h1.3c0.1,0,0.2,0,0.3,0.1c0.1,0.1,0.1,0.2,0.1,0.3v1.1c0,0.1,0,0.2-0.1,0.3c-0.1,0.1-0.2,0.1-0.3,0.1
				h-1.5C94.6,200.4,93.8,200.1,93.2,199.5z"/>
			<path class="st4" d="M100.1,199.5c-0.8-0.7-1.2-1.7-1.2-3l0-0.8l0-0.8c0.1-1.3,0.5-2.3,1.3-3c0.8-0.7,1.9-1.1,3.3-1.1
				c1.4,0,2.5,0.4,3.2,1.1c0.8,0.7,1.2,1.7,1.3,3c0,0.1,0,0.4,0,0.8c0,0.4,0,0.6,0,0.8c-0.1,1.3-0.5,2.3-1.2,3
				c-0.8,0.7-1.9,1.1-3.3,1.1C102,200.6,100.9,200.2,100.1,199.5z M104.8,198.1c0.3-0.4,0.5-1,0.5-1.7c0-0.1,0-0.4,0-0.7
				c0-0.3,0-0.6,0-0.7c0-0.8-0.2-1.4-0.6-1.8c-0.3-0.4-0.8-0.6-1.5-0.6c-0.6,0-1.1,0.2-1.5,0.6c-0.3,0.4-0.5,1-0.6,1.8l0,0.7l0,0.7
				c0,0.8,0.2,1.4,0.6,1.7c0.3,0.4,0.8,0.6,1.5,0.6C104,198.7,104.5,198.5,104.8,198.1z"/>
			<path class="st4" d="M110,200.2c-0.1-0.1-0.1-0.2-0.1-0.3v-8.5c0-0.1,0-0.2,0.1-0.3s0.2-0.1,0.3-0.1h1.5c0.1,0,0.2,0,0.3,0.1
				c0.1,0.1,0.1,0.2,0.1,0.3v0.7c0.7-0.9,1.7-1.3,3-1.3c1.1,0,2,0.4,2.6,1.1c0.6,0.7,1,1.7,1,3v5.1c0,0.1,0,0.2-0.1,0.3
				c-0.1,0.1-0.2,0.1-0.3,0.1h-1.6c-0.1,0-0.2,0-0.3-0.1s-0.1-0.2-0.1-0.3V195c0-0.7-0.2-1.2-0.5-1.6c-0.3-0.4-0.8-0.6-1.5-0.6
				c-0.6,0-1.1,0.2-1.5,0.6c-0.4,0.4-0.6,0.9-0.6,1.6v4.9c0,0.1,0,0.2-0.1,0.3c-0.1,0.1-0.2,0.1-0.3,0.1h-1.6
				C110.2,200.4,110.1,200.3,110,200.2z"/>
			<path class="st4" d="M126.7,199.5c-0.6-0.6-0.8-1.4-0.8-2.5v-4.1h-1.4c-0.1,0-0.2,0-0.3-0.1s-0.1-0.2-0.1-0.3v-1.1
				c0-0.1,0-0.2,0.1-0.3s0.2-0.1,0.3-0.1h1.4v-3c0-0.1,0-0.2,0.1-0.3s0.2-0.1,0.3-0.1h1.5c0.1,0,0.2,0,0.3,0.1s0.1,0.2,0.1,0.3v3
				h2.2c0.1,0,0.2,0,0.3,0.1c0.1,0.1,0.1,0.2,0.1,0.3v1.1c0,0.1,0,0.2-0.1,0.3c-0.1,0.1-0.2,0.1-0.3,0.1h-2.2v3.9
				c0,0.5,0.1,0.9,0.3,1.2c0.2,0.3,0.5,0.4,0.9,0.4h1.3c0.1,0,0.2,0,0.3,0.1c0.1,0.1,0.1,0.2,0.1,0.3v1.1c0,0.1,0,0.2-0.1,0.3
				c-0.1,0.1-0.2,0.1-0.3,0.1h-1.5C128,200.4,127.2,200.1,126.7,199.5z"/>
			<path class="st4" d="M134.1,203.7c-0.1-0.1-0.1-0.2-0.1-0.3c0-0.1,0-0.2,0.1-0.3l1.4-3.3l-3.5-8.2c0-0.1-0.1-0.2-0.1-0.3
				c0-0.1,0.1-0.2,0.1-0.3c0.1-0.1,0.2-0.1,0.3-0.1h1.5c0.2,0,0.4,0.1,0.5,0.3l2.4,5.9l2.4-5.9c0.1-0.2,0.3-0.3,0.5-0.3h1.5
				c0.1,0,0.2,0,0.3,0.1c0.1,0.1,0.1,0.2,0.1,0.3c0,0.1,0,0.2-0.1,0.3l-5.1,11.8c-0.1,0.2-0.3,0.3-0.5,0.3h-1.4
				C134.2,203.8,134.2,203.8,134.1,203.7z"/>
			<path class="st4" d="M143.1,203.7c-0.1-0.1-0.1-0.2-0.1-0.3v-11.9c0-0.1,0-0.2,0.1-0.3s0.2-0.1,0.3-0.1h1.4c0.1,0,0.2,0,0.3,0.1
				s0.1,0.2,0.1,0.3v0.7c0.6-0.9,1.6-1.3,2.9-1.3c1.2,0,2.1,0.4,2.8,1.1c0.6,0.8,1,1.8,1,3.1c0,0.1,0,0.4,0,0.6c0,0.3,0,0.5,0,0.6
				c0,1.3-0.4,2.3-1,3.1c-0.7,0.8-1.6,1.2-2.8,1.2c-1.2,0-2.1-0.4-2.8-1.3v4.1c0,0.1,0,0.2-0.1,0.3c-0.1,0.1-0.2,0.1-0.3,0.1h-1.6
				C143.3,203.8,143.2,203.8,143.1,203.7z M149.6,196.2c0-0.1,0-0.3,0-0.5c0-0.2,0-0.4,0-0.5c-0.1-1.6-0.8-2.4-2.1-2.4
				c-0.7,0-1.2,0.2-1.5,0.7c-0.3,0.4-0.5,1-0.5,1.6c0,0.1,0,0.4,0,0.7c0,0.3,0,0.5,0,0.7c0,0.6,0.2,1.1,0.6,1.5
				c0.3,0.4,0.9,0.6,1.5,0.6C148.8,198.6,149.5,197.8,149.6,196.2z"/>
			<path class="st4" d="M154.9,199.4c-0.8-0.8-1.2-1.9-1.3-3.3l0-0.5c0-1.5,0.4-2.7,1.2-3.5c0.8-0.9,1.9-1.3,3.3-1.3
				c1.4,0,2.5,0.4,3.3,1.3s1.2,2,1.2,3.5v0.4c0,0.1,0,0.2-0.1,0.3c-0.1,0.1-0.2,0.1-0.3,0.1h-6v0.1c0,0.7,0.2,1.2,0.5,1.7
				c0.3,0.4,0.8,0.7,1.4,0.7c0.7,0,1.2-0.3,1.7-0.8c0.1-0.1,0.2-0.2,0.3-0.2s0.2,0,0.3,0h1.6c0.1,0,0.2,0,0.3,0.1
				c0.1,0.1,0.1,0.1,0.1,0.3c0,0.3-0.2,0.6-0.5,1c-0.3,0.4-0.8,0.7-1.5,1c-0.6,0.3-1.4,0.4-2.2,0.4
				C156.8,200.6,155.7,200.2,154.9,199.4z M160.1,194.9L160.1,194.9c0-0.7-0.2-1.3-0.5-1.7s-0.8-0.6-1.4-0.6c-0.6,0-1.1,0.2-1.4,0.6
				s-0.5,1-0.5,1.7v0H160.1z"/>
			<path class="st4" d="M164.6,193.5c-0.1-0.1-0.1-0.2-0.1-0.3v-1c0-0.1,0-0.2,0.1-0.3c0.1-0.1,0.2-0.1,0.3-0.1h7
				c0.1,0,0.2,0,0.3,0.1c0.1,0.1,0.1,0.2,0.1,0.3v1c0,0.1,0,0.2-0.1,0.3c-0.1,0.1-0.2,0.1-0.3,0.1h-7
				C164.8,193.7,164.7,193.6,164.6,193.5z M164.6,198c-0.1-0.1-0.1-0.2-0.1-0.3v-1c0-0.1,0-0.2,0.1-0.3c0.1-0.1,0.2-0.1,0.3-0.1h7
				c0.1,0,0.2,0,0.3,0.1c0.1,0.1,0.1,0.2,0.1,0.3v1c0,0.1,0,0.2-0.1,0.3c-0.1,0.1-0.2,0.1-0.3,0.1h-7
				C164.8,198.2,164.7,198.1,164.6,198z"/>
			<path class="st4" d="M174.7,191.5l-0.4-3.5c0-0.1,0-0.3,0.1-0.4c0.1-0.1,0.2-0.1,0.3-0.1h1.6c0.1,0,0.2,0,0.3,0.1
				s0.1,0.2,0.1,0.4l-0.4,3.5c0,0.3-0.2,0.4-0.5,0.4h-0.8C174.9,192,174.8,191.8,174.7,191.5z M178,191.5l-0.4-3.5
				c0-0.1,0-0.3,0.1-0.4c0.1-0.1,0.2-0.1,0.3-0.1h1.6c0.1,0,0.2,0,0.3,0.1c0.1,0.1,0.1,0.2,0.1,0.4l-0.4,3.5c0,0.3-0.2,0.4-0.4,0.4
				h-0.8C178.2,192,178.1,191.8,178,191.5z"/>
			<path class="st4" d="M184.5,199.3v0.7c0,0.1,0,0.2-0.1,0.3s-0.2,0.1-0.3,0.1h-1.4c-0.1,0-0.2,0-0.3-0.1s-0.1-0.2-0.1-0.3V188
				c0-0.1,0-0.2,0.1-0.3s0.2-0.1,0.3-0.1h1.6c0.1,0,0.2,0,0.3,0.1c0.1,0.1,0.1,0.2,0.1,0.3v4c0.7-0.8,1.6-1.2,2.8-1.2
				c1.2,0,2.1,0.4,2.8,1.2c0.7,0.8,1,1.8,1,3.1c0,0.1,0,0.3,0,0.6c0,0.2,0,0.4,0,0.6c0,1.3-0.4,2.3-1,3.1c-0.6,0.8-1.6,1.2-2.8,1.2
				C186.1,200.6,185.1,200.1,184.5,199.3z M188.7,196.2c0-0.1,0-0.3,0-0.5c0-0.2,0-0.4,0-0.5c-0.1-1.6-0.8-2.4-2.1-2.4
				c-0.7,0-1.2,0.2-1.5,0.6s-0.5,0.9-0.6,1.5c0,0.1,0,0.4,0,0.7c0,0.3,0,0.5,0,0.7c0,0.6,0.2,1.2,0.5,1.6c0.3,0.4,0.8,0.7,1.5,0.7
				C187.9,198.6,188.6,197.8,188.7,196.2z"/>
			<path class="st4" d="M194.1,199.5c-0.6-0.7-1-1.7-1-3v-5.1c0-0.1,0-0.2,0.1-0.3c0.1-0.1,0.2-0.1,0.3-0.1h1.6c0.1,0,0.2,0,0.3,0.1
				s0.1,0.2,0.1,0.3v5c0,1.5,0.6,2.2,1.9,2.2c0.6,0,1.1-0.2,1.5-0.6c0.4-0.4,0.5-0.9,0.5-1.6v-5c0-0.1,0-0.2,0.1-0.3
				s0.2-0.1,0.3-0.1h1.6c0.1,0,0.2,0,0.3,0.1c0.1,0.1,0.1,0.2,0.1,0.3v8.5c0,0.1,0,0.2-0.1,0.3c-0.1,0.1-0.2,0.1-0.3,0.1h-1.5
				c-0.1,0-0.2,0-0.3-0.1s-0.1-0.2-0.1-0.3v-0.7c-0.7,0.9-1.7,1.3-3,1.3C195.6,200.6,194.7,200.2,194.1,199.5z"/>
			<path class="st4" d="M206.2,199.5c-0.6-0.6-0.8-1.4-0.8-2.5v-4.1h-1.4c-0.1,0-0.2,0-0.3-0.1s-0.1-0.2-0.1-0.3v-1.1
				c0-0.1,0-0.2,0.1-0.3s0.2-0.1,0.3-0.1h1.4v-3c0-0.1,0-0.2,0.1-0.3s0.2-0.1,0.3-0.1h1.5c0.1,0,0.2,0,0.3,0.1s0.1,0.2,0.1,0.3v3
				h2.2c0.1,0,0.2,0,0.3,0.1c0.1,0.1,0.1,0.2,0.1,0.3v1.1c0,0.1,0,0.2-0.1,0.3c-0.1,0.1-0.2,0.1-0.3,0.1h-2.2v3.9
				c0,0.5,0.1,0.9,0.3,1.2c0.2,0.3,0.5,0.4,0.9,0.4h1.3c0.1,0,0.2,0,0.3,0.1c0.1,0.1,0.1,0.2,0.1,0.3v1.1c0,0.1,0,0.2-0.1,0.3
				c-0.1,0.1-0.2,0.1-0.3,0.1h-1.5C207.5,200.4,206.7,200.1,206.2,199.5z"/>
			<path class="st4" d="M213.9,199.5c-0.6-0.6-0.8-1.4-0.8-2.5v-4.1h-1.4c-0.1,0-0.2,0-0.3-0.1s-0.1-0.2-0.1-0.3v-1.1
				c0-0.1,0-0.2,0.1-0.3s0.2-0.1,0.3-0.1h1.4v-3c0-0.1,0-0.2,0.1-0.3s0.2-0.1,0.3-0.1h1.5c0.1,0,0.2,0,0.3,0.1s0.1,0.2,0.1,0.3v3
				h2.2c0.1,0,0.2,0,0.3,0.1c0.1,0.1,0.1,0.2,0.1,0.3v1.1c0,0.1,0,0.2-0.1,0.3c-0.1,0.1-0.2,0.1-0.3,0.1h-2.2v3.9
				c0,0.5,0.1,0.9,0.3,1.2c0.2,0.3,0.5,0.4,0.9,0.4h1.3c0.1,0,0.2,0,0.3,0.1c0.1,0.1,0.1,0.2,0.1,0.3v1.1c0,0.1,0,0.2-0.1,0.3
				c-0.1,0.1-0.2,0.1-0.3,0.1h-1.5C215.3,200.4,214.5,200.1,213.9,199.5z"/>
			<path class="st4" d="M62.5,225.2c-0.5-0.2-0.9-0.6-1.2-1c-0.3-0.4-0.4-0.9-0.4-1.4c0-0.8,0.3-1.5,1-2c0.7-0.5,1.6-0.8,2.7-1
				l2.5-0.4v-0.4c0-0.5-0.1-0.9-0.4-1.2c-0.3-0.3-0.7-0.4-1.3-0.4c-0.4,0-0.7,0.1-1,0.2c-0.2,0.1-0.4,0.3-0.6,0.4
				c-0.2,0.1-0.2,0.2-0.3,0.3c0,0.1-0.1,0.2-0.3,0.2h-1.4c-0.1,0-0.2,0-0.3-0.1c-0.1-0.1-0.1-0.2-0.1-0.3c0-0.3,0.2-0.6,0.4-1
				c0.3-0.4,0.7-0.7,1.3-1c0.6-0.3,1.3-0.4,2.2-0.4c1.4,0,2.4,0.3,3.1,1s1,1.5,1,2.5v5.7c0,0.1,0,0.2-0.1,0.3s-0.2,0.1-0.3,0.1h-1.5
				c-0.1,0-0.2,0-0.3-0.1c-0.1-0.1-0.1-0.2-0.1-0.3v-0.7c-0.3,0.4-0.6,0.7-1.1,0.9c-0.5,0.2-1.1,0.4-1.8,0.4
				C63.6,225.6,63,225.4,62.5,225.2z M66.4,223.2c0.4-0.4,0.6-1.1,0.6-1.9v-0.4l-1.8,0.3c-1.4,0.2-2.1,0.7-2.1,1.4
				c0,0.4,0.2,0.7,0.5,0.9s0.7,0.3,1.1,0.3C65.4,223.8,66,223.6,66.4,223.2z"/>
			<path class="st4" d="M71.9,225.2c-0.1-0.1-0.1-0.2-0.1-0.3v-8.5c0-0.1,0-0.2,0.1-0.3c0.1-0.1,0.2-0.1,0.3-0.1h1.5
				c0.1,0,0.2,0,0.3,0.1c0.1,0.1,0.1,0.2,0.1,0.3v0.7c0.6-0.8,1.5-1.2,2.6-1.2h0.8c0.1,0,0.2,0,0.3,0.1s0.1,0.2,0.1,0.3v1.3
				c0,0.1,0,0.2-0.1,0.3s-0.2,0.1-0.3,0.1H76c-0.6,0-1,0.2-1.3,0.5c-0.3,0.3-0.5,0.8-0.5,1.3v4.9c0,0.1,0,0.2-0.1,0.3
				s-0.2,0.1-0.3,0.1h-1.6C72.1,225.4,72,225.3,71.9,225.2z"/>
			<path class="st4" d="M80.7,228.7c-0.1-0.1-0.1-0.2-0.1-0.3c0-0.1,0-0.2,0.1-0.3l1.4-3.3l-3.5-8.2c0-0.1-0.1-0.2-0.1-0.3
				c0-0.1,0.1-0.2,0.1-0.3c0.1-0.1,0.2-0.1,0.3-0.1h1.5c0.2,0,0.4,0.1,0.5,0.3l2.4,5.9l2.4-5.9c0.1-0.2,0.3-0.3,0.5-0.3h1.5
				c0.1,0,0.2,0,0.3,0.1c0.1,0.1,0.1,0.2,0.1,0.3c0,0.1,0,0.2-0.1,0.3l-5.1,11.8c-0.1,0.2-0.3,0.3-0.5,0.3H81
				C80.9,228.8,80.8,228.8,80.7,228.7z"/>
			<path class="st4" d="M89.7,216.5l-0.4-3.5c0-0.1,0-0.3,0.1-0.4c0.1-0.1,0.2-0.1,0.3-0.1h1.6c0.1,0,0.2,0,0.3,0.1s0.1,0.2,0.1,0.4
				l-0.4,3.5c0,0.3-0.2,0.5-0.5,0.5h-0.8C89.9,217,89.7,216.8,89.7,216.5z M93,216.5l-0.4-3.5c0-0.1,0-0.3,0.1-0.4
				c0.1-0.1,0.2-0.1,0.3-0.1h1.6c0.1,0,0.2,0,0.3,0.1c0.1,0.1,0.1,0.2,0.1,0.4l-0.4,3.5c0,0.3-0.2,0.5-0.4,0.5h-0.8
				C93.2,217,93,216.8,93,216.5z"/>
			<path class="st4" d="M97.2,224.3c-0.1-0.1-0.1-0.2-0.1-0.3v-1.4c0-0.1,0-0.3,0.1-0.4c0.1-0.1,0.2-0.2,0.3-0.3l4.4-2.9l-4.4-2.9
				c-0.2-0.1-0.3-0.2-0.3-0.3c-0.1-0.1-0.1-0.2-0.1-0.4v-1.4c0-0.1,0-0.2,0.1-0.3c0.1-0.1,0.2-0.1,0.3-0.1c0.1,0,0.2,0.1,0.4,0.2
				l6.1,4.2c0.2,0.1,0.3,0.3,0.4,0.4s0.1,0.3,0.1,0.4v0.4c0,0.2,0,0.3-0.1,0.4c-0.1,0.1-0.2,0.2-0.4,0.4l-6.1,4.2
				c-0.1,0.1-0.2,0.1-0.4,0.1C97.3,224.4,97.3,224.4,97.2,224.3z"/>
			<path class="st4" d="M109.7,225.2c-0.1-0.1-0.1-0.2-0.1-0.3v-9.3l-2.7,2.1c-0.1,0.1-0.2,0.1-0.3,0.1c-0.1,0-0.3-0.1-0.3-0.2
				l-0.8-1c-0.1-0.1-0.1-0.2-0.1-0.3c0-0.1,0.1-0.3,0.2-0.4l4-3.1c0.1-0.1,0.3-0.1,0.5-0.1h1.6c0.1,0,0.2,0,0.3,0.1s0.1,0.2,0.1,0.3
				v11.7c0,0.1,0,0.2-0.1,0.3s-0.2,0.1-0.3,0.1H110C109.9,225.4,109.8,225.3,109.7,225.2z"/>
			<path class="st4" d="M120.6,224.2l-6.1-4.2c-0.2-0.1-0.3-0.2-0.4-0.4c-0.1-0.1-0.1-0.3-0.1-0.4v-0.4c0-0.2,0-0.3,0.1-0.4
				s0.2-0.2,0.4-0.4l6.1-4.2c0.1-0.1,0.3-0.2,0.4-0.2s0.2,0,0.3,0.1c0.1,0.1,0.1,0.2,0.1,0.3v1.4c0,0.2,0,0.3-0.1,0.4
				c-0.1,0.1-0.2,0.2-0.3,0.3l-4.4,2.9l4.4,2.9c0.2,0.1,0.3,0.2,0.3,0.3c0.1,0.1,0.1,0.2,0.1,0.4v1.4c0,0.1,0,0.2-0.1,0.3
				c-0.1,0.1-0.2,0.1-0.3,0.1C120.8,224.4,120.7,224.3,120.6,224.2z"/>
			<path class="st4" d="M123,226.8c-0.1-0.1-0.1-0.2-0.1-0.3c0-0.1,0-0.1,0-0.2l6.1-14.7c0-0.1,0.1-0.2,0.2-0.3s0.2-0.1,0.4-0.1h1.2
				c0.1,0,0.2,0,0.3,0.1c0.1,0.1,0.1,0.2,0.1,0.3c0,0.1,0,0.1,0,0.2l-6.2,14.7c0,0.1-0.1,0.2-0.2,0.3c-0.1,0.1-0.2,0.1-0.4,0.1h-1.2
				C123.2,226.9,123.1,226.9,123,226.8z"/>
			<path class="st4" d="M135.1,224.3v0.7c0,0.1,0,0.2-0.1,0.3s-0.2,0.1-0.3,0.1h-1.4c-0.1,0-0.2,0-0.3-0.1s-0.1-0.2-0.1-0.3V213
				c0-0.1,0-0.2,0.1-0.3s0.2-0.1,0.3-0.1h1.6c0.1,0,0.2,0,0.3,0.1c0.1,0.1,0.1,0.2,0.1,0.3v4c0.7-0.8,1.6-1.2,2.8-1.2
				c1.2,0,2.1,0.4,2.8,1.2c0.7,0.8,1,1.8,1,3.1c0,0.1,0,0.3,0,0.6c0,0.2,0,0.4,0,0.6c0,1.3-0.4,2.3-1,3.1c-0.6,0.8-1.6,1.2-2.8,1.2
				C136.7,225.6,135.8,225.1,135.1,224.3z M139.4,221.2c0-0.1,0-0.3,0-0.5s0-0.4,0-0.5c-0.1-1.6-0.8-2.4-2.1-2.4
				c-0.7,0-1.2,0.2-1.5,0.6s-0.5,0.9-0.6,1.5c0,0.1,0,0.4,0,0.7c0,0.3,0,0.5,0,0.7c0,0.6,0.2,1.2,0.5,1.6c0.3,0.4,0.8,0.7,1.5,0.7
				C138.6,223.6,139.3,222.8,139.4,221.2z"/>
			<path class="st4" d="M144.7,224.5c-0.6-0.7-1-1.7-1-3v-5.1c0-0.1,0-0.2,0.1-0.3c0.1-0.1,0.2-0.1,0.3-0.1h1.6c0.1,0,0.2,0,0.3,0.1
				c0.1,0.1,0.1,0.2,0.1,0.3v5c0,1.5,0.6,2.2,1.9,2.2c0.6,0,1.1-0.2,1.5-0.6c0.4-0.4,0.5-0.9,0.5-1.6v-5c0-0.1,0-0.2,0.1-0.3
				s0.2-0.1,0.3-0.1h1.6c0.1,0,0.2,0,0.3,0.1c0.1,0.1,0.1,0.2,0.1,0.3v8.5c0,0.1,0,0.2-0.1,0.3c-0.1,0.1-0.2,0.1-0.3,0.1h-1.5
				c-0.1,0-0.2,0-0.3-0.1s-0.1-0.2-0.1-0.3v-0.7c-0.7,0.9-1.7,1.3-3,1.3C146.2,225.6,145.3,225.2,144.7,224.5z"/>
			<path class="st4" d="M156.8,224.5c-0.6-0.6-0.8-1.4-0.8-2.5v-4.1h-1.4c-0.1,0-0.2,0-0.3-0.1s-0.1-0.2-0.1-0.3v-1.1
				c0-0.1,0-0.2,0.1-0.3c0.1-0.1,0.2-0.1,0.3-0.1h1.4v-3c0-0.1,0-0.2,0.1-0.3s0.2-0.1,0.3-0.1h1.5c0.1,0,0.2,0,0.3,0.1
				s0.1,0.2,0.1,0.3v3h2.2c0.1,0,0.2,0,0.3,0.1c0.1,0.1,0.1,0.2,0.1,0.3v1.1c0,0.1,0,0.2-0.1,0.3c-0.1,0.1-0.2,0.1-0.3,0.1h-2.2v3.9
				c0,0.5,0.1,0.9,0.3,1.2c0.2,0.3,0.5,0.4,0.9,0.4h1.3c0.1,0,0.2,0,0.3,0.1c0.1,0.1,0.1,0.2,0.1,0.3v1.1c0,0.1,0,0.2-0.1,0.3
				c-0.1,0.1-0.2,0.1-0.3,0.1h-1.5C158.2,225.4,157.4,225.1,156.8,224.5z"/>
			<path class="st4" d="M164.6,224.5c-0.6-0.6-0.8-1.4-0.8-2.5v-4.1h-1.4c-0.1,0-0.2,0-0.3-0.1s-0.1-0.2-0.1-0.3v-1.1
				c0-0.1,0-0.2,0.1-0.3c0.1-0.1,0.2-0.1,0.3-0.1h1.4v-3c0-0.1,0-0.2,0.1-0.3s0.2-0.1,0.3-0.1h1.5c0.1,0,0.2,0,0.3,0.1
				s0.1,0.2,0.1,0.3v3h2.2c0.1,0,0.2,0,0.3,0.1c0.1,0.1,0.1,0.2,0.1,0.3v1.1c0,0.1,0,0.2-0.1,0.3c-0.1,0.1-0.2,0.1-0.3,0.1h-2.2v3.9
				c0,0.5,0.1,0.9,0.3,1.2c0.2,0.3,0.5,0.4,0.9,0.4h1.3c0.1,0,0.2,0,0.3,0.1c0.1,0.1,0.1,0.2,0.1,0.3v1.1c0,0.1,0,0.2-0.1,0.3
				c-0.1,0.1-0.2,0.1-0.3,0.1H167C166,225.4,165.1,225.1,164.6,224.5z"/>
			<path class="st4" d="M171.4,224.5c-0.8-0.7-1.2-1.7-1.2-3l0-0.8l0-0.8c0.1-1.3,0.5-2.3,1.3-3c0.8-0.7,1.9-1.1,3.3-1.1
				c1.4,0,2.5,0.4,3.2,1.1c0.8,0.7,1.2,1.7,1.3,3c0,0.1,0,0.4,0,0.8s0,0.6,0,0.8c-0.1,1.3-0.5,2.3-1.2,3c-0.8,0.7-1.9,1.1-3.3,1.1
				C173.3,225.6,172.2,225.2,171.4,224.5z M176.2,223.1c0.3-0.4,0.5-1,0.5-1.7c0-0.1,0-0.4,0-0.7c0-0.3,0-0.6,0-0.7
				c0-0.8-0.2-1.4-0.6-1.8c-0.3-0.4-0.8-0.6-1.5-0.6c-0.6,0-1.1,0.2-1.5,0.6c-0.3,0.4-0.5,1-0.6,1.8l0,0.7l0,0.7
				c0,0.8,0.2,1.3,0.6,1.7c0.3,0.4,0.8,0.6,1.5,0.6C175.3,223.7,175.8,223.5,176.2,223.1z"/>
			<path class="st4" d="M181.4,225.2c-0.1-0.1-0.1-0.2-0.1-0.3v-8.5c0-0.1,0-0.2,0.1-0.3s0.2-0.1,0.3-0.1h1.5c0.1,0,0.2,0,0.3,0.1
				c0.1,0.1,0.1,0.2,0.1,0.3v0.7c0.7-0.9,1.7-1.3,3-1.3c1.1,0,2,0.4,2.6,1.1s1,1.7,1,3v5.1c0,0.1,0,0.2-0.1,0.3
				c-0.1,0.1-0.2,0.1-0.3,0.1h-1.6c-0.1,0-0.2,0-0.3-0.1s-0.1-0.2-0.1-0.3v-5c0-0.7-0.2-1.2-0.5-1.6c-0.3-0.4-0.8-0.6-1.5-0.6
				c-0.6,0-1.1,0.2-1.5,0.6c-0.4,0.4-0.6,0.9-0.6,1.6v5c0,0.1,0,0.2-0.1,0.3c-0.1,0.1-0.2,0.1-0.3,0.1h-1.6
				C181.5,225.4,181.4,225.3,181.4,225.2z"/>
			<path class="st4" d="M192.5,224.3c-0.1-0.1-0.1-0.2-0.1-0.3v-1.4c0-0.1,0-0.3,0.1-0.4c0.1-0.1,0.2-0.2,0.3-0.3l4.4-2.9l-4.4-2.9
				c-0.2-0.1-0.3-0.2-0.3-0.3c-0.1-0.1-0.1-0.2-0.1-0.4v-1.4c0-0.1,0-0.2,0.1-0.3c0.1-0.1,0.2-0.1,0.3-0.1c0.1,0,0.2,0.1,0.4,0.2
				l6.1,4.2c0.2,0.1,0.3,0.3,0.4,0.4s0.1,0.3,0.1,0.4v0.4c0,0.2,0,0.3-0.1,0.4c-0.1,0.1-0.2,0.2-0.4,0.4l-6.1,4.2
				c-0.1,0.1-0.2,0.1-0.4,0.1C192.7,224.4,192.6,224.4,192.5,224.3z"/>
			<path class="st4" d="M83.9,249.2l-6.1-4.2c-0.2-0.1-0.3-0.2-0.4-0.4c-0.1-0.1-0.1-0.3-0.1-0.4v-0.4c0-0.2,0-0.3,0.1-0.4
				s0.2-0.2,0.4-0.4l6.1-4.2c0.1-0.1,0.3-0.2,0.4-0.2s0.2,0,0.3,0.1c0.1,0.1,0.1,0.2,0.1,0.3v1.4c0,0.2,0,0.3-0.1,0.4
				c-0.1,0.1-0.2,0.2-0.3,0.3l-4.4,2.9l4.4,2.9c0.2,0.1,0.3,0.2,0.3,0.3c0.1,0.1,0.1,0.2,0.1,0.4v1.4c0,0.1,0,0.2-0.1,0.3
				c-0.1,0.1-0.2,0.1-0.3,0.1C84.1,249.4,84,249.3,83.9,249.2z"/>
			<path class="st4" d="M89.3,249.3v0.7c0,0.1,0,0.2-0.1,0.3s-0.2,0.1-0.3,0.1h-1.4c-0.1,0-0.2,0-0.3-0.1s-0.1-0.2-0.1-0.3V238
				c0-0.1,0-0.2,0.1-0.3s0.2-0.1,0.3-0.1H89c0.1,0,0.2,0,0.3,0.1c0.1,0.1,0.1,0.2,0.1,0.3v4c0.7-0.8,1.6-1.2,2.8-1.2
				c1.2,0,2.1,0.4,2.8,1.2c0.7,0.8,1,1.8,1,3.1c0,0.1,0,0.3,0,0.6c0,0.2,0,0.4,0,0.6c0,1.3-0.4,2.3-1,3.1c-0.6,0.8-1.6,1.2-2.8,1.2
				C90.9,250.6,90,250.1,89.3,249.3z M93.5,246.2c0-0.1,0-0.3,0-0.5s0-0.4,0-0.5c-0.1-1.6-0.8-2.4-2.1-2.4c-0.7,0-1.2,0.2-1.5,0.6
				s-0.5,0.9-0.6,1.5c0,0.1,0,0.4,0,0.7c0,0.3,0,0.5,0,0.7c0,0.6,0.2,1.2,0.5,1.6c0.3,0.4,0.8,0.7,1.5,0.7
				C92.8,248.6,93.4,247.8,93.5,246.2z"/>
			<path class="st4" d="M98.9,249.5c-0.6-0.7-1-1.7-1-3v-5.1c0-0.1,0-0.2,0.1-0.3c0.1-0.1,0.2-0.1,0.3-0.1h1.6c0.1,0,0.2,0,0.3,0.1
				c0.1,0.1,0.1,0.2,0.1,0.3v5c0,1.5,0.6,2.2,1.9,2.2c0.6,0,1.1-0.2,1.5-0.6c0.4-0.4,0.5-0.9,0.5-1.6v-5c0-0.1,0-0.2,0.1-0.3
				s0.2-0.1,0.3-0.1h1.6c0.1,0,0.2,0,0.3,0.1c0.1,0.1,0.1,0.2,0.1,0.3v8.5c0,0.1,0,0.2-0.1,0.3c-0.1,0.1-0.2,0.1-0.3,0.1h-1.5
				c-0.1,0-0.2,0-0.3-0.1s-0.1-0.2-0.1-0.3v-0.7c-0.7,0.9-1.7,1.3-3,1.3C100.4,250.6,99.5,250.2,98.9,249.5z"/>
			<path class="st4" d="M111,249.5c-0.6-0.6-0.8-1.4-0.8-2.5v-4.1h-1.4c-0.1,0-0.2,0-0.3-0.1s-0.1-0.2-0.1-0.3v-1.1
				c0-0.1,0-0.2,0.1-0.3c0.1-0.1,0.2-0.1,0.3-0.1h1.4v-3c0-0.1,0-0.2,0.1-0.3s0.2-0.1,0.3-0.1h1.5c0.1,0,0.2,0,0.3,0.1
				s0.1,0.2,0.1,0.3v3h2.2c0.1,0,0.2,0,0.3,0.1c0.1,0.1,0.1,0.2,0.1,0.3v1.1c0,0.1,0,0.2-0.1,0.3c-0.1,0.1-0.2,0.1-0.3,0.1h-2.2v3.9
				c0,0.5,0.1,0.9,0.3,1.2c0.2,0.3,0.5,0.4,0.9,0.4h1.3c0.1,0,0.2,0,0.3,0.1c0.1,0.1,0.1,0.2,0.1,0.3v1.1c0,0.1,0,0.2-0.1,0.3
				c-0.1,0.1-0.2,0.1-0.3,0.1h-1.5C112.4,250.4,111.5,250.1,111,249.5z"/>
			<path class="st4" d="M118.8,249.5c-0.6-0.6-0.8-1.4-0.8-2.5v-4.1h-1.4c-0.1,0-0.2,0-0.3-0.1s-0.1-0.2-0.1-0.3v-1.1
				c0-0.1,0-0.2,0.1-0.3c0.1-0.1,0.2-0.1,0.3-0.1h1.4v-3c0-0.1,0-0.2,0.1-0.3s0.2-0.1,0.3-0.1h1.5c0.1,0,0.2,0,0.3,0.1
				s0.1,0.2,0.1,0.3v3h2.2c0.1,0,0.2,0,0.3,0.1c0.1,0.1,0.1,0.2,0.1,0.3v1.1c0,0.1,0,0.2-0.1,0.3c-0.1,0.1-0.2,0.1-0.3,0.1h-2.2v3.9
				c0,0.5,0.1,0.9,0.3,1.2c0.2,0.3,0.5,0.4,0.9,0.4h1.3c0.1,0,0.2,0,0.3,0.1c0.1,0.1,0.1,0.2,0.1,0.3v1.1c0,0.1,0,0.2-0.1,0.3
				c-0.1,0.1-0.2,0.1-0.3,0.1h-1.5C120.1,250.4,119.3,250.1,118.8,249.5z"/>
			<path class="st4" d="M125.6,249.5c-0.8-0.7-1.2-1.7-1.2-3l0-0.8l0-0.8c0.1-1.3,0.5-2.3,1.3-3c0.8-0.7,1.9-1.1,3.3-1.1
				c1.4,0,2.5,0.4,3.2,1.1c0.8,0.7,1.2,1.7,1.3,3c0,0.1,0,0.4,0,0.8s0,0.6,0,0.8c-0.1,1.3-0.5,2.3-1.2,3c-0.8,0.7-1.9,1.1-3.3,1.1
				C127.5,250.6,126.4,250.2,125.6,249.5z M130.4,248.1c0.3-0.4,0.5-1,0.5-1.7c0-0.1,0-0.4,0-0.7c0-0.3,0-0.6,0-0.7
				c0-0.8-0.2-1.4-0.6-1.8c-0.3-0.4-0.8-0.6-1.5-0.6c-0.6,0-1.1,0.2-1.5,0.6c-0.3,0.4-0.5,1-0.6,1.8l0,0.7l0,0.7
				c0,0.8,0.2,1.3,0.6,1.7c0.3,0.4,0.8,0.6,1.5,0.6C129.5,248.7,130,248.5,130.4,248.1z"/>
			<path class="st4" d="M135.5,250.2c-0.1-0.1-0.1-0.2-0.1-0.3v-8.5c0-0.1,0-0.2,0.1-0.3s0.2-0.1,0.3-0.1h1.5c0.1,0,0.2,0,0.3,0.1
				c0.1,0.1,0.1,0.2,0.1,0.3v0.7c0.7-0.9,1.7-1.3,3-1.3c1.1,0,2,0.4,2.6,1.1s1,1.7,1,3v5.1c0,0.1,0,0.2-0.1,0.3
				c-0.1,0.1-0.2,0.1-0.3,0.1h-1.6c-0.1,0-0.2,0-0.3-0.1s-0.1-0.2-0.1-0.3v-5c0-0.7-0.2-1.2-0.5-1.6c-0.3-0.4-0.8-0.6-1.5-0.6
				c-0.6,0-1.1,0.2-1.5,0.6c-0.4,0.4-0.6,0.9-0.6,1.6v5c0,0.1,0,0.2-0.1,0.3c-0.1,0.1-0.2,0.1-0.3,0.1h-1.6
				C135.7,250.4,135.6,250.3,135.5,250.2z"/>
			<path class="st4" d="M152.2,249.5c-0.6-0.6-0.8-1.4-0.8-2.5v-4.1h-1.4c-0.1,0-0.2,0-0.3-0.1s-0.1-0.2-0.1-0.3v-1.1
				c0-0.1,0-0.2,0.1-0.3c0.1-0.1,0.2-0.1,0.3-0.1h1.4v-3c0-0.1,0-0.2,0.1-0.3s0.2-0.1,0.3-0.1h1.5c0.1,0,0.2,0,0.3,0.1
				s0.1,0.2,0.1,0.3v3h2.2c0.1,0,0.2,0,0.3,0.1c0.1,0.1,0.1,0.2,0.1,0.3v1.1c0,0.1,0,0.2-0.1,0.3c-0.1,0.1-0.2,0.1-0.3,0.1h-2.2v3.9
				c0,0.5,0.1,0.9,0.3,1.2c0.2,0.3,0.5,0.4,0.9,0.4h1.3c0.1,0,0.2,0,0.3,0.1c0.1,0.1,0.1,0.2,0.1,0.3v1.1c0,0.1,0,0.2-0.1,0.3
				c-0.1,0.1-0.2,0.1-0.3,0.1h-1.5C153.6,250.4,152.7,250.1,152.2,249.5z"/>
			<path class="st4" d="M159.6,253.7c-0.1-0.1-0.1-0.2-0.1-0.3c0-0.1,0-0.2,0.1-0.3l1.4-3.3l-3.5-8.2c0-0.1-0.1-0.2-0.1-0.3
				c0-0.1,0.1-0.2,0.1-0.3c0.1-0.1,0.2-0.1,0.3-0.1h1.5c0.2,0,0.4,0.1,0.5,0.3l2.4,5.9l2.4-5.9c0.1-0.2,0.3-0.3,0.5-0.3h1.5
				c0.1,0,0.2,0,0.3,0.1c0.1,0.1,0.1,0.2,0.1,0.3c0,0.1,0,0.2-0.1,0.3l-5.1,11.8c-0.1,0.2-0.3,0.3-0.5,0.3h-1.4
				C159.7,253.8,159.7,253.8,159.6,253.7z"/>
			<path class="st4" d="M168.6,253.7c-0.1-0.1-0.1-0.2-0.1-0.3v-11.9c0-0.1,0-0.2,0.1-0.3s0.2-0.1,0.3-0.1h1.4c0.1,0,0.2,0,0.3,0.1
				c0.1,0.1,0.1,0.2,0.1,0.3v0.7c0.6-0.9,1.6-1.3,2.9-1.3c1.2,0,2.1,0.4,2.8,1.1c0.6,0.8,1,1.8,1,3.1c0,0.1,0,0.4,0,0.6s0,0.5,0,0.6
				c0,1.3-0.4,2.3-1,3.1c-0.7,0.8-1.6,1.2-2.8,1.2c-1.2,0-2.1-0.4-2.8-1.3v4.1c0,0.1,0,0.2-0.1,0.3c-0.1,0.1-0.2,0.1-0.3,0.1H169
				C168.8,253.8,168.7,253.8,168.6,253.7z M175.1,246.2c0-0.1,0-0.3,0-0.5s0-0.4,0-0.5c-0.1-1.6-0.8-2.4-2.1-2.4
				c-0.7,0-1.2,0.2-1.5,0.7c-0.3,0.4-0.5,1-0.5,1.6c0,0.1,0,0.4,0,0.7c0,0.3,0,0.5,0,0.7c0,0.6,0.2,1.1,0.6,1.5s0.9,0.6,1.5,0.6
				C174.3,248.6,175,247.8,175.1,246.2z"/>
			<path class="st4" d="M180.4,249.4c-0.8-0.8-1.2-1.9-1.3-3.3l0-0.5c0-1.5,0.4-2.7,1.2-3.5c0.8-0.9,1.9-1.3,3.3-1.3
				c1.4,0,2.5,0.4,3.3,1.3s1.2,2,1.2,3.5v0.4c0,0.1,0,0.2-0.1,0.3c-0.1,0.1-0.2,0.1-0.3,0.1h-6v0.1c0,0.7,0.2,1.2,0.5,1.7
				c0.3,0.4,0.8,0.7,1.4,0.7c0.7,0,1.2-0.3,1.7-0.8c0.1-0.1,0.2-0.2,0.3-0.2s0.2,0,0.3,0h1.6c0.1,0,0.2,0,0.3,0.1
				c0.1,0.1,0.1,0.1,0.1,0.3c0,0.3-0.2,0.6-0.5,1c-0.3,0.4-0.8,0.7-1.5,1c-0.6,0.3-1.4,0.4-2.2,0.4
				C182.3,250.6,181.2,250.2,180.4,249.4z M185.6,244.9L185.6,244.9c0-0.7-0.2-1.3-0.5-1.7s-0.8-0.6-1.4-0.6c-0.6,0-1.1,0.2-1.4,0.6
				s-0.5,1-0.5,1.7v0H185.6z"/>
			<path class="st4" d="M190.1,243.5c-0.1-0.1-0.1-0.2-0.1-0.3v-1c0-0.1,0-0.2,0.1-0.3s0.2-0.1,0.3-0.1h7c0.1,0,0.2,0,0.3,0.1
				c0.1,0.1,0.1,0.2,0.1,0.3v1c0,0.1,0,0.2-0.1,0.3c-0.1,0.1-0.2,0.1-0.3,0.1h-7C190.3,243.7,190.2,243.6,190.1,243.5z M190.1,248
				c-0.1-0.1-0.1-0.2-0.1-0.3v-1c0-0.1,0-0.2,0.1-0.3s0.2-0.1,0.3-0.1h7c0.1,0,0.2,0,0.3,0.1c0.1,0.1,0.1,0.2,0.1,0.3v1
				c0,0.1,0,0.2-0.1,0.3c-0.1,0.1-0.2,0.1-0.3,0.1h-7C190.3,248.2,190.2,248.1,190.1,248z"/>
			<path class="st4" d="M200.2,241.5l-0.4-3.5c0-0.1,0-0.3,0.1-0.4c0.1-0.1,0.2-0.1,0.3-0.1h1.6c0.1,0,0.2,0,0.3,0.1
				s0.1,0.2,0.1,0.4l-0.4,3.5c0,0.3-0.2,0.5-0.5,0.5h-0.8C200.4,242,200.3,241.8,200.2,241.5z M203.5,241.5l-0.4-3.5
				c0-0.1,0-0.3,0.1-0.4c0.1-0.1,0.2-0.1,0.3-0.1h1.6c0.1,0,0.2,0,0.3,0.1c0.1,0.1,0.1,0.2,0.1,0.4l-0.4,3.5c0,0.3-0.2,0.5-0.4,0.5
				H204C203.7,242,203.6,241.8,203.5,241.5z"/>
		</g>
	</g>
</g>
<g>
	<defs>
		<circle id="SVGID_5_" cx="217" cy="180.4" r="149.7"/>
	</defs>
	<clipPath id="SVGID_6_">
		<use xlink:href="#SVGID_5_"  style="overflow:visible;"/>
	</clipPath>
	<g id="Developer_2_" class="st5">
		<polyline class="st6" points="422,278.3 274,302.3 275.8,61.2 399.8,180.4 422,278.3 		"/>
		<path class="st7" d="M193.6,197.8c10.6,13.2,64.3,27.6,87,0.4c22.7-27.2,14.4-90.1-9.8-109.7s-40.2-19.3-58.3-4.2
			C179.9,111.6,183,184.6,193.6,197.8z"/>
		<path class="st8" d="M282.5,189.7c-3.9-11-18.2-14.3-18.2-14.3l-10.1-4.7v-0.5h-25.6v0.6l-9.7,4.6c0,0-14.3,3.2-18.2,14.3
			c0,0-8.4,12.3-0.6,18.8h83C290.9,202,282.5,189.7,282.5,189.7z"/>
		<path class="st9" d="M282.5,191.6c-3.9-11-18.2-14.3-18.2-14.3l-10.1-4.7v-0.5h-25.6v0.6l-9.7,4.6c0,0-14.3,3.2-18.2,14.3
			c0,0-8.4,12.3-0.6,18.8h83C290.9,204,282.5,191.6,282.5,191.6z"/>
		<path class="st10" d="M346.4,237.7c-1.3-4.7-5-22.5-19-25.1c-24.2-4.5-54.1-14.3-54.1-14.3c-4.4,17.3-56.3,16.4-62.7,0
			c0,0-29.9,9.7-54.1,14.3c-14.1,2.6-17.7,20.4-19,25.1c0,0,21.1,44.4,103.9,44.4C311.9,282.1,346.4,237.7,346.4,237.7z"/>
		<path class="st11" d="M267.5,194c-2.7-3.8,0-25.7,0-25.7c-1.7,2.9-25.1,4.4-26.6,4.5c-1.5-0.1-24.9-1.6-26.6-4.5
			c0,0,2.7,21.9,0,25.7c-2.7,3.8,8.8,12.8,26.5,15.1v0c0,0,0,0,0.1,0c0,0,0,0,0.1,0v0C258.7,206.9,270.2,197.8,267.5,194z"/>
		<g>
			<path class="st12" d="M267.2,168.6c-1.7,2.9-25.1,4.4-26.6,4.5c-1.5-0.1-24.9-1.6-26.6-4.5c0,0,0.2,1.8,0.5,4.5
				c5.8,15.7,25.9,16.8,36.2,16.8c4.1,0,9.7-0.2,15.4-1.4C265.7,180.8,267.2,168.6,267.2,168.6z"/>
		</g>
		<path class="st11" d="M203.2,143.4c0,0-7.9-3.8-8.7-12.1s-2.5-26.9,8.1-20.9L203.2,143.4z"/>
		<path class="st11" d="M277.6,143.4c0,0,7.9-3.8,8.7-12.1c0.8-8.3,2.5-26.9-8.1-20.9L277.6,143.4z"/>
		<path class="st11" d="M241.6,179.3c12.1,0,37.8-1.5,37.8-26.5v-12.1v-28.5c0-12.1-5-23.9-14.1-31.9c-3.9-3.5-8.6-6.2-13.9-6.9
			h-19.7c-17.4,2.3-22.3,12.9-28,26.5s0,53,0,53C203.8,177.8,229.5,179.3,241.6,179.3"/>
		<g>
			<path class="st13" d="M241.3,78.4l0.2,1.9c7.8,22.1,35.7,26.5,37.7,27c-0.3-3-0.4-5-0.9-6.2C278.4,101.2,249.1,92.6,241.3,78.4z"
				/>
			<path class="st13" d="M265.4,80.2c-3.9-3.5-8.6-6.2-13.9-6.9h-2.8c3.3,1.3,6.3,3.3,9,5.6c9.1,8,14.1,19.8,14.1,31.9v28.5v12.1
				c0,25-25.7,26.5-37.8,26.5c-2.6,0-5.7-0.1-9.1-0.4c6.2,1.5,12.5,1.7,16.9,1.7c12.1,0,37.8-1.5,37.8-26.5v-12.1v-28.5
				C279.5,100,274.5,88.3,265.4,80.2z"/>
			<g>
				<path class="st13" d="M242.5,80.3c-2.4,0.5-26.6,3.1-36.8,15c-0.6,1.4-1.3,2.9-1.9,4.5c-0.1,0.2-0.2,0.4-0.2,0.6
					c14.1-13.2,39.7-16,39.7-16L242.5,80.3z"/>
			</g>
		</g>
		<path class="st14" d="M278.2,199.6l-8.7-5.9c0,0-8.8,12.3-28.1,13.5c-19.3-1.2-28.7-13.5-28.7-13.5l-8.2,6.6
			c4,5,7.4,8.6,11.9,11.8c14.2,9.8,34.1,9.8,50-0.3C270.8,208.9,275.9,204.7,278.2,199.6z"/>
		<path class="st15" d="M239.6,55.8c0,0,9.5-2.8,14.1-3.8s12,0,22.1,9.2s31.3,29.4,28.5,65.3s-3.2,78.3-4.3,76.4
			c-13.2-15.6-16.6-17.5-23.9-21.7c0,0-1.9-2.7-0.2-10.4c7.9-33.8,7.4-61.2,4.9-66.8c0,0-33.2-8.4-38.8-24L239.6,55.8z"/>
		<path class="st7" d="M290.9,189.4c-2.6-3.2-9.1-14.9-8.4-27.9c0.6-13,1.9-26.6,1.9-26.6L290.9,189.4z"/>
		<path class="st15" d="M242.9,80.4c0,0-38,3.9-43.2,25.3c-3.5,14.2-2.4,41.9-1.6,48.3c1.8,15.6,7.6,21.9,2.1,30.2
			c-5.5,8.3-5.2,17.1-14.1,16.4c0,0-13.3-52-8.7-64c4.6-12,0-32.2,4.6-38.7S192.1,51,228,53c16.6,0.9,12.9,4.6,12.9,4.6L242.9,80.4z
			"/>
		<g>
			<path class="st7" d="M201.3,101.8c9.8-16.5,41.4-20.4,41.4-20.4l-0.9-4.5l-0.2-1.2C232.7,77,208.9,78.4,201.3,101.8z"/>
		</g>
		<path class="st16" d="M346.4,237.7c-1.3-4.7-5-22.5-19-25.1c-13-2.4-27.6-6.4-38.3-9.5c0,0-13.1,26.1-48.1,25.3
			c-33.7-0.8-42.9-16.1-46.7-25.1c-10.7,3.1-25,6.9-37.7,9.3c-14.1,2.6-17.7,20.4-19,25.1c0,0,0,0,0,0.1l-0.1-0.1
			c0,0-11.3,55.6,1,60.1c8.6,3.2,54.1,23.3,82.8,23.6c17.3,0.2,7.3,5.6,21.2,8.2c28.2,5.2,94.4-28.5,103.1-31.7
			C357.7,293.2,346.4,237.7,346.4,237.7z"/>
		<path class="st7" d="M240.5,55.6l1,20.4l-6.7,0.9c0,0,5.3-0.2,4.8-17.8"/>
		<path class="st7" d="M193.3,144.4c0,0,1.9,22.7,0,38.9c-1.9,16.2-3.9,14.9-3.9,14.9l3.2-72"/>
		<path class="st8" d="M347.1,238.3c-1.3-4.7-5-22.5-19-25.1c-1.9-0.4-3.8-0.7-5.8-1.2c8.5,5.9,11.1,18.4,12.2,22.2
			c0,0,6.3,44.2-73.3,66.6c0.8-0.3,28.2-1.6,29-1.9c0,0-25.2,22.3-58.3,24.3c-33.1,1.9,32.1,4.9,32.1,4.9
			c24.7-4,76.1-27.5,82.1-29.7C358.4,293.9,347.1,238.3,347.1,238.3z"/>
		<path class="st16" d="M241.6,227.8c-8.2-2.7-29.8-10.2-36-17.1c-5.2-5.8-12.9-17.4,9.4-33.9c0.2-0.2-28.4,9.3-36.4,30.9
			c0,0,6.4,19.2,60.1,21.1c1.5,0,2.4,0.1,2.8,0.1"/>
		<path class="st16" d="M240.9,227.8c8.2-2.7,29.8-10.2,36-17.1c5.2-5.8,12.9-17.4-9.4-33.9c-0.2-0.2,28.4,9.3,36.4,30.9
			c0,0-6.4,19.2-60.1,21.1c-1.5,0-2.4,0.1-2.8,0.1"/>
		<g>
			<path class="st8" d="M272.2,178.6c8.7,4.9,24.4,11.2,28.8,23.2c0,0-10.1,23.5-60,26.4v0.6c0.4,0,1.3,0,2.8-0.1
				c53.8-1.9,60.1-21.1,60.1-21.1C298,191.5,280.6,182.2,272.2,178.6z"/>
			<g>
				<path class="st8" d="M303.1,205.8c-0.1-0.2-0.2-0.3-0.2-0.5c-0.2-0.4-0.4-0.9-0.6-1.3c-0.1-0.2-0.2-0.3-0.2-0.5
					c-0.3-0.6-0.6-1.1-0.9-1.7c0,0,0-0.1-0.1-0.1c-0.1-0.2-0.2-0.4-0.4-0.6c0.1,0.2,0.2,0.4,0.2,0.5c0,0-10.1,23.5-60,26.4v0.6
					c0.4,0,1.3-0.2,2.8-0.1c62.1,3.7,60.1-21.1,60.1-21.1C303.6,207,303.4,206.4,303.1,205.8z"/>
				<path class="st8" d="M179.4,205.8c0.1-0.2,0.2-0.3,0.2-0.5c0.2-0.4,0.4-0.9,0.6-1.3c0.1-0.2,0.2-0.3,0.2-0.5
					c0.3-0.6,0.6-1.1,0.9-1.7c0,0,0-0.1,0.1-0.1c0.1-0.2,0.2-0.4,0.4-0.6c-0.1,0.2-0.2,0.4-0.2,0.5c0,0,10.1,23.5,60,26.4v0.6
					c-0.4,0-1.3-0.2-2.8-0.1c-61.4,5.7-60.1-21.1-60.1-21.1C178.9,207,179.1,206.4,179.4,205.8z"/>
			</g>
		</g>
		<path class="st17" d="M246.9,228c0,0,15.1,7.3,15.6,27.2v14.6c0.2,1.2-1.9,1.9-1.9-0.9c-0.1-2.6,0-13.8,0-13.8
			c-0.5-18.8-14.7-25.7-14.7-25.7S244.8,228,246.9,228z"/>
		<path class="st17" d="M234.9,228c0,0-15.1,7.3-15.6,27.2v14.6c-0.2,1.2,1.9,1.9,1.9-0.9c0.1-2.6,0-13.8,0-13.8
			c0.5-18.8,14.7-25.7,14.7-25.7S237,228,234.9,228z"/>
		<circle class="st17" cx="261.4" cy="263.7" r="2.3"/>
		<circle class="st17" cx="220.5" cy="264.7" r="2.3"/>
		<rect x="239.9" y="228.3" class="st8" width="1.5" height="56.9"/>
		<path class="st7" d="M282.8,95.5c0,0-0.5-0.1-1.2-0.2c0-0.1-0.1-0.1-0.1-0.2c0,0-28-4.6-39.3-14.1c4.7,10.4,25,19.8,37.1,22.2
			l1.1,5.9l13,4.2v-3.9C292.5,97.8,282.8,95.5,282.8,95.5z"/>
		<path class="st18" d="M293.1,142.2h-2.9c-1.5,0-2.7-1.2-2.7-2.7v-26.9c0-1.5,1.2-2.7,2.7-2.7h2.9c1.5,0,2.7,1.2,2.7,2.7v26.9
			C295.8,141,294.6,142.2,293.1,142.2z"/>
		<path class="st19" d="M291.5,142.2h-2.9c-1.5,0-2.7-1.2-2.7-2.7v-26.9c0-1.5,1.2-2.7,2.7-2.7h2.9c1.5,0,2.7,1.2,2.7,2.7v26.9
			C294.2,141,293,142.2,291.5,142.2z"/>
		<path class="st19" d="M286.4,144.8h-4.4c-1.5,0-2.7-1.2-2.7-2.7v-32.6c0-1.5,1.2-2.7,2.7-2.7h4.4c1.5,0,2.7,1.2,2.7,2.7v32.6
			C289.1,143.6,287.9,144.8,286.4,144.8z"/>
		<path class="st18" d="M288.5,106.9h-1.9c1.4,0,2.6,1.2,2.6,2.6v32.7c0,1.4-1.2,2.6-2.6,2.6h1.9c1.4,0,2.6-1.2,2.6-2.6v-32.7
			C291.1,108,289.9,106.9,288.5,106.9z"/>
		<g>
			<path class="st18" d="M185.7,142.2h2.9c1.5,0,2.7-1.2,2.7-2.7v-26.9c0-1.5-1.2-2.7-2.7-2.7h-2.9c-1.5,0-2.7,1.2-2.7,2.7v26.9
				C183,141,184.3,142.2,185.7,142.2z"/>
			<path class="st19" d="M187.4,142.2h2.9c1.5,0,2.7-1.2,2.7-2.7v-26.9c0-1.5-1.2-2.7-2.7-2.7h-2.9c-1.5,0-2.7,1.2-2.7,2.7v26.9
				C184.7,141,185.9,142.2,187.4,142.2z"/>
			<path class="st19" d="M192.4,144.8h4.4c1.5,0,2.7-1.2,2.7-2.7v-32.6c0-1.5-1.2-2.7-2.7-2.7h-4.4c-1.5,0-2.7,1.2-2.7,2.7v32.6
				C189.7,143.6,190.9,144.8,192.4,144.8z"/>
			<path class="st18" d="M190.4,106.9h1.9c-1.4,0-2.6,1.2-2.6,2.6v32.7c0,1.4,1.2,2.6,2.6,2.6h-1.9c-1.4,0-2.6-1.2-2.6-2.6v-32.7
				C187.8,108,188.9,106.9,190.4,106.9z"/>
		</g>
		<g>
			<path class="st18" d="M251.4,61.4c2.5,0.9,5.3,3.6,6.8,5.6c11.7,6.3,19.2,14.1,21.9,28.2c0.7,0.1,2.8,0.3,4.1,1
				C281.4,77.4,267.7,64.3,251.4,61.4z"/>
			<path class="st19" d="M250.6,61.2c2.5,0.9,4.7,2.3,6.2,4.3c12.2,4.4,22.1,15.7,24.8,29.8c0.7,0.1,1.1,0.2,1.1,0.2s1,0.2,2.4,0.9
				C282.3,77.7,268.1,63,250.6,61.2z"/>
			<path class="st18" d="M223.5,66.4c-0.1,0-0.2,0-0.4,0.1c-12.2,4.4-21.7,15.7-24.4,29.8c-0.4,1-2.8,7.1-2.8,7.1s-1-1.9-0.7-5.9
				c2.3-15.1,11.9-27.5,24.6-32.7L223.5,66.4z"/>
			<path class="st19" d="M222.5,65.5c-0.1,0-0.2,0-0.4,0.1c-12.2,4.4-21.7,15.7-24.4,29.8c-0.4,1-2.8,7.1-2.8,7.1s-1-1.9-0.7-5.9
				c2.3-15.1,11.9-27.5,24.6-32.7L222.5,65.5z"/>
		</g>
		<path class="st8" d="M228,296.9c-72.9-0.7-73.3-70.3-77.9-82.3c-6.1,4.1-9.2,11.4-10.9,16.8l-0.1,0c-0.9,2.7-1.4,5-1.8,6.3
			c0,0-11.3,55.6,1,60.1c6,2.2,31.8,12.1,56.5,16.1c0,0,1.5-16.6,22.9-16.6C221.2,297.3,224.6,297.1,228,296.9z"/>
		<path class="st20" d="M194.9,141.4c0,0-1.3,38,11,55.1c14.7,20.5,35,28.2,40.9,88.6"/>
		<path class="st20" d="M282.2,138.8c0,0,1.3,38-11,55.1c-10.7,14.9-24.3,23-33.2,49.4"/>
		<path class="st8" d="M316,254.2c0,0-1.3,24.9-5,32.8c-3.7,7.9,15-3.6,15-3.6C326.5,286.5,324.9,264.3,316,254.2z"/>
		<path class="st8" d="M319.9,241.5c0,0,6.6,27.5-3.5,42.1c-13.6,19.6,3.8,2.6,13.7-6.4C330.2,277.3,327,251.2,319.9,241.5z"/>
		<g>
			<path class="st13" d="M239.9,141.7c4.4,0,8-2,8-4.4l-16.1,0C231.9,139.7,235.5,141.7,239.9,141.7z"/>
			<g>
				<path class="st21" d="M255.8,115c-2.8,0-5.2,2.3-5.2,5.2c0,1.1,0.4,2.2,1,3.1h8.3c0.6-0.9,1-1.9,1-3.1
					C260.9,117.3,258.6,115,255.8,115z"/>
			</g>
			<g>
				<path class="st21" d="M221.3,115c-2.8,0-5.2,2.3-5.2,5.2c0,1.1,0.4,2.2,1,3.1h8.3c0.6-0.9,1-1.9,1-3.1
					C226.5,117.3,224.2,115,221.3,115z"/>
			</g>
			<path class="st13" d="M258,152.6h-36.4c0,0,0,0.1,0,0.1c0,5.5,8.2,10,18.2,10C249.8,162.7,258,158.2,258,152.6
				C258,152.7,258,152.7,258,152.6z"/>
			<path class="st17" d="M221.5,152.6c0,0,0,0.1,0,0.1c0,2.8,8.2,5.1,18.3,5.1c10.1,0,18.3-2.3,18.3-5.1c0,0,0-0.1,0-0.1H221.5z"/>
		</g>
	</g>
</g>
<g>
	<path class="st23" d="M135,296.8h-26.3c-0.7,0-1.3-0.6-1.3-1.3v-59.7c0-0.7,0.6-1.3,1.3-1.3H135c0.7,0,1.3,0.6,1.3,1.3v59.7
		C136.4,296.2,135.8,296.8,135,296.8z"/>
	<path class="st24" d="M134.9,297.5h-26.3c-0.7,0-1.3-0.6-1.3-1.3v-59.7c0-0.7,0.6-1.3,1.3-1.3h26.3c0.7,0,1.3,0.6,1.3,1.3v59.7
		C136.2,296.9,135.6,297.5,134.9,297.5z"/>
	<g>
		<path class="st10" d="M134.8,234.7h-26.1c-0.8,0-1.5,0.6-1.5,1.3v20.4c0-0.7,0.7-1.3,1.5-1.3h26.1c0.8,0,1.5,0.6,1.5,1.3V236
			C136.3,235.3,135.6,234.7,134.8,234.7z"/>
		<path class="st10" d="M108.8,309.5h26.1c0.8,0,1.5-0.7,1.5-1.5v-22.5c0,0.8-0.7,1.5-1.5,1.5h-26.1c-0.8,0-1.5-0.7-1.5-1.5V308
			C107.4,308.8,108,309.5,108.8,309.5z"/>
	</g>
	<path class="st25" d="M135.7,236.8h-28.2c-0.7,0-1.3-0.6-1.3-1.3v-0.3c0-0.7,0.6-1.3,1.3-1.3h28.2c0.7,0,1.3,0.6,1.3,1.3v0.3
		C137,236.2,136.4,236.8,135.7,236.8z"/>
	<circle class="st18" cx="121.6" cy="259.3" r="8"/>
</g>
<g>
	<ellipse class="st11" cx="139.6" cy="272.9" rx="5.4" ry="5.8"/>
	<g>
		<path class="st13" d="M143.2,268.5c0.5,0.9,0.8,1.9,0.8,3c0,3.2-2.4,5.8-5.4,5.8c-1.4,0-2.6-0.6-3.5-1.4c1,1.7,2.7,2.8,4.6,2.8
			c3,0,5.4-2.6,5.4-5.8C145.1,271.1,144.3,269.5,143.2,268.5z"/>
	</g>
</g>
<g>
	<path class="st11" d="M127.5,269.9H98.8c-2.5,0-4.5-2-4.5-4.5v-0.8c0-2.5,2-4.5,4.5-4.5h28.7c2.5,0,4.5,2,4.5,4.5v0.8
		C132,267.9,130,269.9,127.5,269.9z"/>
	<g>
		<path class="st13" d="M131.6,263.2C131.6,263.2,131.6,263.2,131.6,263.2c0,2.7-2.1,4.8-4.7,4.8H96c-0.3,0-0.5,0-0.8-0.1
			c0.9,1.2,2.3,2,3.9,2h27.9c2.7,0,4.9-2.2,4.9-4.9C132,264.4,131.9,263.8,131.6,263.2z"/>
	</g>
	<path class="st11" d="M127.5,280.1H98.8c-2.5,0-4.5-2-4.5-4.5v-0.8c0-2.5,2-4.5,4.5-4.5h28.7c2.5,0,4.5,2,4.5,4.5v0.8
		C132,278.1,130,280.1,127.5,280.1z"/>
	<path class="st11" d="M127.5,290.2H98.8c-2.5,0-4.5-2-4.5-4.5V285c0-2.5,2-4.5,4.5-4.5h28.7c2.5,0,4.5,2,4.5,4.5v0.8
		C132,288.2,130,290.2,127.5,290.2z"/>
	<path class="st13" d="M131.6,273.3C131.6,273.3,131.6,273.3,131.6,273.3c0,2.7-2.1,4.8-4.7,4.8H96c-0.3,0-0.5,0-0.8-0.1
		c0.9,1.2,2.3,2,3.9,2h27.9c2.7,0,4.9-2.2,4.9-4.9C132,274.5,131.9,273.8,131.6,273.3z"/>
	<path class="st13" d="M131.6,283.6C131.6,283.6,131.6,283.6,131.6,283.6c0,2.7-2.1,4.8-4.7,4.8H96c-0.3,0-0.5,0-0.8-0.1
		c0.9,1.2,2.3,2,3.9,2h27.9c2.7,0,4.9-2.2,4.9-4.9C132,284.8,131.9,284.2,131.6,283.6z"/>
</g>
<g>
	<path class="st25" d="M239.1,337H80.8c-3.6,0-5.2-0.3-7-3.2c-0.1-0.2-0.1-0.4-0.2-0.6l-11-43.6c-1.1-1.8,0.5-3.7,3.9-4.4
		c0.8-0.1,1.6-0.2,2.4-0.2h187c0.2,0,0.4,0,0.6,0c4.4,0.2,7.1,2.7,5.4,4.8l-13.4,45.5C247.9,336.8,242.4,337,239.1,337z"/>
	<path class="st26" d="M237.5,337.7H82.4c-3.6,0-5.1-0.2-6.8-3.1c-0.1-0.2-0.1-0.4-0.2-0.6l-10.5-41.7c-0.7-1.1-0.2-2.4,1.4-3.3
		c1.2-0.6,3-1,4.9-1h182.5c0.2,0,0.4,0,0.6,0c4.3,0.2,6.9,2.5,5.3,4.5l-11.7,40.5l-3.8,2.1C243.3,336.7,240.6,337.7,237.5,337.7z"/>
	<path class="st25" d="M248.6,340.2H73.6c-0.4,0-0.7-0.3-0.7-0.7v-6.1c0-0.4,0.3-0.7,0.7-0.7h174.9c0.4,0,0.7,0.3,0.7,0.7v6.1
		C249.3,339.9,249,340.2,248.6,340.2z"/>
	<ellipse class="st25" cx="164" cy="310.1" rx="13.3" ry="3.7"/>
</g>
</svg>
